<?xml version="1.0" encoding="UTF-8" standalone="no"?>
<svg
   width="200"
   height="200"
   version="1.1"
   id="svg4"
   sodipodi:docname="blood_stinger.svg"
   inkscape:version="1.3.2 (091e20e, 2023-11-25, custom)"
   xmlns:inkscape="http://www.inkscape.org/namespaces/inkscape"
   xmlns:sodipodi="http://sodipodi.sourceforge.net/DTD/sodipodi-0.dtd"
   xmlns="http://www.w3.org/2000/svg"
   xmlns:svg="http://www.w3.org/2000/svg">
  <defs
     id="defs4" />
  <sodipodi:namedview
     id="namedview4"
     pagecolor="#505050"
     bordercolor="#eeeeee"
     borderopacity="1"
     inkscape:showpageshadow="0"
     inkscape:pageopacity="0"
     inkscape:pagecheckerboard="0"
     inkscape:deskcolor="#505050"
     inkscape:zoom="2.5905821"
     inkscape:cx="138.19288"
     inkscape:cy="119.47122"
     inkscape:window-width="1920"
     inkscape:window-height="1009"
     inkscape:window-x="3832"
     inkscape:window-y="-8"
     inkscape:window-maximized="1"
     inkscape:current-layer="svg4" />
  <path
     fill="#9c1010"
     d="m 169.43507,100.00194 q -74.064074,32.06974 -138.870134,80.17434 9.25801,-80.17434 0,-160.348676 64.80606,48.104611 138.870134,80.174336"
     id="path1"
     style="stroke-width:9.25801" />
  <path
     fill="#7e0d0d"
     d="m 177.31364,118.21244 q -71.95325,31.1532 -134.926224,77.89687 -0.77767,0.58326 -1.62015,1.08319 -0.84248,0.49993 -1.71273,0.9258 -0.87951,0.40735 -1.79606,0.74064 -0.9258,0.32403 -1.86086,0.55548 -0.95357,0.24071 -1.9164,0.38884 -0.96284,0.13887 -1.93493,0.18516 -0.97209,0.0463 -1.94418,0 -0.97209,-0.037 -1.94418,-0.18516 -0.96283,-0.13887 -1.90715,-0.37032 -0.94432,-0.23145 -1.86086,-0.574 -0.91654,-0.34254 -1.79605,-0.74064 -0.87951,-0.39809 -1.721992,-0.9258 -0.842479,-0.5277 -1.620151,-1.07393 -0.777673,-0.54622 -1.499797,-1.23131 -0.722125,-0.68509 -1.388701,-1.37945 -0.666577,-0.69435 -1.231315,-1.49979 -1.110961,-1.50906 -1.925666,-3.19401 -0.814705,-1.69422 -1.296121,-3.49953 -0.490674,-1.81457 -0.629544,-3.67543 -0.138871,-1.87012 0.07406,-3.73098 8.998783,-77.90613 0,-155.812253 -0.111096,-0.962833 -0.129612,-1.944182 -0.0093,-0.962832 0.06481,-1.944181 0.08332,-0.962833 0.259224,-1.925666 0.166644,-0.953574 0.435126,-1.897891 0.27774,-0.925801 0.629545,-1.842344 0.351804,-0.907284 0.796188,-1.768279 0.453643,-0.8702533 0.981349,-1.6942164 0.527706,-0.8147047 1.129477,-1.5738613 0.60177,-0.7591566 1.286863,-1.4720231 0.685092,-0.7128666 1.416475,-1.3331531 0.731383,-0.6202865 1.546087,-1.1850249 0.814705,-0.5647385 1.647926,-1.0183808 0.833219,-0.4536424 1.749759,-0.8702527 0.91655,-0.4166103 1.82383,-0.6850926 0.90729,-0.26848221 1.87938,-0.5091904 0.97209,-0.24070819 1.9164,-0.31477225 1.86086,-0.21293416 3.73098,-0.07406405 1.87012,0.13887011 3.68469,0.62028648 1.81457,0.48141642 3.49027,1.29612112 1.69421,0.8239626 3.19401,1.9441815 62.972974,46.7344245 134.926224,77.8968735 0.89802,0.388835 1.75902,0.860995 0.84248,0.4629 1.64792,1.018379 0.79619,0.555481 1.54609,1.194283 0.74064,0.629545 1.41647,1.323895 0.67584,0.703609 1.28687,1.462766 0.60177,0.768414 1.12947,1.583119 0.53697,0.823963 0.98135,1.684957 0.44439,0.870253 0.80545,1.777538 0.36106,0.907284 0.62029,1.842343 0.27774,0.935059 0.44438,1.897892 0.16664,0.962832 0.25922,1.925665 0.0741,0.972091 0.0648,1.944173 -0.0185,0.98135 -0.12961,1.94419 -0.1111,0.97209 -0.31477,1.92566 -0.20368,0.95358 -0.50919,1.87938 -0.30552,0.9258 -0.6851,1.82382 -0.74064,1.71273 -1.79605,3.26808 -1.05541,1.55535 -2.37931,2.86998 -1.32389,1.31464 -2.86998,2.37931 -1.54609,1.06467 -3.27733,1.80531 m -15.74787,-36.420994 7.8693,18.210494 -7.87856,18.2105 Q 85.381606,85.226167 18.742465,35.751377 l 11.822471,-15.923773 19.7103,-2.27747 q 9.51723,82.451806 0,164.903616 l -19.7103,-2.27747 -11.822471,-15.92377 Q 85.381606,114.77772 161.55651,81.800705"
     id="path2"
     style="stroke-width:9.25801" />
</svg>
