<?xml version="1.0" encoding="UTF-8" standalone="no"?>
<svg
   width="200"
   height="200"
   version="1.1"
   id="svg4"
   sodipodi:docname="bone.svg"
   inkscape:version="1.4 (86a8ad7, 2024-10-11)"
   xmlns:inkscape="http://www.inkscape.org/namespaces/inkscape"
   xmlns:sodipodi="http://sodipodi.sourceforge.net/DTD/sodipodi-0.dtd"
   xmlns="http://www.w3.org/2000/svg"
   xmlns:svg="http://www.w3.org/2000/svg">
  <defs
     id="defs4" />
  <sodipodi:namedview
     id="namedview4"
     pagecolor="#ffffff"
     bordercolor="#000000"
     borderopacity="0.25"
     inkscape:showpageshadow="2"
     inkscape:pageopacity="0.0"
     inkscape:pagecheckerboard="0"
     inkscape:deskcolor="#d1d1d1"
     inkscape:zoom="3.5772727"
     inkscape:cx="80.228717"
     inkscape:cy="110.55909"
     inkscape:window-width="1920"
     inkscape:window-height="1001"
     inkscape:window-x="-9"
     inkscape:window-y="-9"
     inkscape:window-maximized="1"
     inkscape:current-layer="svg4" />
  <path
     fill="#cfcfcf"
     d="m 103.21408,40.875459 q 9.9628,51.723596 52.84818,82.306401 l -7.82684,10.97418 0.2302,-13.47621 q 20.17469,0.3472 29.76767,13.46489 8.89105,12.16294 4.14362,27.23169 -4.6795,14.84609 -18.43875,19.73693 -15.52916,5.52106 -30.6545,-6.66452 l 8.45706,-10.49869 13.06109,-3.32093 q 4.78894,18.82744 -6.69093,30.64696 -10.17414,10.47605 -25.62405,8.55518 -15.67633,-1.95482 -23.035217,-15.10271 -7.936289,-14.18191 0.143395,-32.66971 l 12.347852,5.39651 -13.234693,2.55109 Q 88.745361,108.28293 45.85999,77.700121 L 53.686835,66.729708 53.456633,80.202144 Q 33.281942,79.854956 23.688963,66.737255 14.797909,54.574324 19.545339,39.505573 24.224842,24.659476 37.984086,19.768642 53.51324,14.247584 68.638597,26.436931 L 60.18153,36.928073 47.120437,40.24901 Q 42.331495,21.425336 53.81137,9.6058188 63.985512,-0.87022663 79.435416,1.0544063 95.111751,3.0054568 102.47065,16.149575 q 7.93627,14.185683 -0.14341,32.67349 L 89.97939,43.426542 Z m -26.469378,5.098393 q -0.3887,-2.007657 -0.162273,-4.037957 0.226428,-2.034074 1.045341,-3.905874 2.71713,-6.215436 1.320827,-8.713686 -0.698152,-1.245352 -2.849213,-1.513291 -2.124644,-0.264165 -2.951105,0.581164 -0.977412,1.007603 0.09435,5.222928 0.3887,1.520838 0.415118,3.09451 0.02642,1.566123 -0.309451,3.098282 -0.332095,1.535935 -1.011377,2.951106 -0.679283,1.415172 -1.660468,2.637881 -0.415117,0.513235 -0.879294,0.984959 -0.464176,0.471724 -0.973639,0.898163 -0.509461,0.426438 -1.056661,0.796269 -0.543426,0.37738 -1.12459,0.690605 -0.581164,0.316998 -1.192518,0.57739 -0.607581,0.260392 -1.241577,0.452855 -0.630223,0.200011 -1.279316,0.339641 -0.649092,0.132083 -1.305731,0.203784 -0.660415,0.06793 -1.320828,0.07548 -0.660414,0.0075 -1.320827,-0.05283 -0.660413,-0.06038 -1.309506,-0.181143 -0.652866,-0.124534 -1.286863,-0.313224 -0.633998,-0.184916 -1.249126,-0.433986 -0.615128,-0.245296 -1.200065,-0.554747 -0.588712,-0.301903 -1.143459,-0.667962 -0.550974,-0.362283 -1.067983,-0.777401 -3.388865,-2.732225 -4.709693,-2.260501 -1.113268,0.396249 -1.758586,2.441643 -0.649093,2.064264 0.192463,3.219045 1.690659,2.30956 8.468389,2.426548 2.045395,0.03397 3.988898,0.675508 1.943503,0.641546 3.607745,1.826517 51.663196,36.84353 63.663856,99.152602 0.38871,2.00766 0.16228,4.03796 -0.22642,2.03784 -1.04535,3.90964 -2.71712,6.21544 -1.32082,8.70992 0.69815,1.24534 2.84922,1.51329 2.12464,0.26416 2.9511,-0.58117 0.97742,-1.0076 -0.0944,-5.22293 -0.3887,-1.52083 -0.41512,-3.09073 -0.0265,-1.56991 0.30946,-3.10206 0.33587,-1.53216 1.01137,-2.94733 0.67929,-1.41895 1.66047,-2.64166 0.41511,-0.51323 0.87929,-0.98496 0.46418,-0.47172 0.97365,-0.89816 0.50945,-0.42644 1.05665,-0.79627 0.54343,-0.3736 1.1246,-0.69061 0.58116,-0.31699 1.19251,-0.57738 0.61136,-0.26039 1.24158,-0.45285 0.63022,-0.20002 1.27932,-0.33588 0.64909,-0.13585 1.30573,-0.20378 0.65664,-0.0679 1.32083,-0.0754 0.66041,-0.008 1.32082,0.0491 0.66042,0.0604 1.3095,0.18491 0.65287,0.12076 1.28687,0.30946 0.634,0.18869 1.24912,0.43398 0.61513,0.2453 1.20007,0.55475 0.58871,0.30568 1.14346,0.66797 0.55098,0.36227 1.06798,0.7774 3.38887,2.73222 4.7097,2.26427 1.11326,-0.40003 1.75859,-2.44542 0.64908,-2.06426 -0.19248,-3.21905 -1.69064,-2.30955 -8.46838,-2.42276 -2.04539,-0.0377 -3.9889,-0.67929 -1.9435,-0.64154 -3.60774,-1.82652 Q 88.745361,108.28293 76.744702,45.973852"
     id="path1"
     style="stroke-width:3.7738" />
  <path
     fill="#ffffff"
     d="m 89.97939,43.426542 q 10.98174,57.014448 58.25603,90.725728 c 38.87006,0.66796 20.05392,51.18772 -6.4947,29.79409 8.40424,33.04709 -45.364752,29.13367 -29.79786,-6.49093 Q 100.96113,100.44099 53.686835,66.729708 C 14.816778,66.057972 33.632904,15.538221 60.18153,36.931847 51.777296,3.8847504 105.54628,7.8019463 89.97939,43.422768"
     id="path2"
     style="stroke-width:3.7738" />
</svg>
