<?xml version="1.0" encoding="UTF-8" standalone="no"?>
<svg
   width="200"
   height="200"
   version="1.1"
   id="svg4"
   sodipodi:docname="fang.svg"
   inkscape:version="1.3.2 (091e20e, 2023-11-25, custom)"
   xmlns:inkscape="http://www.inkscape.org/namespaces/inkscape"
   xmlns:sodipodi="http://sodipodi.sourceforge.net/DTD/sodipodi-0.dtd"
   xmlns="http://www.w3.org/2000/svg"
   xmlns:svg="http://www.w3.org/2000/svg">
  <defs
     id="defs4" />
  <sodipodi:namedview
     id="namedview4"
     pagecolor="#505050"
     bordercolor="#eeeeee"
     borderopacity="1"
     inkscape:showpageshadow="0"
     inkscape:pageopacity="0"
     inkscape:pagecheckerboard="0"
     inkscape:deskcolor="#505050"
     inkscape:zoom="2.5905821"
     inkscape:cx="92.643271"
     inkscape:cy="102.48662"
     inkscape:window-width="1920"
     inkscape:window-height="1009"
     inkscape:window-x="3832"
     inkscape:window-y="-8"
     inkscape:window-maximized="1"
     inkscape:current-layer="svg4" />
  <path
     fill="#9c1010"
     d="M 157.99156,187.93825 89.540758,154.98463 q -1.350559,-0.29825 -2.678608,-0.6584 -1.333677,-0.36015 -2.65047,-0.78783 -1.316795,-0.42205 -2.605453,-0.91163 -1.294285,-0.48394 -2.560434,-1.03542 -1.266148,-0.5571 -2.50416,-1.17049 -1.238012,-0.61338 -2.44226,-1.28302 -1.204248,-0.66966 -2.380359,-1.40684 -1.176111,-0.73717 -2.307204,-1.51938 -1.131092,-0.78782 -2.228421,-1.63192 -1.091702,-0.8441 -2.144012,-1.73884 -1.05231,-0.89475 -2.059601,-1.84014 -1.007292,-0.94539 -1.963937,-1.94143 -0.956645,-0.99604 -1.868272,-2.03709 -0.911628,-1.04105 -1.766982,-2.1215 -0.855353,-1.08045 -1.654433,-2.20591 -0.799081,-1.12547 -1.553143,-2.29033 -0.742806,-1.15923 -1.434968,-2.36347 -0.686534,-1.193 -1.316794,-2.41975 -0.63026,-1.23802 -1.192993,-2.49291 -0.568361,-1.26052 -1.074819,-2.54356 -0.50646,-1.28864 -0.945392,-2.59419 -0.444558,-1.31117 -0.821589,-2.64485 -0.377031,-1.32242 -0.686534,-2.67297 -0.309503,-1.34494 -0.557106,-2.70112 -0.241975,-1.36181 -0.422049,-2.72925 -0.174447,-1.37307 -0.286993,-2.75177 -0.112547,-1.37306 -0.151938,-2.75738 -0.04502,-1.3787 -0.01689,-2.757395 0.02251,-1.384322 0.112547,-2.757389 0.09566,-1.384323 0.258856,-2.757391 0.157566,-1.36744 0.388286,-2.729253 0.225093,-1.36744 0.517713,-2.712371 L 45.062367,12.061786 113.51316,45.01541 q 1.35057,0.298249 2.67861,0.658398 1.33368,0.360149 2.65047,0.787826 1.3168,0.42205 2.60546,0.911627 1.29428,0.489577 2.56043,1.041055 1.26615,0.551478 2.50417,1.164857 1.238,0.613378 2.44226,1.28303 1.20424,0.669652 2.38035,1.406832 1.17611,0.737179 2.3072,1.519378 1.1311,0.782198 2.22843,1.631925 1.09733,0.849726 2.14401,1.74447 1.05231,0.889119 2.0596,1.834509 1.00729,0.951018 1.96394,1.941428 0.95664,0.996037 1.86827,2.037093 0.906,1.041055 1.76698,2.121502 0.85536,1.086074 1.65444,2.211539 0.8047,1.125465 1.55314,2.284694 0.7428,1.164857 1.43497,2.363477 0.68653,1.192994 1.31679,2.419751 0.63026,1.238012 1.193,2.492905 0.56835,1.260522 1.07481,2.549179 0.50646,1.283031 0.9454,2.588571 0.44456,1.311167 0.82159,2.644844 0.37703,1.333675 0.68653,2.67298 0.3095,1.339304 0.55711,2.701116 0.24759,1.361813 0.42205,2.734881 0.17444,1.36744 0.28699,2.746135 0.11255,1.373068 0.15193,2.757391 0.045,1.378694 0.0169,2.757387 -0.0225,1.38433 -0.11254,2.76302 -0.0956,1.37869 -0.25886,2.75177 -0.16319,1.37306 -0.38828,2.73487 -0.2251,1.36182 -0.51771,2.71238 z"
     id="path1"
     style="stroke-width:5.62733" />
  <path
     fill="#7e0d0d"
     d="m 152.76377,198.80462 -68.456427,-32.95925 5.233415,-10.86074 -2.571689,11.77799 Q 59.316386,160.74139 44.021312,136.92091 28.726238,113.10044 34.758733,85.447753 l 11.777995,2.571688 -12.053734,0.23072 -1.485615,-75.952027 q -0.01126,-0.596497 0.03939,-1.181739 0.04502,-0.596496 0.14631,-1.1817382 0.10692,-0.5796146 0.270112,-1.1479746 Q 33.610756,8.2183223 33.824594,7.6612168 34.044061,7.1153662 34.314172,6.5863975 34.584284,6.0574288 34.899414,5.5565969 35.214545,5.0557648 35.585948,4.594324 35.957351,4.1328832 36.36252,3.6995791 36.767687,3.266275 37.2235,2.8892441 37.673687,2.5065858 38.163264,2.1689463 38.647214,1.8313067 39.164927,1.5386857 39.682642,1.251692 40.222866,1.009717 40.768716,0.77336929 41.331448,0.59329484 41.894181,0.40759306 42.473796,0.28379188 43.05341,0.15436337 43.638652,0.08683545 44.229522,0.0136802 44.82039,0.00242557 47.695954,-0.05384772 50.284525,1.1954188 L 118.73532,34.154671 113.5019,45.01541 116.07359,33.237416 q 27.65268,6.02124 42.94776,29.841713 15.29507,23.820473 9.26258,51.473161 l -11.778,-2.56606 12.05373,-0.23636 1.48563,75.95766 q 0.0112,0.59087 -0.0394,1.18174 -0.045,0.59087 -0.14631,1.17049 -0.10692,0.58523 -0.27011,1.1536 -0.15757,0.57398 -0.37141,1.12547 -0.21384,0.55147 -0.48957,1.07481 -0.27574,0.52335 -0.58524,1.0298 -0.32076,0.50083 -0.68654,0.96227 -0.36577,0.46145 -0.77657,0.89475 -0.41078,0.43331 -0.86098,0.81034 -0.45018,0.37703 -0.93976,0.72592 -0.48958,0.34889 -1.00167,0.62463 -0.51209,0.27574 -1.05794,0.52897 -0.54584,0.25323 -1.10858,0.41642 -0.56272,0.16319 -1.14234,0.31514 -0.57961,0.15193 -1.16485,0.19132 -0.58524,0.0394 -1.18174,0.0844 -2.87556,0.0563 -5.46413,-1.193 m 10.46118,-21.72711 -5.23341,10.86074 -12.05374,0.23635 -1.48561,-75.95202 q -0.0281,-1.4181 0.27574,-2.80805 3.89975,-17.894893 -5.9931,-33.302513 -9.89284,-15.407621 -27.79335,-19.312985 -1.38434,-0.298248 -2.66174,-0.917255 L 39.823348,22.928113 45.056761,12.061745 57.110494,11.825398 58.596109,87.783052 q 0.02813,1.418086 -0.27574,2.802408 -3.899736,17.8949 5.993103,33.30252 9.892841,15.40762 27.793367,19.31298 1.384322,0.30388 2.661725,0.91726 z"
     id="path2"
     style="stroke-width:5.62733" />
</svg>
