<?xml version="1.0" encoding="UTF-8" standalone="no"?>
<svg
   width="200"
   height="200"
   version="1.1"
   id="svg5"
   sodipodi:docname="jelly.svg"
   inkscape:version="1.4 (86a8ad7, 2024-10-11)"
   xmlns:inkscape="http://www.inkscape.org/namespaces/inkscape"
   xmlns:sodipodi="http://sodipodi.sourceforge.net/DTD/sodipodi-0.dtd"
   xmlns="http://www.w3.org/2000/svg"
   xmlns:svg="http://www.w3.org/2000/svg">
  <defs
     id="defs5" />
  <sodipodi:namedview
     id="namedview5"
     pagecolor="#ffffff"
     bordercolor="#000000"
     borderopacity="0.25"
     inkscape:showpageshadow="2"
     inkscape:pageopacity="0.0"
     inkscape:pagecheckerboard="0"
     inkscape:deskcolor="#d1d1d1"
     inkscape:zoom="2.6227233"
     inkscape:cx="13.72619"
     inkscape:cy="105.04349"
     inkscape:window-width="1920"
     inkscape:window-height="1001"
     inkscape:window-x="-9"
     inkscape:window-y="-9"
     inkscape:window-maximized="1"
     inkscape:current-layer="svg5" />
  <path
     fill="none"
     stroke="#fa9cff"
     stroke-linecap="round"
     stroke-linejoin="round"
     stroke-opacity="0.698"
     stroke-width="22.2067"
     d="m 189.00973,100.27907 q 0,2.17626 -0.10362,4.35771 -0.10882,2.17626 -0.32644,4.35253 -0.21244,2.1659 -0.5337,4.32144 -0.31607,2.16071 -0.74615,4.30071 -0.42489,2.13482 -0.95341,4.2489 -0.52853,2.11926 -1.16068,4.20226 -0.63214,2.08299 -1.36793,4.14526 -0.73579,2.05191 -1.57002,4.06237 -0.83424,2.02081 -1.76692,3.98981 -0.93269,1.96901 -1.95865,3.89137 -1.03113,1.92237 -2.15035,3.79292 -1.11921,1.87055 -2.33171,3.68411 -1.21249,1.81355 -2.51307,3.56492 -1.30057,1.75138 -2.67887,3.43539 -1.37831,1.68402 -2.84987,3.30585 -1.47157,1.62184 -3.00532,3.15559 -1.53375,1.53374 -3.16077,3.00531 -1.62701,1.47158 -3.30066,2.84987 -1.67366,1.3783 -3.43539,2.67888 -1.76174,1.30057 -3.56494,2.51307 -1.80318,1.21249 -3.67892,2.33171 -1.87573,1.11922 -3.7981,2.15036 -1.92236,1.03113 -3.89136,1.95863 -1.96901,0.93269 -3.98982,1.76692 -2.01564,0.83424 -4.06755,1.57002 -2.0519,0.73579 -4.14008,1.36794 -2.08818,0.63216 -4.19708,1.16068 -2.1089,0.52852 -4.25926,0.95859 -2.15036,0.43007 -4.29553,0.74096 -2.14518,0.3109 -4.32662,0.53371 -2.18145,0.2228 -4.34735,0.32126 -2.16589,0.0985 -4.3577,0.1088 -2.176273,0 -4.35771,-0.10362 -2.176273,-0.10362 -4.352535,-0.32125 -2.1659,-0.20726 -4.321438,-0.5337 -2.160724,-0.31607 -4.300713,-0.74096 -2.134813,-0.4249 -4.248892,-0.9586 -2.119275,-0.52853 -4.202267,-1.16068 -2.082993,-0.63214 -4.145271,-1.36793 -2.04672,-0.73579 -4.062355,-1.57002 -2.020817,-0.83424 -3.989819,-1.76174 -1.969001,-0.92751 -3.891368,-1.969 -1.922367,-1.02596 -3.792918,-2.14518 -1.870551,-1.11921 -3.684105,-2.33171 -1.813554,-1.21249 -3.564928,-2.51307 -1.751375,-1.2954 -3.435389,-2.67887 -1.689196,-1.38348 -3.300668,-2.84987 -1.616653,-1.4664 -3.160764,-3.00532 -1.538931,-1.54412 -3.005318,-3.16077 -1.466388,-1.61147 -2.849871,-3.30066 -1.383481,-1.68402 -2.678877,-3.43539 -1.295396,-1.75138 -2.513067,-3.56494 -1.217673,-1.81354 -2.331712,-3.67892 -1.114041,-1.86536 -2.150357,-3.7981 -1.036316,-1.93272 -1.958638,-3.89136 -0.922322,-1.95864 -1.766919,-3.98982 -0.844598,-2.03118 -1.570019,-4.06755 -0.725422,-2.03635 -1.367939,-4.14008 -0.642515,-2.10372 -1.160673,-4.19708 -0.518159,-2.09336 -0.953412,-4.25926 -0.435253,-2.1659 -0.746147,-4.29553 -0.310895,-2.12963 -0.533704,-4.32662 -0.222808,-2.19699 -0.321258,-4.34734 -0.09844,-2.15036 -0.103632,-4.35254 0,-2.186621 0.103632,-4.362882 0.103632,-2.176273 0.321258,-4.352535 0.212446,-2.1659 0.533704,-4.321438 0.316076,-2.160724 0.746147,-4.300713 0.424889,-2.134813 0.953412,-4.248892 0.528521,-2.11409 1.160673,-4.202267 0.632153,-2.088178 1.367939,-4.145267 0.735784,-2.046724 1.570019,-4.062359 0.834234,-2.015636 1.766919,-3.989819 0.932685,-1.974183 1.958638,-3.891368 1.031135,-1.922367 2.150357,-3.792918 1.119221,-1.870551 2.331712,-3.678924 1.212489,-1.808372 2.513067,-3.570109 1.300577,-1.761738 2.678877,-3.435389 1.378301,-1.673651 2.849871,-3.300668 1.471569,-1.627017 3.005318,-3.160764 1.533747,-1.533749 3.160764,-3.005318 1.627017,-1.47157 3.300668,-2.849871 1.673651,-1.3783 3.435389,-2.678877 1.761737,-1.300578 3.564928,-2.513067 1.803191,-1.212491 3.678924,-2.331712 1.875732,-1.119222 3.798099,-2.150357 1.922367,-1.031135 3.891368,-1.958638 1.969002,-0.932685 3.989819,-1.761738 2.015635,-0.839416 4.067541,-1.5752 2.051906,-0.730603 4.140085,-1.367939 2.082992,-0.632152 4.197081,-1.160673 2.114089,-0.528523 4.259264,-0.953412 2.145176,-0.42489 4.295527,-0.746147 2.150362,-0.321258 4.326624,-0.533704 2.176262,-0.212445 4.347349,-0.321258 2.176261,-0.103632 4.35771,-0.103632 2.17626,0 4.3577,0.103632 2.17627,0.103632 4.35253,0.321258 2.1659,0.212446 4.32144,0.533704 2.16072,0.321257 4.30071,0.746147 2.13481,0.424889 4.2489,0.953412 2.11927,0.528521 4.20226,1.160673 2.083,0.632153 4.14527,1.367939 2.04672,0.735784 4.06236,1.570019 2.02081,0.834234 3.98982,1.766919 1.969,0.932685 3.89136,1.958638 1.92237,1.031135 3.79293,2.150357 1.87055,1.124403 3.68409,2.331712 1.81356,1.212489 3.56494,2.513067 1.75137,1.295396 3.43539,2.68406 1.68919,1.3783 3.30066,2.84987 1.61665,1.461205 3.16077,3.005317 1.53892,1.53893 3.00532,3.155583 1.46639,1.611472 2.84987,3.300668 1.38347,1.684014 2.67887,3.435389 1.29539,1.751374 2.51307,3.564928 1.21767,1.813554 2.33171,3.678924 1.11404,1.865369 2.15035,3.798099 1.03632,1.932731 1.95865,3.896549 0.92232,1.963821 1.76692,3.984638 0.8446,2.020817 1.57002,4.067541 0.72541,2.046725 1.36793,4.140085 0.64252,2.093358 1.16068,4.197081 0.51816,2.103727 0.95341,4.259264 0.43525,2.155538 0.74615,4.295527 0.31089,2.139989 0.5337,4.326624 0.22281,2.186624 0.32125,4.347349 0.0985,2.160713 0.10362,4.357712"
     id="path1" />
  <path
     fill="#fa9cff"
     fill-opacity="0.349"
     d="m 177.9056,100.27907 q 0,1.90683 -0.0932,3.81365 -0.0933,1.90682 -0.2798,3.80328 -0.18654,1.89646 -0.46635,3.78773 -0.2798,1.89128 -0.65288,3.75665 -0.37307,1.87574 -0.83941,3.72555 -0.46116,1.84983 -1.01559,3.67892 -0.55443,1.82392 -1.19176,3.61675 -0.6477,1.79801 -1.37831,3.55975 -0.72542,1.76174 -1.5441,3.48721 -0.8187,1.72546 -1.71511,3.40947 -0.9016,1.68402 -1.88092,3.31622 -0.9845,1.63737 -2.04154,3.22813 -1.06222,1.58555 -2.19699,3.11931 -1.13995,1.52856 -2.34725,3.00532 -1.20731,1.47675 -2.48716,2.88614 -1.27986,1.40939 -2.63225,2.76696 -1.3472,1.34721 -2.76697,2.62706 -1.40939,1.28503 -2.88613,2.49234 -1.47675,1.21249 -3.00532,2.34725 -1.53375,1.13996 -3.11932,2.197 -1.59074,1.06222 -3.22294,2.04154 -1.63738,0.9845 -3.32139,1.88092 -1.68401,0.89641 -3.40948,1.70992 -1.72546,0.81351 -3.48721,1.55447 -1.76173,0.74097 -3.55974,1.36794 -1.79802,0.62697 -3.62193,1.19695 -1.82392,0.56997 -3.67893,1.02077 -1.84464,0.46634 -3.72037,0.82905 -1.86537,0.37825 -3.75665,0.65806 -1.88609,0.2798 -3.78255,0.46634 -1.90164,0.18654 -3.80847,0.27981 -1.90682,0.0933 -3.81363,0.0933 -1.906825,0 -3.81365,-0.0933 -1.906825,-0.0932 -3.803277,-0.27981 -1.896463,-0.18654 -3.78774,-0.46634 -1.891276,-0.27981 -3.756642,-0.65287 -1.865377,-0.37308 -3.725556,-0.83424 -1.849828,-0.46635 -3.678932,-1.02077 -1.823917,-0.55443 -3.616737,-1.19177 -1.798007,-0.64769 -3.559752,-1.37829 -1.761736,-0.72543 -3.487202,-1.54412 -1.725467,-0.81869 -3.409481,-1.7151 -1.684015,-0.9016 -3.316213,-1.88092 -1.63738,-0.98449 -3.228126,-2.04154 -1.585563,-1.05704 -3.11413,-2.197 -1.533749,-1.13994 -3.005318,-2.34725 -1.481932,-1.20731 -2.891322,-2.48716 -1.414572,-1.28503 -2.766966,-2.63224 -1.347211,-1.34721 -2.627061,-2.76696 -1.285032,-1.40939 -2.492342,-2.88614 -1.212489,-1.47676 -2.347256,-3.00532 -1.139948,-1.53376 -2.196991,-3.11931 -1.062224,-1.59076 -2.041543,-3.22295 -0.9845,-1.63738 -1.880915,-3.31621 -0.896413,-1.6892 -1.709922,-3.41466 -0.81869,-1.72029 -1.554474,-3.48721 -0.725422,-1.76174 -1.367937,-3.55975 -0.642517,-1.79283 -1.196946,-3.62192 -0.554429,-1.82392 -1.01559,-3.67892 -0.466342,-1.84464 -0.839416,-3.72038 -0.373075,-1.86537 -0.65288,-3.75665 -0.279805,-1.8861 -0.466342,-3.78256 -0.186537,-1.90163 -0.279805,-3.80845 -0.09327,-1.90682 -0.09327,-3.81365 0,-1.906824 0.09327,-3.813639 0.09327,-1.906825 0.279805,-3.803288 0.186537,-1.896452 0.466342,-3.782553 0.279805,-1.891276 0.65288,-3.761829 0.373074,-1.870552 0.839416,-3.725556 0.466342,-1.855004 1.01559,-3.678921 0.549247,-1.823918 1.191764,-3.616746 0.647697,-1.798009 1.3783,-3.559747 0.725422,-1.761737 1.544112,-3.487204 0.81869,-1.725467 1.715103,-3.409481 0.901596,-1.684014 1.880915,-3.316213 0.984501,-1.637379 2.041543,-3.222944 1.062225,-1.590746 2.196991,-3.119312 1.139948,-1.533748 2.347256,-3.005318 1.20731,-1.47675 2.48716,-2.891323 1.285032,-1.414571 2.632243,-2.761783 1.347213,-1.347211 2.766966,-2.632243 1.40939,-1.279851 2.886141,-2.492341 1.47675,-1.212491 3.005317,-2.347257 1.533749,-1.139948 3.119312,-2.196991 1.590746,-1.062224 3.222945,-2.041543 1.637379,-0.984501 3.321394,-1.880914 1.684014,-0.896414 3.409481,-1.709922 1.725466,-0.813509 3.487202,-1.554475 1.761745,-0.740967 3.559752,-1.367938 1.798006,-0.626971 3.621924,-1.196945 1.823917,-0.569974 3.678921,-1.01559 1.844641,-0.466343 3.72038,-0.839417 1.865366,-0.367892 3.756642,-0.652878 1.886101,-0.279806 3.782554,-0.466344 1.901638,-0.186536 3.808463,-0.279805 1.906825,-0.09327 3.81365,-0.09327 1.90681,0 3.81363,0.09327 1.90683,0.09327 3.80328,0.279805 1.89647,0.186538 3.78774,0.466344 1.8861,0.284986 3.75665,0.652878 1.87573,0.373074 3.72556,0.839417 1.84982,0.466342 3.67892,1.01559 1.82392,0.554429 3.61675,1.196945 1.79801,0.642517 3.55974,1.37312 1.76175,0.725421 3.48721,1.544111 1.72547,0.81869 3.40948,1.715104 1.68401,0.901595 3.31621,1.880914 1.63738,0.9845 3.22812,2.041543 1.58557,1.062224 3.11414,2.196991 1.53375,1.139948 3.00532,2.347257 1.48192,1.21249 2.89131,2.487159 1.41458,1.285033 2.76697,2.637425 1.34722,1.347212 2.62706,2.761783 1.28504,1.414573 2.49235,2.886141 1.21249,1.476752 2.34725,3.005319 1.13995,1.533747 2.19699,3.124493 1.06223,1.585565 2.04154,3.222944 0.98451,1.632199 1.88092,3.316213 0.89641,1.684014 1.70992,3.409481 0.81351,1.725467 1.55448,3.487204 0.72542,1.761738 1.36793,3.559747 0.64252,1.792828 1.19695,3.621922 0.55443,1.823917 1.01559,3.678932 0.46634,1.849817 0.83941,3.720369 0.37308,1.865377 0.65288,3.756653 0.27981,1.88609 0.46635,3.782553 0.18653,1.901639 0.2798,3.808464 0.0932,1.906815 0.0932,3.813639"
     id="path2"
     style="stroke-width:5.18158" />
  <path
     fill="#fa9cff"
     fill-opacity="0.349"
     d="m 81.678445,74.371162 q 0,1.088132 -0.108808,2.176264 -0.103621,1.088137 -0.321258,2.155543 -0.207264,1.072583 -0.528523,2.114079 -0.316082,1.046682 -0.735786,2.051906 -0.414528,1.010409 -0.932688,1.969008 -0.512974,0.963775 -1.119218,1.870542 -0.606243,0.906777 -1.295395,1.751382 -0.689151,0.844594 -1.466386,1.616653 -0.777246,0.772049 -1.611478,1.4612 -0.834232,0.689152 -1.751371,1.295395 -0.906778,0.61143 -1.865366,1.124404 -0.968961,0.512985 -1.974188,0.932688 -1.010408,0.414529 -2.051906,0.7306 -1.04668,0.316083 -2.114085,0.528523 -1.072588,0.217626 -2.155539,0.321258 -1.088132,0.103621 -2.176264,0.103621 -1.088132,0 -2.176264,-0.103621 -1.088132,-0.103621 -2.155539,-0.321258 -1.072587,-0.207264 -2.114085,-0.528523 -1.04668,-0.310896 -2.051907,-0.7306 -1.010408,-0.419703 -1.969001,-0.932688 -0.963774,-0.518149 -1.870551,-1.119217 -0.906777,-0.606244 -1.751375,-1.300582 -0.844597,-0.694327 -1.616653,-1.4612 -0.766874,-0.777234 -1.461206,-1.616653 -0.694332,-0.844605 -1.295396,-1.751382 -0.611426,-0.906767 -1.124403,-1.865366 -0.512977,-0.963775 -0.932685,-1.968998 -0.414526,-1.01041 -0.730602,-2.057092 -0.316078,-1.041496 -0.533704,-2.114079 -0.207263,-1.067406 -0.316076,-2.155543 -0.108814,-1.088132 -0.103632,-2.176264 0,-1.088132 0.103632,-2.176265 0.103632,-1.088132 0.316076,-2.155538 0.212445,-1.067405 0.533704,-2.114084 0.310893,-1.041499 0.730602,-2.051907 0.419708,-1.005228 0.932685,-1.969001 0.518158,-0.963775 1.119221,-1.86537 0.606246,-0.911958 1.300578,-1.756556 0.694332,-0.839417 1.461206,-1.611473 0.777237,-0.777237 1.616653,-1.466387 0.844598,-0.68915 1.751375,-1.295396 0.906777,-0.606245 1.865369,-1.124403 0.958594,-0.518158 1.969002,-0.932685 1.010408,-0.414526 2.057088,-0.730603 1.041498,-0.316076 2.114085,-0.528521 1.072588,-0.212445 2.155539,-0.321258 1.08295,-0.108814 2.176264,-0.103633 1.088132,0 2.176264,0.103633 1.088132,0.103632 2.155539,0.321258 1.067405,0.207263 2.114085,0.528521 1.04668,0.321258 2.051906,0.735785 1.005227,0.414526 1.969001,0.932684 0.963775,0.512977 1.865366,1.119222 0.911964,0.606246 1.756558,1.295396 0.839419,0.694331 1.611478,1.466387 0.777235,0.772056 1.466386,1.611473 0.689152,0.844598 1.295395,1.751375 0.606244,0.906776 1.124404,1.865369 0.512974,0.968955 0.932678,1.974183 0.414528,1.010408 0.73061,2.051907 0.316072,1.046679 0.528523,2.114084 0.212439,1.072588 0.321258,2.155538 0.103621,1.088133 0.103621,2.176265 m 33.312392,-48.11617 q 0,0.725421 -0.0725,1.450843 -0.0674,0.725421 -0.20726,1.440479 -0.14509,0.709877 -0.35754,1.40939 -0.20726,0.694333 -0.48706,1.367939 -0.27981,0.673605 -0.62179,1.31094 -0.34198,0.637334 -0.74615,1.243579 -0.40417,0.606245 -0.86532,1.171038 -0.46635,0.559611 -0.97932,1.077769 -0.51297,0.518158 -1.07258,0.974137 -0.55962,0.455979 -1.17104,0.865324 -0.61143,0.409345 -1.24359,0.746149 -0.63215,0.336802 -1.31612,0.621789 -0.6736,0.279805 -1.36794,0.49225 -0.69432,0.207263 -1.40939,0.352348 -0.70987,0.139903 -1.4353,0.207263 -0.72541,0.07772 -1.45083,0.07772 -0.725422,0 -1.450847,-0.07254 -0.725424,-0.07255 -1.435299,-0.212445 -0.715052,-0.145085 -1.40939,-0.352348 -0.699513,-0.212445 -1.36793,-0.492251 Q 93.844841,39.65456 93.202324,39.312576 92.559808,38.970588 91.958751,38.566424 91.357683,38.162261 90.787712,37.7011 90.217741,37.239939 89.715119,36.726962 89.212507,36.213985 88.735806,35.649193 88.259095,35.0844 87.870477,34.483338 87.48186,33.882274 87.124329,33.239758 86.782346,32.59206 86.502547,31.923636 86.227913,31.25003 86.015473,30.555698 85.808209,29.856184 85.663129,29.146307 85.518038,28.43125 85.450678,27.705829 q -0.06737,-0.725422 -0.0725,-1.450843 m 48.116162,55.52065 q 0,0.725414 -0.0725,1.450838 -0.0725,0.725424 -0.21244,1.4353 -0.1399,0.709876 -0.35235,1.409389 -0.21244,0.699514 -0.49225,1.367941 -0.2798,0.668416 -0.62178,1.316119 -0.34199,0.63733 -0.74615,1.243584 -0.40417,0.606244 -0.86533,1.165853 -0.46116,0.564795 -0.97414,1.077769 -0.51816,0.51816 -1.07776,0.974136 -0.5648,0.466339 -1.16586,0.86533 -0.60624,0.404155 -1.24358,0.746137 -0.64769,0.347169 -1.31612,0.621792 -0.6736,0.27981 -1.36794,0.49225 -0.69952,0.207264 -1.40939,0.352355 -0.71506,0.139894 -1.44048,0.21244 -0.72542,0.0725 -1.45084,0.0725 -0.72543,0 -1.45084,-0.0725 -0.72543,-0.0725 -1.4353,-0.21244 -0.70988,-0.139905 -1.40939,-0.352355 -0.69952,-0.21244 -1.36794,-0.49225 -0.67361,-0.274623 -1.31095,-0.621792 -0.64251,-0.341982 -1.24357,-0.746137 -0.61143,-0.404166 -1.17104,-0.86533 -0.55961,-0.461163 -1.07777,-0.974136 -0.51816,-0.512974 -0.97413,-1.077769 -0.46635,-0.559609 -0.86533,-1.165853 -0.39898,-0.606254 -0.74615,-1.243584 -0.34716,-0.63733 -0.62178,-1.316119 -0.27981,-0.673614 -0.49226,-1.367941 -0.20726,-0.694327 -0.35235,-1.409389 -0.1399,-0.715062 -0.21244,-1.4353 -0.0725,-0.725424 -0.0725,-1.450838 0,-0.725424 0.0725,-1.450848 0.0725,-0.725424 0.21244,-1.440476 0.13991,-0.715062 0.35235,-1.409389 0.21245,-0.694338 0.49226,-1.367938 0.2798,-0.673606 0.62178,-1.31094 0.34199,-0.637334 0.74615,-1.243579 0.40416,-0.606246 0.86533,-1.171038 0.46116,-0.564793 0.97413,-1.077768 0.51298,-0.512977 1.07777,-0.974138 0.5648,-0.461161 1.16585,-0.865324 0.60107,-0.404164 1.24359,-0.746149 0.64251,-0.341984 1.31612,-0.62179 0.6736,-0.279805 1.36794,-0.487068 0.69433,-0.207263 1.40939,-0.357529 0.71506,-0.150266 1.4353,-0.207263 0.72024,-0.057 1.45084,-0.07255 0.7306,-0.01555 1.45084,0.06736 0.72024,0.08291 1.44048,0.212445 0.72024,0.129539 1.40939,0.357529 0.68915,0.227989 1.36794,0.487068 0.67879,0.259079 1.31094,0.62179 0.63215,0.362711 1.24358,0.746149 0.61143,0.383436 1.17104,0.865323 0.5596,0.466342 1.07776,0.974138 0.51298,0.518158 0.97414,1.077769 0.46634,0.564792 0.86533,1.165856 0.40416,0.606245 0.74615,1.24358 0.34198,0.647697 0.62178,1.316121 0.27981,0.673604 0.49225,1.367942 0.20726,0.699513 0.35235,1.409389 0.13991,0.715052 0.20727,1.440476 0.0777,0.725424 0.0777,1.450848 M 52.065845,122.48732 q 0,0.54406 -0.05181,1.08813 -0.05182,0.54406 -0.155448,1.07777 -0.103632,0.5337 -0.269442,1.05705 -0.155447,0.51815 -0.36271,1.02595 -0.212445,0.50261 -0.466343,0.98449 -0.259079,0.48189 -0.564792,0.93269 -0.300532,0.45598 -0.647698,0.88087 -0.347167,0.41453 -0.730603,0.80314 -0.388618,0.38345 -0.808328,0.7306 -0.424889,0.34717 -0.875687,0.65288 -0.450797,0.30572 -0.932685,0.55962 -0.481886,0.25389 -0.9845,0.46634 -0.507795,0.20727 -1.031135,0.36271 -0.518158,0.16063 -1.057042,0.26426 -0.533703,0.10882 -1.077769,0.16063 -0.538885,0.0519 -1.088133,0.0519 -0.544066,0 -1.088132,-0.0519 -0.538885,-0.0519 -1.077769,-0.15544 -0.533703,-0.10882 -1.057042,-0.26945 -0.523341,-0.16063 -1.025954,-0.36271 -0.502613,-0.20208 -0.9845,-0.46634 -0.481888,-0.26426 -0.932685,-0.55962 -0.450798,-0.29534 -0.875687,-0.65288 -0.424891,-0.35752 -0.808327,-0.7306 -0.383437,-0.37306 -0.730603,-0.80832 -0.347167,-0.43526 -0.647699,-0.87569 -0.305713,-0.4508 -0.559611,-0.93269 -0.259079,-0.48188 -0.466342,-0.98449 -0.207263,-0.50262 -0.367892,-1.02595 -0.160629,-0.52335 -0.264261,-1.05705 -0.103632,-0.53371 -0.160629,-1.07777 -0.057,-0.54407 -0.05181,-1.08813 0.0051,-0.54407 0.05181,-1.08814 0.04663,-0.54406 0.155448,-1.07777 0.108813,-0.5337 0.269442,-1.05703 0.160629,-0.52335 0.362711,-1.02596 0.202081,-0.50261 0.466342,-0.9845 0.264262,-0.48189 0.564792,-0.93269 0.300532,-0.45079 0.647699,-0.88086 0.347166,-0.43007 0.730603,-0.80315 0.383436,-0.37307 0.808327,-0.73579 0.424889,-0.3627 0.875687,-0.64769 0.450797,-0.28498 0.932685,-0.55961 0.481887,-0.27463 0.9845,-0.46635 0.502613,-0.19171 1.025954,-0.3627 0.523339,-0.17099 1.057042,-0.26945 0.533703,-0.0985 1.077769,-0.15544 0.544066,-0.057 1.088132,-0.057 0.544066,0 1.088133,0.0519 0.544066,0.0519 1.077769,0.16063 0.533702,0.10882 1.057042,0.26426 0.52334,0.15546 1.025953,0.3679 0.502614,0.21245 0.984501,0.46635 0.481888,0.25389 0.937866,0.55961 0.455979,0.30571 0.875687,0.64769 0.41971,0.34198 0.808328,0.73578 0.388619,0.39381 0.725421,0.80315 0.352348,0.42489 0.65288,0.88087 0.305713,0.4508 0.559611,0.93269 0.259079,0.48188 0.466342,0.98449 0.207263,0.50262 0.367892,1.02596 0.160629,0.52334 0.264261,1.05704 0.103632,0.5337 0.160629,1.07776 0.057,0.54408 0.05181,1.08815 m 92.527505,22.20825 q 0,1.45085 -0.13991,2.90169 -0.14508,1.44566 -0.42489,2.8706 -0.28498,1.43011 -0.70987,2.81878 -0.41971,1.39384 -0.97932,2.73587 -0.55443,1.34721 -1.24358,2.62706 -0.68396,1.28503 -1.4923,2.49234 -0.80832,1.21249 -1.73064,2.33172 -0.92233,1.12958 -1.94828,2.15554 -1.03113,1.03113 -2.15554,1.95345 -1.1244,0.92232 -2.33171,1.73064 -1.2073,0.80834 -2.49233,1.4923 -1.28504,0.68398 -2.62707,1.24359 -1.34203,0.5596 -2.73588,0.97931 -1.39384,0.41971 -2.81878,0.7047 -1.42493,0.28498 -2.87577,0.42489 -1.45085,0.14508 -2.90169,0.14508 -1.45085,0 -2.90168,-0.14508 -1.45085,-0.14508 -2.87578,-0.42489 -1.42494,-0.27981 -2.81879,-0.7047 -1.38866,-0.42489 -2.73587,-0.9845 -1.34203,-0.55442 -2.62706,-1.2384 -1.279844,-0.68396 -2.487156,-1.4923 -1.212487,-0.80832 -2.336891,-1.73064 -1.124404,-0.92232 -2.150362,-1.95345 -1.025947,-1.03114 -1.953449,-2.15036 -0.927513,-1.11922 -1.730658,-2.33172 -0.803146,-1.21249 -1.492287,-2.49752 -0.689151,-1.27985 -1.243584,-2.62706 -0.559609,-1.34721 -0.984499,-2.73587 -0.414528,-1.38867 -0.699513,-2.81878 -0.284986,-1.42494 -0.430077,-2.8706 -0.139894,-1.45084 -0.139894,-2.90169 0,-1.45602 0.139894,-2.90168 0.145091,-1.45084 0.430077,-2.87578 0.279799,-1.43011 0.704689,-2.81878 0.419714,-1.39385 0.979323,-2.73588 0.554433,-1.34721 1.243584,-2.62706 0.683965,-1.28504 1.492287,-2.49234 0.808332,-1.21249 1.730658,-2.33171 0.922315,-1.12959 1.953449,-2.15554 1.025958,-1.03113 2.150362,-1.95346 1.124404,-0.92231 2.331705,-1.73065 1.212498,-0.80832 2.492342,-1.49229 1.28503,-0.68397 2.62706,-1.24358 1.34721,-0.55443 2.73587,-0.97932 1.39385,-0.4197 2.81879,-0.70469 1.43011,-0.285 2.87578,-0.42489 1.45083,-0.14509 2.90168,-0.14509 1.45084,0 2.90169,0.14509 1.45084,0.14508 2.87577,0.42489 1.42494,0.2798 2.81878,0.70469 1.39385,0.42489 2.73588,0.9845 1.34721,0.55443 2.62707,1.2384 1.27984,0.68397 2.48715,1.49229 1.2073,0.80834 2.33689,1.73065 1.12958,0.92233 2.15554,1.95346 1.02595,1.02595 1.94828,2.15035 0.92232,1.12441 1.73064,2.33172 0.80834,1.21248 1.49749,2.49752 0.68914,1.28503 1.24357,2.62706 0.55443,1.34203 0.97414,2.73588 0.41971,1.39384 0.70987,2.81878 0.29017,1.42494 0.42489,2.8706 0.13991,1.45084 0.13991,2.90168"
     id="path3"
     style="stroke-width:5.18158" />
</svg>
