<?xml version="1.0" encoding="UTF-8" standalone="no"?>
<svg
   width="200"
   height="200"
   version="1.1"
   id="svg4"
   sodipodi:docname="lightning.svg"
   inkscape:version="1.4 (86a8ad7, 2024-10-11)"
   xmlns:inkscape="http://www.inkscape.org/namespaces/inkscape"
   xmlns:sodipodi="http://sodipodi.sourceforge.net/DTD/sodipodi-0.dtd"
   xmlns="http://www.w3.org/2000/svg"
   xmlns:svg="http://www.w3.org/2000/svg">
  <defs
     id="defs4" />
  <sodipodi:namedview
     id="namedview4"
     pagecolor="#ffffff"
     bordercolor="#000000"
     borderopacity="0.25"
     inkscape:showpageshadow="2"
     inkscape:pageopacity="0.0"
     inkscape:pagecheckerboard="0"
     inkscape:deskcolor="#d1d1d1"
     inkscape:zoom="3.5772727"
     inkscape:cx="77.433291"
     inkscape:cy="110.83863"
     inkscape:window-width="1920"
     inkscape:window-height="1001"
     inkscape:window-x="-9"
     inkscape:window-y="-9"
     inkscape:window-maximized="1"
     inkscape:current-layer="svg4" />
  <path
     fill="#29f2e5"
     d="m 141.99216,100.411 38.26506,26.21668 -46.36462,-1.28263 15.54593,43.69248 -36.7568,-28.28907 L 99.576364,185.24259 86.470987,140.74846 49.714199,169.03753 65.260124,125.34505 18.8955,126.62768 57.160566,100.411 18.8955,74.200269 65.260124,75.482893 49.714199,31.778534 86.470987,60.073543 99.576364,15.57348 112.68173,60.067605 149.43853,31.778534 133.8926,75.476953 180.25722,74.194329 Z"
     id="path1"
     style="stroke-width:5.93809" />
  <path
     fill="#21c4b9"
     d="m 144.39114,96.91347 50.13531,34.35186 -60.75262,-1.68048 0.11877,-4.2398 3.99633,-1.42514 20.36766,57.26102 -48.15793,-37.07151 2.58307,-3.36096 4.0676,1.1995 -17.172966,58.30019 -17.172964,-58.30019 4.067587,-1.1995 2.583068,3.36096 -48.157924,37.07151 20.367657,-57.26102 3.996336,1.42514 0.118761,4.2398 -60.7526209,1.68048 50.1353119,-34.35186 2.39899,3.50347 -2.39899,3.4916 L 4.6262641,69.556676 65.378885,71.243099 65.260124,75.482893 61.263788,76.908034 40.896131,19.641074 89.054055,56.712583 86.470987,60.073543 82.4034,58.874048 99.576364,0.57386024 116.74933,58.874048 l -4.0676,1.199495 -2.58307,-3.36096 48.15793,-37.071509 -20.36766,57.26102 -3.99633,-1.425141 -0.11877,-4.233854 60.75262,-1.686423 -50.13531,34.351864 -2.39898,-3.49754 z m -9.90473,3.50347 43.37182,-29.72015 2.39899,3.503479 0.11876,4.239794 -52.55212,1.44889 17.61833,-49.523685 3.99634,1.419204 2.589,3.36096 -41.66165,32.065697 -14.857114,-50.432215 4.067598,-1.199495 4.067586,1.199495 -14.85711,50.432215 -41.66165,-32.065697 2.589009,-3.36096 3.996335,-1.425142 17.62426,49.529623 -52.552118,-1.44889 0.118763,-4.239794 2.39305,-3.503479 43.371825,29.71421 -43.371825,29.71422 -2.398989,-3.50348 -0.118762,-4.23386 52.552116,-1.45483 -17.61832,49.52369 -3.996335,-1.41921 -2.589009,-3.36095 41.66165,-32.0657 14.85711,50.43221 -4.067586,1.1995 -4.067598,-1.1995 14.857114,-50.43221 41.66165,32.0657 -2.589,3.36095 -3.99634,1.42515 -17.62427,-49.52963 52.55212,1.45483 -0.11876,4.2398 -2.39305,3.49754 -38.26506,-26.21668 z"
     id="path2"
     style="stroke-width:5.93809" />
</svg>
