<?xml version="1.0" encoding="UTF-8" standalone="no"?>
<svg
   width="200"
   height="200"
   version="1.1"
   id="svg4"
   sodipodi:docname="rock.svg"
   inkscape:version="1.4 (86a8ad7, 2024-10-11)"
   xmlns:inkscape="http://www.inkscape.org/namespaces/inkscape"
   xmlns:sodipodi="http://sodipodi.sourceforge.net/DTD/sodipodi-0.dtd"
   xmlns="http://www.w3.org/2000/svg"
   xmlns:svg="http://www.w3.org/2000/svg">
  <defs
     id="defs4" />
  <sodipodi:namedview
     id="namedview4"
     pagecolor="#ffffff"
     bordercolor="#000000"
     borderopacity="0.25"
     inkscape:showpageshadow="2"
     inkscape:pageopacity="0.0"
     inkscape:pagecheckerboard="0"
     inkscape:deskcolor="#d1d1d1"
     inkscape:zoom="3.5772727"
     inkscape:cx="117.68742"
     inkscape:cy="106.64549"
     inkscape:window-width="1920"
     inkscape:window-height="1001"
     inkscape:window-x="-9"
     inkscape:window-y="-9"
     inkscape:window-maximized="1"
     inkscape:current-layer="svg4" />
  <path
     fill="#777777"
     d="M 181.96132,105.24138 125.46614,189.53129 22.276177,159.15298 21.256099,51.877947 130.20426,10.645816 Z"
     id="path1"
     style="stroke-width:4.76672" />
  <path
     fill="#606060"
     d="m 190.44607,110.92807 -56.49517,84.28515 q -0.45283,0.67687 -1.001,1.26794 -0.55295,0.59584 -1.19168,1.09635 -0.63874,0.49575 -1.34899,0.88661 -0.71024,0.39564 -1.47292,0.66734 -0.76267,0.2717 -1.55394,0.42901 -0.79128,0.1573 -1.60639,0.17636 -0.81511,0.0191 -1.61592,-0.0762 -0.80081,-0.10486 -1.57778,-0.33367 L 19.397078,168.95336 q -0.786509,-0.23357 -1.520584,-0.58154 -0.734075,-0.35273 -1.406183,-0.81988 -0.672108,-0.46714 -1.258414,-1.02485 -0.586307,-0.55769 -1.082045,-1.21551 -0.495739,-0.6578 -0.87231,-1.37281 -0.376571,-0.71501 -0.648274,-1.49198 -0.271703,-0.77698 -0.400405,-1.57302 -0.133468,-0.81035 -0.143002,-1.62068 L 11.045784,51.973282 q -0.0048,-0.781742 0.104867,-1.549184 0.109635,-0.772209 0.333671,-1.520584 0.228802,-0.743608 0.56724,-1.444316 0.33367,-0.705475 0.776975,-1.348982 0.438538,-0.643508 0.97241,-1.210747 0.533874,-0.572007 1.144013,-1.048679 0.614907,-0.486205 1.291782,-0.867542 0.676874,-0.381338 1.406182,-0.657808 L 126.59585,1.0933081 q 0.85801,-0.32413698 1.75892,-0.49097252 0.90091,-0.16683451 1.81612,-0.17160106 0.91521,-0.004777 1.8209,0.1573014 0.90567,0.16206796 1.76368,0.47667178 0.858,0.3146039 1.64452,0.7865092 0.78651,0.4719052 1.48721,1.0629784 0.70072,0.5910732 1.26796,1.3108485 0.56723,0.7197743 1.0153,1.5205831 l 51.75229,94.5955631 q 0.33366,0.61014 0.58154,1.26319 0.25263,0.65303 0.40993,1.33467 0.15731,0.67687 0.21927,1.36805 0.062,0.69594 0.0333,1.39187 -0.0333,0.70072 -0.1573,1.38236 -0.12871,0.69118 -0.3432,1.35375 -0.21927,0.66257 -0.52434,1.28701 -0.30507,0.62921 -0.69595,1.20598 m -16.96952,-11.373381 8.48477,5.686691 -8.96144,4.90495 -51.75229,-94.600325 8.96143,-4.900189 3.61795,9.552508 -108.952932,41.232131 -3.613174,-9.552508 10.215082,-0.09533 1.015311,107.275033 -10.210314,0.0953 2.883865,-9.80038 103.185202,30.37831 -2.88387,9.79562 -8.48477,-5.68671 z"
     id="path2"
     style="stroke-width:4.76672" />
</svg>
