<?xml version="1.0" encoding="UTF-8" standalone="no"?>
<svg
   width="200"
   height="200"
   version="1.1"
   id="svg3"
   sodipodi:docname="disc.svg"
   inkscape:version="1.4 (86a8ad7, 2024-10-11)"
   xmlns:inkscape="http://www.inkscape.org/namespaces/inkscape"
   xmlns:sodipodi="http://sodipodi.sourceforge.net/DTD/sodipodi-0.dtd"
   xmlns="http://www.w3.org/2000/svg"
   xmlns:svg="http://www.w3.org/2000/svg">
  <defs
     id="defs3" />
  <sodipodi:namedview
     id="namedview3"
     pagecolor="#ffffff"
     bordercolor="#000000"
     borderopacity="0.25"
     inkscape:showpageshadow="2"
     inkscape:pageopacity="0.0"
     inkscape:pagecheckerboard="0"
     inkscape:deskcolor="#d1d1d1"
     inkscape:zoom="2.5295138"
     inkscape:cx="41.905286"
     inkscape:cy="68.590256"
     inkscape:window-width="1920"
     inkscape:window-height="1001"
     inkscape:window-x="-9"
     inkscape:window-y="-9"
     inkscape:window-maximized="1"
     inkscape:current-layer="svg3" />
  <path
     fill="#111111"
     d="m 199.77625,99.25015 q 0,2.44736 -0.12097,4.89473 -0.12098,2.44272 -0.36293,4.87613 -0.23729,2.43806 -0.59555,4.85752 -0.35826,2.41945 -0.83751,4.82495 -0.47923,2.40085 -1.07014,4.77377 -0.59556,2.37292 -1.30744,4.71328 -0.71187,2.34501 -1.53541,4.6528 -0.82355,2.29848 -1.76341,4.55974 -0.93056,2.26126 -1.9821,4.47599 -1.05153,2.21473 -2.20077,4.37363 -1.15389,2.15425 -2.41014,4.25731 -1.25626,2.09376 -2.61954,4.13168 -1.36326,2.03793 -2.81493,4.0014 -1.46099,1.96814 -3.01036,3.86182 -1.55404,1.88904 -3.19647,3.70363 -1.64244,1.8146 -3.37794,3.54078 -1.73549,1.72619 -3.54077,3.37793 -1.80529,1.65174 -3.70829,3.19647 -1.90298,1.54473 -3.85716,3.01036 -1.95418,1.46563 -4.00141,2.81495 -2.03326,1.36326 -4.13633,2.61952 -2.09376,1.25625 -4.25731,2.41015 -2.1589,1.15389 -4.37363,2.20077 -2.21473,1.04688 -4.46669,1.98675 -2.26591,0.93056 -4.56904,1.75875 -2.30314,0.82355 -4.64815,1.53543 -2.34035,0.71187 -4.71327,1.30277 -2.37294,0.59092 -4.77843,1.07015 -2.39619,0.48389 -4.8203,0.83751 -2.41945,0.36291 -4.85752,0.60485 -2.43341,0.2373 -4.88078,0.35827 -2.44738,0.12098 -4.89009,0.12098 -2.442718,0 -4.890092,-0.12098 -2.447374,-0.12097 -4.885432,-0.35827 -2.438068,-0.23729 -4.852869,-0.60485 -2.414801,-0.36757 -4.820297,-0.83751 -2.405496,-0.46993 -4.778419,-1.07015 -2.372934,-0.6002 -4.713285,-1.30277 -2.345012,-0.71188 -4.6528,-1.53543 -2.298481,-0.82355 -4.55974,-1.75875 -2.261259,-0.93987 -4.475991,-1.98675 -2.210078,-1.04688 -4.373628,-2.20077 -2.154245,-1.1539 -4.252656,-2.41015 -2.103064,-1.25626 -4.14099,-2.61952 -2.028618,-1.35862 -3.996752,-2.81495 -1.963479,-1.46097 -3.861821,-3.01036 -1.889035,-1.55403 -3.703626,-3.19647 -1.814591,-1.64244 -3.540778,-3.37793 -1.726187,-1.73549 -3.377931,-3.54078 -1.651742,-1.80528 -3.19647,-3.70827 -1.544729,-1.903 -3.01036,-3.85718 -1.465631,-1.95417 -2.814942,-4.0014 -1.349311,-2.04723 -2.619524,-4.13168 -1.256255,-2.10306 -2.410149,-4.26196 -1.153894,-2.15425 -2.2007724,-4.36898 -1.0468799,-2.21473 -1.9820917,-4.47599 -0.9352119,-2.26126 -1.7634094,-4.55974 -0.8281985,-2.29848 -1.535423,-4.6528 -0.7072255,-2.35431 -1.3027831,-4.71328 -0.5955576,-2.37292 -1.0701434,-4.77377 -0.4745857,-2.40084 -0.8421559,-4.8296 -0.3675713,-2.42876 -0.60486356,-4.85752 -0.23729233,-2.42876 -0.35826527,-4.87613 -0.12097293,-2.44737 -0.12097293,-4.89474 0,-2.447374 0.12097293,-4.89009 0.12097294,-2.442716 0.36291775,-4.885431 0.24194578,-2.442727 0.59555858,-4.85287 0.3536118,-2.410154 0.8375024,-4.820297 0.4838918,-2.410151 1.0701433,-4.778424 0.5862527,-2.368274 1.3074367,-4.713284 0.7211831,-2.345009 1.535422,-4.648143 0.81424,-2.303134 1.7634104,-4.564394 0.9491704,-2.261259 1.9820917,-4.47599 1.0329199,-2.214732 2.2007719,-4.373629 1.153894,-2.154244 2.410148,-4.252656 1.256255,-2.103064 2.619525,-4.136336 1.36327,-2.033272 2.814942,-4.001406 1.460978,-1.963479 3.010359,-3.857168 1.554034,-1.893688 3.196472,-3.703625 1.642437,-1.809939 3.377931,-3.545432 1.735492,-1.735492 3.540778,-3.373277 1.81459,-1.64709 3.708278,-3.196472 1.893688,-1.549381 3.857169,-3.010359 1.96348,-1.460978 4.001404,-2.819594 2.037926,-1.358617 4.136337,-2.619525 2.093759,-1.256255 4.257309,-2.410149 2.158897,-1.153893 4.373628,-2.200773 2.214732,-1.046879 4.466685,-1.9820908 2.251954,-0.9352129 4.569046,-1.7634104 2.317093,-0.8281974 4.648143,-1.535423 2.331056,-0.7072245 4.713284,-1.3027832 2.382228,-0.5955575 4.778419,-1.0701433 2.396191,-0.4792372 4.820297,-0.8375024 2.419459,-0.3629188 4.857527,-0.6048636 2.433411,-0.2326399 4.880785,-0.3582664 2.442716,-0.1163193 4.890089,-0.1163193 2.44736,0 4.89008,0.1163193 2.44738,0.120973 4.88544,0.3629189 2.43342,0.2372923 4.85287,0.6002111 2.41945,0.3582652 4.8203,0.8375024 2.40084,0.4745858 4.77842,1.0701433 2.37758,0.5955587 4.71328,1.3027832 2.33571,0.7072256 4.6528,1.535423 2.29849,0.823545 4.55974,1.7634104 2.26126,0.9352118 4.47599,1.9820908 2.21008,1.04688 4.37363,2.200773 2.15425,1.153894 4.25266,2.410149 2.10306,1.256255 4.14098,2.619525 2.02862,1.358616 3.99675,2.819594 1.96349,1.456325 3.86182,3.010359 1.88904,1.549382 3.70363,3.196472 1.8146,1.642437 3.54078,3.373277 1.73085,1.730841 3.37793,3.545432 1.64244,1.81459 3.19647,3.703625 1.54939,1.893689 3.01036,3.861822 1.45633,1.96348 2.81495,3.996752 1.35862,2.033272 2.61952,4.136336 1.26091,2.103064 2.41015,4.257309 1.14924,2.154244 2.20077,4.373629 1.05153,2.219384 1.98209,4.466685 0.93056,2.2473 1.76341,4.569046 0.83285,2.321745 1.53543,4.648143 0.70257,2.326399 1.30278,4.713284 0.60021,2.386884 1.07014,4.778424 0.46994,2.391533 0.83751,4.820297 0.36291,2.419448 0.60485,4.857517 0.2373,2.433411 0.35827,4.880784 0.12098,2.447374 0.12098,4.89009 m 0,0 h -19.94189 q 0,-1.95418 -0.0931,-3.913006 -0.0977,-1.954168 -0.29312,-3.908347 -0.19077,-1.944863 -0.47924,-3.880433 -0.28382,-1.940216 -0.67,-3.861822 -0.38153,-1.916949 -0.85612,-3.815287 -0.47458,-1.89835 -1.04222,-3.773422 -0.56764,-1.875077 -1.22834,-3.722237 -0.6607,-1.837854 -1.4098,-3.647793 -0.7491,-1.809937 -1.58661,-3.582652 -0.83749,-1.772716 -1.75875,-3.494251 -0.9259,-1.726187 -1.93091,-3.405848 -1.005,-1.679659 -2.09375,-3.303484 -1.08876,-1.623827 -2.25661,-3.205778 -1.16785,-1.581951 -2.4055,-3.084803 -1.23764,-1.502854 -2.55904,-2.963832 -1.32139,-1.460978 -2.69862,-2.838206 -1.37723,-1.377228 -2.83821,-2.698622 -1.46098,-1.321394 -2.96383,-2.559038 -1.50285,-1.237644 -3.08481,-2.405496 -1.58195,-1.167852 -3.20111,-2.256607 -1.61918,-1.088754 -3.30349,-2.093758 -1.68431,-1.005004 -3.4105,-1.93091 -1.72619,-0.925906 -3.49425,-1.758757 -1.76806,-0.837504 -3.58266,-1.581951 -1.80993,-0.753753 -3.65244,-1.41445 -1.84251,-0.656044 -3.71758,-1.228339 -1.87042,-0.567641 -3.76877,-1.042226 -1.89834,-0.474586 -3.8246,-0.856114 -1.92626,-0.38153 -3.85717,-0.670003 -1.93091,-0.288474 -3.88508,-0.479238 -1.95418,-0.190766 -3.9037,-0.288474 -1.95417,-0.09306 -3.913,-0.09306 -1.954178,0 -3.913004,0.09306 -1.954179,0.09306 -3.908348,0.288474 -1.944874,0.190764 -3.880432,0.479238 -1.940216,0.288473 -3.861823,0.670003 -1.916959,0.381528 -3.815298,0.856114 -1.902996,0.474585 -3.77342,1.042226 -1.870424,0.567641 -3.722237,1.228339 -1.837851,0.660697 -3.647788,1.409797 -1.814591,0.7491 -3.582653,1.586604 -1.768063,0.837503 -3.494251,1.758757 -1.726187,0.925906 -3.405846,1.93091 -1.67966,1.009658 -3.308139,2.093758 -1.628479,1.088755 -3.201124,2.256607 -1.572646,1.1632 -3.084804,2.410149 -1.516812,1.237644 -2.963832,2.559038 -1.451672,1.312088 -2.838206,2.698621 -1.381881,1.381881 -2.698621,2.833554 -1.316742,1.44702 -2.559039,2.963832 -1.242296,1.512158 -2.405495,3.084803 -1.1632,1.572646 -2.256607,3.201124 -1.093407,1.628479 -2.093758,3.303486 -1.000352,1.675007 -1.930911,3.4105 -0.930559,1.735493 -1.758757,3.498903 -0.828198,1.76341 -1.586604,3.578 -0.758406,1.814591 -1.409797,3.652446 -0.651392,1.837855 -1.228339,3.717584 -0.576946,1.87973 -1.042226,3.768764 -0.46528,1.889034 -0.856114,3.824603 -0.390835,1.935558 -0.670003,3.857164 -0.279168,1.921607 -0.479238,3.885091 -0.20007,1.963473 -0.288474,3.903689 -0.0884,1.940217 -0.09306,3.913006 -0.0047,1.97279 0.09306,3.913 0.09306,1.95417 0.288474,3.90835 0.190764,1.94486 0.479238,3.88043 0.28382,1.94022 0.670003,3.86182 0.381529,1.91695 0.856114,3.81529 0.474586,1.903 1.042226,3.77342 0.567642,1.87042 1.228339,3.72224 0.660697,1.84251 1.409797,3.6478 0.7491,1.81458 1.586604,3.58265 0.837503,1.76806 1.758757,3.49425 0.925906,1.72618 1.930911,3.40585 1.005004,1.67965 2.093758,3.30813 1.088755,1.62848 2.256607,3.20112 1.167851,1.57265 2.405495,3.0848 1.237645,1.51217 2.559039,2.96849 1.321394,1.45632 2.698621,2.83355 1.377228,1.37723 2.838206,2.69863 1.460978,1.32139 2.963832,2.55904 1.502853,1.23764 3.084804,2.40549 1.58195,1.16785 3.201124,2.25661 1.619173,1.08875 3.303485,2.09376 1.684313,1.005 3.4105,1.9309 1.726188,0.92591 3.494251,1.75877 1.768062,0.8375 3.582653,1.58659 1.809937,0.74911 3.652445,1.4098 1.842509,0.6607 3.71758,1.22834 1.875082,0.56765 3.768773,1.04223 1.893681,0.47459 3.824592,0.86077 1.930912,0.38618 3.857176,0.66535 1.926253,0.27916 3.885079,0.47923 1.958827,0.20008 3.903701,0.28848 1.944863,0.0884 3.917654,0.10238 1.95418,0 3.913,-0.093 1.95417,-0.093 3.90835,-0.28848 1.94487,-0.18611 3.88044,-0.47923 1.94021,-0.28383 3.86182,-0.66535 1.91695,-0.38154 3.81529,-0.86077 1.90299,-0.47459 3.77342,-1.04223 1.87042,-0.56764 3.72223,-1.22834 1.83785,-0.66069 3.6478,-1.40979 1.81459,-0.74911 3.58265,-1.58196 1.76806,-0.83285 3.49425,-1.76806 1.72619,-0.92125 3.40585,-1.92625 1.67966,-1.00501 3.30813,-2.09377 1.62849,-1.08875 3.20113,-2.2566 1.57264,-1.1632 3.0848,-2.4055 1.51681,-1.24229 2.96384,-2.55903 1.45167,-1.31674 2.8382,-2.69863 1.38189,-1.38653 2.69863,-2.8382 1.31674,-1.44702 2.55903,-2.96384 1.2423,-1.51215 2.4055,-3.0848 1.1632,-1.57264 2.2566,-3.20113 1.09342,-1.62847 2.09377,-3.30348 1.00035,-1.67501 1.93091,-3.41049 0.93055,-1.7355 1.75875,-3.49425 0.8282,-1.75877 1.58661,-3.58266 0.7584,-1.8239 1.40979,-3.65244 0.65139,-1.82856 1.22834,-3.71759 0.57695,-1.88904 1.04223,-3.76877 0.46528,-1.87972 0.85611,-3.8246 0.39084,-1.94486 0.67001,-3.85716 0.27916,-1.9123 0.47923,-3.88509 0.20007,-1.97278 0.28847,-3.90369 0.0884,-1.93091 0.0931,-3.90835 z"
     id="path1"
     style="stroke-width:4.6528" />
</svg>
