<?xml version="1.0" encoding="UTF-8" standalone="no"?>
<svg
   width="200"
   height="200"
   version="1.1"
   id="svg7"
   sodipodi:docname="starfish.svg"
   inkscape:version="1.4 (86a8ad7, 2024-10-11)"
   xmlns:inkscape="http://www.inkscape.org/namespaces/inkscape"
   xmlns:sodipodi="http://sodipodi.sourceforge.net/DTD/sodipodi-0.dtd"
   xmlns="http://www.w3.org/2000/svg"
   xmlns:svg="http://www.w3.org/2000/svg">
  <defs
     id="defs7" />
  <sodipodi:namedview
     id="namedview7"
     pagecolor="#ffffff"
     bordercolor="#000000"
     borderopacity="0.25"
     inkscape:showpageshadow="2"
     inkscape:pageopacity="0.0"
     inkscape:pagecheckerboard="0"
     inkscape:deskcolor="#d1d1d1"
     inkscape:zoom="2.5295138"
     inkscape:cx="58.509268"
     inkscape:cy="91.519564"
     inkscape:window-width="1920"
     inkscape:window-height="1001"
     inkscape:window-x="-9"
     inkscape:window-y="-9"
     inkscape:window-maximized="1"
     inkscape:current-layer="svg7" />
  <path
     fill="#a9403e"
     d="m 46.092798,145.13877 q 191.196312,-249.4629 43.923771,28.2033 z"
     id="path1"
     style="stroke-width:3.65422" />
  <path
     fill="#a9403e"
     d="m 25.373349,129.25751 q 48.455009,-63.214412 75.814181,-93.427536 14.6973,-16.228408 24.32618,-23.986326 22.68542,-18.2784278 41.25984,-6.3510405 18.57442,11.9273875 11.39753,40.1599215 -3.04762,11.985854 -11.68987,32.102357 -16.08589,37.455794 -53.40283,107.817874 -0.29964,0.5664 -0.62853,1.11454 -0.32887,0.55178 -0.68333,1.0853 -0.35446,0.53352 -0.73085,1.05242 -0.3837,0.51159 -0.78566,1.01222 -0.40562,0.49332 -0.83316,0.97202 -0.4312,0.47505 -0.88066,0.92817 -0.45313,0.45679 -0.92818,0.88798 -0.47505,0.4312 -0.96472,0.84048 -0.48967,0.40927 -1.00856,0.78931 -0.51891,0.38003 -1.04511,0.7418 -0.52621,0.36177 -1.08165,0.69066 -0.55544,0.32887 -1.11089,0.63583 -0.55544,0.30695 -1.14377,0.57737 -0.57737,0.27772 -1.16936,0.52255 -0.591982,0.24848 -1.191266,0.46774 -0.602948,0.21926 -1.216856,0.40197 -0.613919,0.19002 -1.235134,0.34714 -0.621216,0.15714 -1.246085,0.28504 -0.624879,0.12789 -1.264363,0.22291 -0.639494,0.095 -1.268017,0.16078 -0.628528,0.0657 -1.278979,0.0986 -0.63949,0.0365 -1.278979,0.0365 -0.643143,0 -1.278978,-0.0292 -0.643144,-0.0292 -1.278979,-0.0877 -0.639488,-0.0621 -1.275324,-0.15349 -0.63218,-0.0914 -1.260707,-0.21559 -0.628527,-0.12425 -1.253399,-0.27773 -0.624872,-0.15348 -1.235127,-0.33619 -0.610256,-0.18271 -1.216857,-0.3983 -0.606601,-0.21561 -1.198586,-0.45679 -0.591984,-0.24117 -1.169351,-0.51524 -0.584676,-0.27407 -1.147427,-0.57372 -0.96106,-0.50793 -1.874617,-1.09626 L 31.991148,167.10066 q -0.540825,-0.34715 -1.063379,-0.71989 -0.522554,-0.37273 -1.023183,-0.76738 -0.500629,-0.39466 -0.986641,-0.81855 -0.486011,-0.42389 -0.942789,-0.86605 -0.456778,-0.44215 -0.898939,-0.91355 -0.442161,-0.4714 -0.855088,-0.95376 -0.412927,-0.48235 -0.807585,-0.9976 -0.394656,-0.51525 -0.756423,-1.03414 -0.361769,-0.5189 -0.705266,-1.06704 -0.343497,-0.54813 -0.650452,-1.10357 -0.306954,-0.55544 -0.599293,-1.13281 -0.292337,-0.57737 -0.540825,-1.16205 -0.255795,-0.58468 -0.482357,-1.18762 -0.226562,-0.59929 -0.42389,-1.20589 -0.197328,-0.61392 -0.365422,-1.23148 -0.164441,-0.62121 -0.299647,-1.24243 -0.13886,-0.62853 -0.244832,-1.26071 -0.105973,-0.63218 -0.179058,-1.26802 -0.07308,-0.63583 -0.116935,-1.27532 -0.04385,-0.63948 -0.05481,-1.27898 -0.01096,-0.63949 0.0073,-1.27897 0.01827,-0.6395 0.07308,-1.27898 0.05116,-0.64315 0.131552,-1.27898 0.08404,-0.63219 0.197328,-1.26436 0.109626,-0.63219 0.255796,-1.2534 0.146169,-0.62122 0.321572,-1.24244 0.175403,-0.62122 0.376385,-1.22416 0.200982,-0.60295 0.438507,-1.20589 0.237524,-0.59199 0.500629,-1.17667 0.263103,-0.58467 0.555441,-1.15473 0.292338,-0.57006 0.610256,-1.1255 0.317917,-0.55545 0.665068,-1.09627 0.584676,-0.91356 1.246091,-1.77596 m 41.435208,31.75521 -20.71945,-15.8776 14.105304,-21.96189 43.923769,28.2033 -14.097993,21.96554 -23.058153,-12.23069 Q 103.2741,92.642199 118.51221,57.152371 q 7.02342,-16.352652 9.06248,-24.366365 l 0.42023,-1.059726 q 0.19003,11.028449 10.57168,17.693753 10.38165,6.665305 20.48558,2.251002 l -0.78566,0.822201 q -6.43875,5.188997 -18.38806,18.380746 -25.92672,28.62354 -73.073521,90.142398"
     id="path2"
     style="stroke-width:3.65422" />
  <path
     fill="#d14f4d"
     d="m 46.092798,145.13877 q 191.196312,-249.4629 43.923771,28.2033 z"
     id="path3"
     style="stroke-width:3.65422" />
  <path
     fill="#d14f4d"
     d="M 35.733073,137.19814 Q 83.859202,74.407617 110.86392,44.589149 144.9286,6.9762228 159.7209,16.473551 q 14.79595,9.500981 -5.2292,56.128879 -15.87394,36.96613 -52.9424,106.85316 -0.29965,0.5664 -0.65776,1.10357 -0.35446,0.53352 -0.75643,1.0305 -0.405617,0.49697 -0.858736,0.9501 -0.453129,0.45677 -0.946448,0.86239 -0.493319,0.40928 -1.023184,0.76739 -0.529855,0.35812 -1.096266,0.66142 -0.566402,0.3033 -1.158388,0.55179 -0.591977,0.24848 -1.205896,0.4385 -0.610254,0.18271 -1.242431,0.31426 -0.624873,0.12424 -1.264362,0.19002 -0.639489,0.0657 -1.278978,0.0657 -0.63949,0.004 -1.278979,-0.0585 -0.639489,-0.0585 -1.268015,-0.18271 -0.628527,-0.12424 -1.242437,-0.30695 -0.613909,-0.18271 -1.205894,-0.42754 -0.595638,-0.24484 -1.162043,-0.54448 -0.478704,-0.2558 -0.935481,-0.54814 l -43.927426,-28.2032 q -0.540825,-0.34715 -1.041453,-0.74545 -0.504284,-0.39832 -0.964716,-0.84048 -0.464086,-0.44581 -0.877014,-0.93547 -0.416581,-0.48602 -0.782004,-1.01588 -0.365422,-0.52621 -0.679685,-1.08531 -0.314264,-0.55909 -0.566406,-1.14742 -0.25214,-0.58834 -0.456777,-1.19859 -0.204637,-0.61026 -0.32888,-1.23513 -0.124244,-0.62486 -0.2156,-1.26436 -0.09135,-0.63948 -0.08404,-1.27898 0.0073,-0.63949 0.03655,-1.27897 0.05481,-0.6395 0.168094,-1.26802 0.109627,-0.63218 0.288684,-1.24975 0.171748,-0.61756 0.409273,-1.2132 0.23387,-0.59563 0.526208,-1.16935 0.292338,-0.57005 0.635835,-1.10723 0.292338,-0.45678 0.624873,-0.88798 m 20.719449,15.87761 -10.359725,-7.94063 7.052653,-10.98094 43.923779,28.20695 -7.05266,10.98094 -11.529077,-6.11352 Q 115.05533,98.28432 130.50904,62.304826 q 7.42538,-17.295441 9.71658,-26.303103 0.84047,-3.303418 0.82221,-4.498349 0.0694,4.041571 4.57143,6.935716 4.50565,2.890492 8.21103,1.27167 -1.09626,0.478704 -3.74922,2.620079 -7.23537,5.832142 -19.87168,19.780314 -26.28483,29.025503 -73.760514,90.964597"
     id="path4"
     style="stroke-width:3.65422" />
  <path
     fill="#d4766c"
     d="m 144.20872,40.635278 q 0.4312,0.277722 0.83682,0.59564 0.40196,0.317917 0.76738,0.672377 0.37273,0.358114 0.70527,0.749116 0.32887,0.387347 0.62121,0.811237 0.296,0.420236 0.54814,0.869705 0.25214,0.44947 0.45312,0.913557 0.20464,0.475048 0.36543,0.96106 0.15347,0.489666 0.2631,0.986641 0.10963,0.504283 0.16809,1.01222 0.0621,0.511591 0.0731,1.023183 0.011,0.511591 -0.0365,1.023182 -0.0475,0.511592 -0.1279,1.015875 -0.0804,0.504283 -0.23387,1.001257 -0.15347,0.496975 -0.32887,0.96837 -0.18272,0.475049 -0.41659,0.935481 -0.23387,0.456777 -0.51158,0.887976 -0.27773,0.431198 -0.59564,0.833164 -0.31792,0.401964 -0.67603,0.771041 -0.35812,0.369076 -0.74547,0.70161 -0.38735,0.332534 -0.81124,0.624872 -0.42389,0.292339 -0.8697,0.54448 -0.44582,0.252142 -0.91721,0.453124 -0.47139,0.200982 -0.95741,0.365422 -0.48601,0.16444 -0.98664,0.266758 -0.50428,0.109627 -1.01222,0.168095 -0.51159,0.05847 -1.02318,0.06943 -0.51159,0.01096 -1.02319,-0.03288 -0.51158,-0.03655 -1.01953,-0.131552 -0.50428,-0.09135 -0.99759,-0.230216 -0.49332,-0.138861 -0.96837,-0.32888 -0.47505,-0.190019 -0.93549,-0.420236 -0.46043,-0.230216 -0.88797,-0.511592 -0.42754,-0.281374 -0.83317,-0.591983 -0.40197,-0.321572 -0.77469,-0.676032 -0.36543,-0.35446 -0.70161,-0.745462 -0.32889,-0.391002 -0.62123,-0.811237 -0.29233,-0.42389 -0.54813,-0.869706 -0.24849,-0.449469 -0.45312,-0.91721 -0.20463,-0.471395 -0.36177,-0.96106 -0.15713,-0.486013 -0.26675,-0.986641 -0.10963,-0.504283 -0.1681,-1.01222 -0.0585,-0.511591 -0.0695,-1.023183 -0.011,-0.511591 0.0329,-1.023182 0.0365,-0.511592 0.13155,-1.015875 0.095,-0.504283 0.23022,-0.997603 0.1352,-0.49332 0.32888,-0.972024 0.18271,-0.475049 0.42024,-0.931826 0.23386,-0.456779 0.51158,-0.891631 0.27407,-0.431199 0.59199,-0.833164 0.31792,-0.401964 0.67603,-0.767386 0.35812,-0.365423 0.74546,-0.705266 0.38735,-0.339843 0.81124,-0.624872 0.42389,-0.28503 0.86971,-0.544479 0.44581,-0.25945 0.9172,-0.453124 0.4714,-0.204637 0.95741,-0.365422 0.48967,-0.153478 0.9903,-0.263105 0.50062,-0.109627 1.01222,-0.171748 0.51159,-0.06212 1.02318,-0.06577 0.51159,-0.0036 1.02319,0.02923 0.51158,0.0402 1.01586,0.131552 0.50429,0.09135 0.99761,0.230216 0.49332,0.13886 0.97202,0.32888 0.47871,0.190019 0.93183,0.420235 0.45313,0.230217 0.88798,0.511591 m -16.92271,26.357918 q 0.64679,0.412927 1.25339,0.89163 0.60295,0.47505 1.15473,1.01222 0.55545,0.533517 1.05243,1.118194 0.50062,0.584675 0.93913,1.216856 0.43851,0.632181 0.8149,1.304557 0.37272,0.672378 0.67968,1.377644 0.31061,0.705265 0.54813,1.436109 0.23753,0.730845 0.39832,1.483615 0.16078,0.75277 0.25579,1.516503 0.095,0.763733 0.10226,1.534774 0.011,0.767388 -0.0475,1.534779 -0.0621,0.76738 -0.20099,1.52381 -0.1352,0.75642 -0.34349,1.498225 -0.21195,0.738162 -0.49332,1.454381 -0.28137,0.71623 -0.62853,1.403221 -0.34715,0.687001 -0.76738,1.330138 -0.42024,0.643147 -0.89163,1.253402 -0.4714,0.610255 -1.01223,1.158388 -0.53351,0.551787 -1.12184,1.052423 -0.58468,0.496973 -1.21685,0.935477 -0.63219,0.438505 -1.30457,0.814888 -0.67237,0.376393 -1.37399,0.683347 -0.7016,0.306954 -1.43975,0.54448 -0.73816,0.237525 -1.48363,0.401958 -0.74911,0.160789 -1.5165,0.25214 -0.76372,0.08767 -1.53477,0.102363 -0.76739,0.01459 -1.53477,-0.04751 -0.76739,-0.0621 -1.52382,-0.197325 -0.75642,-0.135204 -1.49823,-0.347154 -0.73815,-0.208286 -1.45438,-0.489665 -0.71623,-0.281369 -1.39956,-0.632177 -0.687,-0.350807 -1.3338,-0.76739 -0.6468,-0.416583 -1.24974,-0.891634 -0.60295,-0.475041 -1.15839,-1.012213 -0.55544,-0.533519 -1.05241,-1.118198 -0.50065,-0.584669 -0.93915,-1.216856 -0.4385,-0.632177 -0.81489,-1.304553 -0.37273,-0.672376 -0.67968,-1.377645 -0.30697,-0.705269 -0.54815,-1.436114 -0.24116,-0.730844 -0.3983,-1.48361 -0.15714,-0.752766 -0.25579,-1.516503 -0.0986,-0.763737 -0.0986,-1.534775 0,-0.771041 0.0475,-1.534774 0.0585,-0.767387 0.19732,-1.523811 0.13521,-0.760079 0.3435,-1.498231 0.21194,-0.741809 0.49332,-1.458036 0.28138,-0.716228 0.63218,-1.399567 0.35081,-0.683341 0.76739,-1.333792 0.41658,-0.650453 0.89163,-1.249745 0.47506,-0.602947 1.00857,-1.158389 0.53352,-0.551788 1.12185,-1.052417 0.58467,-0.496974 1.21686,-0.935481 0.63217,-0.438506 1.30455,-0.814892 0.67237,-0.376385 1.37764,-0.68334 0.70527,-0.306955 1.43612,-0.544479 0.73084,-0.237525 1.48361,-0.401965 0.75277,-0.160786 1.5165,-0.252141 0.76374,-0.0877 1.53478,-0.102322 0.76738,-0.01461 1.53477,0.04751 0.76739,0.06212 1.52381,0.197329 0.75642,0.135206 1.49824,0.347151 0.73815,0.20829 1.45438,0.489666 0.71622,0.281375 1.40322,0.632181 0.68699,0.350805 1.33014,0.767386 m -22.56482,35.138973 q 0.86605,0.55544 1.66998,1.19128 0.80393,0.63583 1.54209,1.35206 0.73815,0.70893 1.40322,1.49093 0.66507,0.782 1.24974,1.62247 0.58468,0.84047 1.0853,1.73941 0.50064,0.89894 0.91356,1.83442 0.41293,0.93549 0.72354,1.91847 0.3106,0.98299 0.53351,1.97328 0.21926,1.00491 0.3362,2.02444 0.12059,1.01953 0.13885,2.04637 0.0183,1.02317 -0.0621,2.04636 -0.0804,1.02318 -0.2631,2.03175 -0.18271,1.00856 -0.46409,1.99886 -0.28138,0.99029 -0.6541,1.93674 -0.37273,0.9574 -0.84048,1.87096 -0.46773,0.91356 -1.02318,1.77596 -0.55544,0.86239 -1.19127,1.66997 -0.63584,0.80759 -1.34475,1.54209 -0.70893,0.7345 -1.49459,1.40322 -0.78566,0.66872 -1.62248,1.24974 -0.83682,0.58102 -1.73941,1.0853 -0.90259,0.50429 -1.83442,0.91356 -0.94279,0.40562 -1.918462,0.72354 -0.975677,0.31427 -1.976939,0.53352 -1.004916,0.21925 -2.020783,0.33619 -1.023184,0.12059 -2.046368,0.13886 -1.023184,0.0183 -2.046366,-0.0621 -1.023182,-0.084 -2.031749,-0.2631 -1.01222,-0.18272 -1.998859,-0.46409 -0.986641,-0.27773 -1.940393,-0.65411 -0.953754,-0.37639 -1.867309,-0.84048 -0.913556,-0.46408 -1.779608,-1.02318 -0.862396,-0.55179 -1.666325,-1.19127 -0.80393,-0.63584 -1.542083,-1.34841 -0.738153,-0.70892 -1.403222,-1.49092 -0.665069,-0.78201 -1.253399,-1.62248 -0.58833,-0.84048 -1.085305,-1.73941 -0.496974,-0.89894 -0.909901,-1.83442 -0.409273,-0.94279 -0.723536,-1.91847 -0.314264,-0.97567 -0.533517,-1.97693 -0.219253,-1.00126 -0.339843,-2.02079 -0.116935,-1.02318 -0.135206,-2.04637 -0.02192,-1.02318 0.06212,-2.04636 0.08039,-1.02319 0.263103,-2.0354 0.182713,-1.00857 0.460433,-1.99521 0.281376,-0.98664 0.657761,-1.94039 0.37273,-0.95741 0.840471,-1.86731 0.46774,-0.91356 1.023183,-1.7796 0.551787,-0.86241 1.187623,-1.66634 0.635835,-0.80392 1.352062,-1.54207 0.716228,-0.73816 1.490924,-1.40322 0.778349,-0.66873 1.622475,-1.25341 0.840472,-0.58468 1.739411,-1.0853 0.898939,-0.50063 1.83442,-0.9099 0.935482,-0.40928 1.918468,-0.723539 0.982986,-0.314262 1.97328,-0.533519 1.004912,-0.219247 2.024441,-0.339837 1.019528,-0.116936 2.046361,-0.138868 1.023184,-0.01832 2.046368,0.06583 1.023184,0.08042 2.031753,0.263101 1.00856,0.182711 1.998861,0.460436 0.990295,0.277715 1.936735,0.657746 0.9574,0.37273 1.87096,0.84047 0.91355,0.46775 1.77596,1.02319"
     id="path5"
     style="stroke-width:3.65422" />
</svg>
