<?xml version="1.0" encoding="UTF-8" standalone="no"?>
<svg
   width="200"
   height="200"
   version="1.1"
   id="svg7"
   sodipodi:docname="starfish.svg"
   inkscape:version="1.3.2 (091e20e, 2023-11-25, custom)"
   xmlns:inkscape="http://www.inkscape.org/namespaces/inkscape"
   xmlns:sodipodi="http://sodipodi.sourceforge.net/DTD/sodipodi-0.dtd"
   xmlns="http://www.w3.org/2000/svg"
   xmlns:svg="http://www.w3.org/2000/svg">
  <defs
     id="defs7" />
  <sodipodi:namedview
     id="namedview7"
     pagecolor="#ffffff"
     bordercolor="#000000"
     borderopacity="0.25"
     inkscape:showpageshadow="2"
     inkscape:pageopacity="0.0"
     inkscape:pagecheckerboard="0"
     inkscape:deskcolor="#d1d1d1"
     inkscape:zoom="2.5295138"
     inkscape:cx="105.55388"
     inkscape:cy="91.519564"
     inkscape:window-width="1920"
     inkscape:window-height="1009"
     inkscape:window-x="3832"
     inkscape:window-y="-8"
     inkscape:window-maximized="1"
     inkscape:current-layer="svg7" />
  <path
     fill="#a9403e"
     d="M 25.057852,74.978119 Q 325.26556,101.07241 24.879312,125.0234 Z"
     id="path1"
     style="stroke-width:3.50348" />
  <path
     fill="#a9403e"
     d="m 27.226132,50.043373 q 76.076048,6.616764 114.600068,13.175554 20.69339,3.524416 31.92662,7.313956 26.466,8.927576 26.38985,30.091067 -0.0762,21.16351 -26.60206,29.90385 -11.2617,3.71002 -31.97984,7.08461 -38.57317,6.28774 -114.691248,12.35924 -0.61234,0.0495 -1.22498,0.0659 -0.61558,0.0184 -1.22958,0.007 -0.61401,-0.0116 -1.22748,-0.0488 -0.61132,-0.0466 -1.2232,-0.11385 -0.60784,-0.0737 -1.21516,-0.17298 -0.60626,-0.10394 -1.20419,-0.23395 -0.60278,-0.13111 -1.19615,-0.29311 -0.59338,-0.16199 -1.17657,-0.34713 -0.5832,-0.1851 -1.1578,-0.4089 -0.57459,-0.22384 -1.13817,-0.46295 -0.56359,-0.23913 -1.11567,-0.51883 -0.55207,-0.27971 -1.08637,-0.57074 -0.53436,-0.29101 -1.05607,-0.62743 -0.522,-0.3238 -1.02492,-0.67636 -0.50587,-0.35068 -0.9918902,-0.72231 -0.48788,-0.37461 -0.95187,-0.77687 -0.4699,-0.39854 -0.91696,-0.81991 -0.44707,-0.42138 -0.87239,-0.86075 -0.42529,-0.4394 -0.83156,-0.90755 -0.40625,-0.46814 -0.7832,-0.94248 -0.37691,-0.47437 -0.73856,-0.98339 -0.35896,-0.4983 -0.68836,-1.01539 -0.33132,-0.52003 -0.63526,-1.04922 -0.30769,-0.53508 -0.58794,-1.07936 -0.27919,-0.54907 -0.53284,-1.1103 -0.25174,-0.55826 -0.47512,-1.13045 -0.2233,-0.57225 -0.42108,-1.15658 -0.19780995,-0.58434 -0.36441995,-1.17189 -0.16661,-0.58759 -0.30478,-1.18914 -0.13814,-0.60156 -0.24806,-1.20449 -0.10996,-0.60292 -0.18575,-1.21095 -0.0795,-0.61396 -0.12718,-1.22334 -0.0845,-1.03879 -0.0792,-2.08055 l 0.17846,-50.045248 q 0.002,-0.616142 0.0344,-1.230691 0.0322,-0.614543 0.0932,-1.22265 0.0611,-0.608111 0.15363,-1.219463 0.0922,-0.611349 0.21461,-1.208471 0.12224,-0.597117 0.27563,-1.197485 0.1534,-0.600365 0.33072995,-1.182739 0.17733,-0.582369 0.39064,-1.166913 0.21334,-0.584541 0.44656,-1.144365 0.23321,-0.559829 0.4995,-1.119948 0.26626,-0.560111 0.55725,-1.094443 0.29102,-0.534331 0.60729,-1.068139 0.31628,-0.533806 0.66104,-1.035923 0.341,-0.508027 0.71182,-1.001821 0.36788,-0.491913 0.75672,-0.963953 0.39478,-0.47581 0.80755,-0.92986 0.41759,-0.452973 0.85026,-0.882313 0.43671,-0.436061 0.89329,-0.847408 0.4566,-0.411348 0.93309,-0.797988 0.47648,-0.38663 0.9709702,-0.751515 0.4945,-0.364876 1.00596,-0.703167 0.51146,-0.338287 1.03793,-0.652941 0.52651,-0.314656 1.07185,-0.599754 0.54639,-0.28994 1.10194,-0.552476 0.55448,-0.257707 1.124,-0.491756 0.56766,-0.23702 1.14528,-0.438832 0.57762,-0.201821 1.17029,-0.380003 0.59267,-0.178181 1.18375,-0.32626 0.59107,-0.148089 1.20097,-0.266623 0.60105,-0.112893 1.20933,-0.201335 0.60831,-0.08844 1.21986,-0.145713 0.61153,-0.05727 1.22444,-0.08633 0.61292,-0.02905 1.22904,-0.02694 1.0399,0.0023 2.07796,0.09273 m -4.33254,49.86274 2.16531,-24.932857 25.02452,0.09221 -0.17852,50.045273 -25.02372,-0.0846 -1.98832,-24.94526 q 74.06991,-5.909266 110.616688,-11.869784 16.84077,-2.744687 24.37106,-5.22405 l 1.07337,-0.206102 q -8.81972,5.834799 -8.86133,17.662936 -0.0416,11.82813 8.73268,17.72422 l -1.06955,-0.21174 Q 150.24303,115.4235 133.42066,112.55684 96.919892,106.33747 22.888762,99.90508"
     id="path2"
     style="stroke-width:3.50348" />
  <path
     fill="#d14f4d"
     d="M 25.057852,74.978119 Q 325.26556,101.07241 24.879312,125.0234 Z"
     id="path3"
     style="stroke-width:3.50348" />
  <path
     fill="#d14f4d"
     d="m 26.141972,62.510745 q 75.563898,6.569193 113.586208,13.044674 47.96173,8.168967 47.90223,25.022431 -0.0606,16.8583 -48.07958,24.68562 -38.06804,6.2069 -113.673988,12.2346 -0.61234,0.0495 -1.23117,0.0368 -0.61401,-0.0116 -1.22292,-0.0808 -0.61083,-0.0721 -1.21062,-0.20494 -0.60277,-0.13111 -1.18489,-0.32107 -0.58506,-0.18806 -1.14759,-0.43204 -0.56253,-0.24395 -1.09954,-0.54569 -0.53702,-0.30177 -1.04292,-0.65245 -0.50585,-0.35066 -0.97575,-0.74917 -0.46212,-0.39935 -0.89416,-0.84276 -0.42233,-0.44128 -0.80496,-0.92448 -0.38253,-0.48326 -0.71195,-1.00034 -0.33266,-0.51503 -0.61156,-1.06431 -0.28211,-0.54724 -0.50546,-1.11944 -0.22331,-0.57221 -0.39181,-1.16276 -0.16852,-0.59053 -0.2755,-1.19534 -0.10885,-0.60773 -0.15833,-1.2201 -0.04,-0.51886 -0.0389,-1.03878 l 0.17653,-50.0482 q 0.002,-0.616141 0.0663,-1.226127 0.0622,-0.612954 0.18264,-1.213031 0.12141,-0.604914 0.30465,-1.191046 0.17838,-0.587215 0.4186,-1.155645 0.23725,-0.56655 0.52745,-1.108676 0.2902,-0.542121 0.63603,-1.049072 0.34584,-0.506956 0.73387,-0.986786 0.38805,-0.479836 0.82933,-0.902192 0.44123,-0.42235 0.91129,-0.825649 0.47004,-0.403285 0.99089,-0.726802 0.52085,-0.323523 1.053,-0.629289 0.54534,-0.285111 1.11192,-0.517281 0.56765,-0.237015 1.15927,-0.410361 0.58782,-0.17925 1.19181,-0.294023 0.60211,-0.117723 1.21659,-0.176881 0.61155,-0.05726 1.22286,-0.05625 0.51995,0.0011 1.0399,0.04784 m -2.16531,24.932867 1.08416,-12.467376 12.51225,0.0461 -0.18147,50.04717 -12.51229,-0.046 -0.9956,-12.4717 q 74.58579,-5.94698 111.639568,-11.98541 17.81017,-2.905319 26.27405,-5.692817 3.1041,-1.022103 4.06091,-1.652418 -3.23226,2.138068 -3.25331,7.269285 -0.0162,5.13226 3.20151,7.29452 -0.9518,-0.63983 -4.04995,-1.68193 -8.44306,-2.84617 -26.23097,-5.87871 Q 98.515022,93.92266 23.974652,87.440815"
     id="path4"
     style="stroke-width:3.50348" />
  <path
     fill="#d4766c"
     d="m 160.10236,100.48125 q -0.002,0.49174 -0.0506,0.98349 -0.05,0.4888 -0.14838,0.96685 -0.0976,0.48589 -0.24243,0.9562 -0.14379,0.46546 -0.33596,0.92021 -0.18732,0.45582 -0.42087,0.89125 -0.23356,0.43542 -0.50529,0.83697 -0.2787,0.41022 -0.58887,0.79057 -0.31688,0.37635 -0.66226,0.72101 -0.35129,0.34842 -0.73189,0.65734 -0.38169,0.31376 -0.78969,0.58619 -0.40801,0.27244 -0.84615,0.49757 -0.43814,0.22511 -0.88732,0.41989 -0.44918,0.19476 -0.9301,0.32667 -0.48091,0.13192 -0.95243,0.23293 -0.47825,0.0969 -0.97103,0.14503 -0.48983,0.0461 -0.98155,0.0435 -0.49174,-0.003 -0.98054,-0.0526 -0.4888,-0.0501 -0.9717,-0.14945 -0.48292,-0.0995 -0.95134,-0.24136 -0.46843,-0.14191 -0.92317,-0.33408 -0.45475,-0.19216 -0.88829,-0.42276 -0.43353,-0.23059 -0.83888,-0.50823 -0.40534,-0.27764 -0.78867,-0.58592 -0.38333,-0.30829 -0.72396,-0.66037 -0.34841,-0.35131 -0.65735,-0.73189 -0.31082,-0.38356 -0.58322,-0.79159 -0.2724,-0.40803 -0.50049,-0.84429 -0.23398,-0.43249 -0.41882,-0.89215 -0.18591,-0.45482 -0.32774,-0.92525 -0.14185,-0.47043 -0.23291,-0.95244 -0.0911,-0.482 -0.14211,-0.97292 -0.051,-0.49089 -0.0437,-0.98155 0.008,-0.490654 0.0495,-0.978666 0.053,-0.490668 0.14758,-0.974648 0.0984,-0.478071 0.24135,-0.95134 0.14674,-0.467311 0.33595,-0.920157 0.19217,-0.454743 0.42089,-0.891258 0.23543,-0.432443 0.50823,-0.83886 0.27576,-0.408295 0.59075,-0.787603 0.31205,-0.377418 0.66039,-0.723947 0.35129,-0.348422 0.73189,-0.657356 0.38354,-0.310843 0.79154,-0.583275 0.40801,-0.272434 0.8443,-0.500474 0.43247,-0.234026 0.8892,-0.416942 0.4567,-0.182957 0.92525,-0.327744 0.46855,-0.144804 0.9554,-0.234792 0.47825,-0.09698 0.96996,-0.140211 0.48982,-0.0462 0.9845,-0.04564 0.48985,-5.12e-4 0.97865,0.04949 0.48881,0.05002 0.96876,0.151331 0.47996,0.101334 0.95429,0.239472 0.47434,0.138145 0.92317,0.334075 0.44884,0.195929 0.88829,0.422767 0.43944,0.226831 0.83887,0.508227 0.40831,0.27576 0.78868,0.585922 0.37635,0.316886 0.72288,0.665223 0.34654,0.348328 0.66031,0.730007 0.31377,0.381671 0.58026,0.793463 0.26645,0.411815 0.50344,0.842381 0.23103,0.43438 0.41694,0.889203 0.18591,0.454822 0.32774,0.925265 0.14185,0.470425 0.23479,0.955383 0.093,0.484977 0.14022,0.969964 0.0473,0.484967 0.0438,0.98155 m -30.0305,-0.10582 q -7.1e-4,0.7357 -0.0753,1.4728 -0.0735,0.73227 -0.22364,1.45515 -0.14527,0.72397 -0.36203,1.42701 -0.21488,0.706 -0.50017,1.38624 -0.28529,0.68023 -0.63508,1.33094 -0.35169,0.64774 -0.76384,1.25928 -0.41027,0.61444 -0.87888,1.183 -0.4686,0.56854 -0.99446,1.08634 -0.52587,0.51778 -1.09448,0.98803 -0.56862,0.47023 -1.18834,0.8733 -0.61484,0.4042 -1.26549,0.75222 -0.65249,0.34509 -1.33569,0.62244 -0.68129,0.28034 -1.38841,0.49405 -0.70606,0.20888 -1.43014,0.35031 -0.72409,0.14143 -1.45842,0.21459 -0.73434,0.0734 -1.47086,0.0647 -0.73653,-0.009 -1.47281,-0.0751 -0.73629,-0.0669 -1.45811,-0.22178 -0.721,-0.14716 -1.42888,-0.36497 -0.70305,-0.21677 -1.38327,-0.50205 -0.68024,-0.28531 -1.33095,-0.6351 -0.65071,-0.34979 -1.26035,-0.75899 -0.60962,-0.4092 -1.18193,-0.88369 -0.57232,-0.47455 -1.08929,-0.9926 -0.51591,-0.52291 -0.98509,-1.09635 -0.46431,-0.57241 -0.87338,-1.1883 -0.40711,-0.613 -0.7522,-1.26549 -0.3451,-0.6525 -0.62542,-1.3338 -0.28033,-0.68132 -0.49108,-1.39032 -0.21182,-0.70415 -0.35326,-1.42825 -0.14143,-0.72409 -0.20977,-1.45734 -0.0703,-0.73623 -0.0666,-1.47385 0.004,-0.737574 0.0771,-1.469827 0.0735,-0.732253 0.22174,-1.458084 0.14528,-0.723984 0.36204,-1.427011 0.21486,-0.705994 0.50016,-1.386227 0.28529,-0.680229 0.63509,-1.330941 0.35167,-0.647755 0.76383,-1.259264 0.41215,-0.611524 0.87887,-1.183026 0.46673,-0.571485 0.99447,-1.086325 0.52774,-0.514841 1.09448,-0.988037 0.56677,-0.473155 1.19023,-0.870344 0.62346,-0.39719 1.26548,-0.752207 0.65065,-0.348007 1.33381,-0.625417 0.68425,-0.282212 1.38841,-0.494037 0.70901,-0.210757 1.4331,-0.352186 0.72409,-0.14143 1.45735,-0.209785 0.73326,-0.06835 1.47381,-0.06658 0.74055,0.0019 1.46985,0.07718 0.73227,0.07354 1.45623,0.218804 0.72101,0.14716 1.42889,0.36499 0.70304,0.216758 1.38328,0.502055 0.68022,0.285285 1.33094,0.635081 0.6507,0.34979 1.26222,0.761948 0.61151,0.412158 1.18006,0.880767 0.56854,0.468599 1.08929,0.99258 0.51779,0.525864 0.98508,1.096356 0.46435,0.572382 0.87336,1.188314 0.40712,0.612978 0.7522,1.265491 0.34507,0.652512 0.6254,1.333802 0.28033,0.681292 0.49109,1.390316 0.21183,0.704164 0.35326,1.428246 0.14143,0.724082 0.21167,1.460297 0.0702,0.736225 0.0647,1.470861 m -40.037318,-0.1446 q -0.003,0.98642 -0.10301,1.96402 -0.1,0.97759 -0.29888,1.94343 -0.193,0.96206 -0.48273,1.90268 -0.28973,0.94061 -0.66814,1.84631 -0.37842,0.90574 -0.84742,1.77361 -0.46898,0.86792 -1.01271,1.68368 -0.54372,0.81581 -1.17855,1.57332 -0.63485,0.75754 -1.32076,1.44791 -0.69962,0.69496 -1.46378,1.31472 -0.76226,0.62271 -1.58318,1.16643 -0.81789,0.54187 -1.68667,1.00394 -0.86874,0.46205 -1.77839,0.83389 -0.90965,0.3718 -1.85535,0.65442 -0.94571,0.28259 -1.90301,0.46877 -0.96615,0.19181 -1.94581,0.28418 -0.97965,0.0922 -1.96312,0.0877 -0.98345,-0.005 -1.96402,-0.10301 -0.98055,-0.0981 -1.93965,-0.29298 -0.95912,-0.19487 -1.90457,-0.48568 -0.94543,-0.29079 -1.84632,-0.66814 -0.90088,-0.37734 -1.77361,-0.84743 -0.87273,-0.47004 -1.68368,-1.01269 -0.81366,-0.5534 -1.57332,-1.17855 -0.75671,-0.62704 -1.44979,-1.32371 -0.69495,-0.69963 -1.31281,-1.46083 -0.62458,-0.76524 -1.16644,-1.58317 -0.54188,-0.81791 -1.00394,-1.68667 -0.45916,-0.87064 -0.83391,-1.7784 -0.37367,-0.91261 -0.65441,-1.85534 -0.28369,-0.94088 -0.47064,-1.90598 -0.18696,-0.96508 -0.28231,-1.94286 -0.0953,-0.97778 -0.0895,-1.96606 0.002,-0.981579 0.10488,-1.961059 0.10001,-0.977602 0.29594,-1.941549 0.19298,-0.962051 0.4827,-1.902667 0.28973,-0.940615 0.66627,-1.849295 0.37654,-0.908684 0.84742,-1.773607 0.47087,-0.864931 1.01458,-1.680722 0.55151,-0.816602 1.17856,-1.573323 0.62704,-0.756716 1.32371,-1.449788 0.69667,-0.693073 1.45895,-1.315775 0.76712,-0.621632 1.58506,-1.163487 0.81604,-0.544801 1.68668,-1.003922 0.86876,-0.462078 1.78134,-0.83576 0.90966,-0.371809 1.85052,-0.655498 0.94273,-0.280732 1.90782,-0.467696 0.96619,-0.191807 1.94288,-0.282313 0.97966,-0.09239 1.96607,-0.08938 0.9816,0.002 1.95918,0.101921 0.9776,0.100012 1.94342,0.298905 0.96583,0.19889 1.90267,0.482712 0.94169,0.284888 1.8493,0.666258 0.90572,0.378418 1.77361,0.847412 0.86788,0.468991 1.68073,1.014592 0.81283,0.545598 1.57331,1.178554 0.76047,0.632954 1.44791,1.320761 0.69496,0.699628 1.31767,1.461902 0.61973,0.764152 1.16642,1.58315 0.54189,0.81791 1.00094,1.688606 0.46204,0.868774 0.83387,1.778408 0.37181,0.909643 0.6574,1.853467 0.28556,0.943796 0.46581,1.904868 0.19181,0.966171 0.28419,1.945809 0.0923,0.979658 0.0876,1.963146"
     id="path5"
     style="stroke-width:3.50348" />
</svg>
