<?xml version="1.0" encoding="UTF-8" standalone="no"?>
<svg
   width="200"
   height="200"
   version="1.1"
   id="svg4"
   sodipodi:docname="stick.svg"
   inkscape:version="1.4 (86a8ad7, 2024-10-11)"
   xmlns:inkscape="http://www.inkscape.org/namespaces/inkscape"
   xmlns:sodipodi="http://sodipodi.sourceforge.net/DTD/sodipodi-0.dtd"
   xmlns="http://www.w3.org/2000/svg"
   xmlns:svg="http://www.w3.org/2000/svg">
  <defs
     id="defs4" />
  <sodipodi:namedview
     id="namedview4"
     pagecolor="#ffffff"
     bordercolor="#000000"
     borderopacity="0.25"
     inkscape:showpageshadow="2"
     inkscape:pageopacity="0.0"
     inkscape:pagecheckerboard="0"
     inkscape:deskcolor="#d1d1d1"
     inkscape:zoom="2.5295138"
     inkscape:cx="-8.6973236"
     inkscape:cy="106.14688"
     inkscape:window-width="1920"
     inkscape:window-height="1001"
     inkscape:window-x="-9"
     inkscape:window-y="-9"
     inkscape:window-maximized="1"
     inkscape:current-layer="svg4" />
  <path
     fill="#654a19"
     d="M 13.655255,143.1698 84.917952,97.416067 q 3.2605,-2.09265 6.93598,-3.27828 3.68733,-1.18564 7.552509,-1.38127 l 68.185969,-3.52727 q 1.4524,-0.0771 2.90481,-0.006 1.45833,0.0652 2.90481,0.27863 1.43462,0.20748 2.84553,0.55725 1.41683,0.35569 2.78624,0.83587 1.37534,0.49204 2.6914,1.10857 1.32198,0.62246 2.57283,1.36348 1.24492,0.74695 2.4187,1.61247 1.17378,0.86551 2.25271,1.83774 1.08486,0.97815 2.06301,2.05115 0.98408,1.07893 1.85552,2.246783 0.86551,1.16785 1.61839,2.41277 0.75288,1.24492 1.38127,2.56098 0.62839,1.31605 1.12043,2.68546 0.49204,1.36941 0.84773,2.78625 0.35569,1.40498 0.57503,2.84553 0.21934,1.44055 0.29641,2.89295 0.0711,1.45834 0,2.91074 -0.0593,1.45241 -0.2727,2.89295 -0.21341,1.44648 -0.56317,2.85739 -0.34977,1.41091 -0.82995,2.78625 -0.49204,1.36941 -1.10857,2.69139 -0.62246,1.31606 -1.36348,2.5669 -0.74695,1.25085 -1.61247,2.42463 -0.86551,1.17378 -1.83774,2.25271 -0.97222,1.07893 -2.05708,2.06301 -1.08485,0.98408 -2.24085,1.84959 -1.15599,0.86552 -2.41277,1.62433 -1.25677,0.7588 -2.5669,1.37533 -1.31013,0.62839 -2.67954,1.12043 -1.36941,0.49204 -2.78625,0.84773 -1.41683,0.35569 -2.84553,0.57504 -1.42869,0.21934 -2.89888,0.2964 l -68.18597,3.52135 -1.52947,-29.59943 16.01795,24.93987 -71.262698,45.76558 q -1.227135,0.78252 -2.525407,1.44648 -1.298272,0.66396 -2.649898,1.19157 -1.351626,0.5276 -2.756606,0.93072 -1.404979,0.40312 -2.833672,0.6521 -1.43462,0.26084 -2.887025,0.3794 -1.452405,0.11857 -2.90481,0.0889 -1.458334,-0.0296 -2.904811,-0.19563 -1.446477,-0.17192 -2.869241,-0.48019 -1.422764,-0.30826 -2.804031,-0.7588 -1.387195,-0.44462 -2.726964,-1.03151 -1.333842,-0.58096 -2.602473,-1.28641 -1.27456,-0.71139 -2.466125,-1.54133 -1.197493,-0.82995 -2.306063,-1.77846 -1.1085707,-0.94851 -2.1163614,-1.99187 -1.007791,-1.04336 -1.914803,-2.19342 -0.907013,-1.15007 -1.689533,-2.36535 -0.78252,-1.21528 -1.452405,-2.51948 -0.669885,-1.3042 -1.191565,-2.65582 -0.52168,-1.35163 -0.930725,-2.75068 -0.40904497,-1.39905 -0.65209997,-2.83367 -0.243056,-1.43462 -0.379404,-2.88703 -0.136348,-1.4524 -0.08892,-2.90481 0.04743,-1.4524 0.19563,-2.90481 0.148205,-1.4524 0.474255,-2.86924 0.31419397,-1.42276 0.76473597,-2.80996 0.444614,-1.38127 1.025576,-2.72104 0.580962,-1.33384 1.292344,-2.6084 0.711382,-1.26863 1.541328,-2.46612 0.829945,-1.19749 1.778455,-2.30014 0.948509,-1.10264 1.9918697,-2.12229 1.0433597,-1.01964 2.1934277,-1.9148 1.150067,-0.89516 2.359417,-1.68953 M 74.377642,109.21316 118.18692,20.69944 q 0.64617,-1.3042 1.41684,-2.543191 0.77066,-1.233062 1.65989,-2.389058 0.88923,-1.150068 1.87923,-2.211212 1.00187,-1.067074 2.09858,-2.021511 1.09672,-0.954438 2.27642,-1.8021683 1.17971,-0.84773 2.44834,-1.576897 1.26864,-0.729167 2.59062,-1.321985 1.32791,-0.598747 2.70325,-1.067073 1.38127,-0.468327 2.7981,-0.794377 1.42277,-0.331978 2.86332,-0.515752 1.44647,-0.189702 2.90481,-0.237127 1.4524,-0.0415 2.90481,0.05928 1.4524,0.09485 2.88702,0.331978 1.44055,0.237127 2.84553,0.616531 1.40498,0.379404 2.76846,0.889228 1.36349,0.52168 2.66769,1.167852 1.3042,0.646172 2.53726,1.416836 1.23899,0.770664 2.38906,1.6598913 1.15007,0.889228 2.21714,1.879235 1.06707,0.990006 2.01558,2.098577 0.94851,1.10857 1.8081,2.276423 0.85958,1.167852 1.57689,2.44834 0.71731,1.280487 1.32199,2.590616 0.60467,1.310129 1.06707,2.703252 0.4624,1.393123 0.79438,2.804031 0.33198,1.410908 0.51575,2.857385 0.18377,1.446477 0.23713,2.90481 0.0415,1.452405 -0.0593,2.90481 -0.0949,1.452405 -0.33198,2.887026 -0.23713,1.440548 -0.61653,2.845528 -0.37941,1.40498 -0.89516,2.768462 -0.51575,1.363482 -1.16192,2.667683 l -43.80928,88.513717 q -0.64617,1.3042 -1.41684,2.54319 -0.77066,1.23307 -1.65989,2.38906 -0.88923,1.15007 -1.88516,2.21122 -0.99594,1.06707 -2.09265,2.02151 -1.09672,0.95443 -2.27642,1.80216 -1.17971,0.84773 -2.44834,1.5769 -1.26864,0.72917 -2.59062,1.32199 -1.32791,0.59874 -2.70918,1.06707 -1.37534,0.46833 -2.7981,0.79438 -1.42277,0.32605 -2.85739,0.51575 -1.44648,0.1897 -2.90481,0.23713 -1.4524,0.0415 -2.904809,-0.0593 -1.452399,-0.0889 -2.892949,-0.33198 -1.43462,-0.23712 -2.8396,-0.61653 -1.40498,-0.3794 -2.76846,-0.88922 -1.36349,-0.52168 -2.66769,-1.16786 -1.3042,-0.64617 -2.53726,-1.41683 -1.23899,-0.77067 -2.38906,-1.65989 -1.15007,-0.88923 -2.21714,-1.87924 -1.06707,-0.99 -2.01558,-2.09858 -0.9663,-1.09078 -1.8081,-2.27642 -0.84773,-1.18563 -1.57689,-2.44834 -0.72324,-1.2627 -1.32199,-2.59061 -0.59875,-1.32792 -1.06707,-2.70326 -0.46833,-1.37533 -0.79438,-2.7981 -0.32605,-1.42276 -0.51575,-2.86331 -0.1897,-1.44055 -0.23713,-2.90481 -0.0415,-1.45241 0.0593,-2.90481 0.0948,-1.45241 0.33198,-2.88703 0.23713,-1.44055 0.61653,-2.84553 0.37941,-1.40498 0.89516,-2.76846 0.51575,-1.36348 1.16192,-2.66768"
     id="path1"
     style="stroke-width:5.92818" />
  <path
     fill="#7d5b1f"
     d="M 22.808371,157.42708 94.071072,111.6615 q 2.84553,-1.81995 6.206808,-1.99187 l 68.1919,-3.52727 q 0.62246,-0.0296 1.24492,0 0.62246,0.0296 1.24492,0.11856 0.6106,0.0889 1.21527,0.23713 0.61061,0.15413 1.1975,0.36162 0.58689,0.20749 1.15006,0.47425 0.56318,0.26677 1.10265,0.58689 0.53946,0.32013 1.03743,0.68767 0.49797,0.36755 0.96629,0.78845 0.46833,0.4209 0.88923,0.87737 0.41497,0.4624 0.78845,0.9663 0.37347,0.49797 0.6936,1.0315 0.32012,0.53354 0.59282,1.09672 0.27269,0.56317 0.47425,1.15006 0.21934,0.59282 0.36755,1.19157 0.15413,0.6106 0.24898,1.22713 0.0949,0.61653 0.12449,1.23899 0.0356,0.62246 0,1.24492 -0.0237,0.62246 -0.11856,1.24492 -0.0889,0.61653 -0.23713,1.22121 -0.1482,0.60467 -0.35569,1.19156 -0.20749,0.58689 -0.47425,1.156 -0.26677,0.5691 -0.59282,1.09671 -0.32605,0.52761 -0.68174,1.04336 -0.35569,0.51575 -0.78845,0.96037 -0.43276,0.44461 -0.8833,0.88923 -0.4624,0.41497 -0.96037,0.78844 -0.49796,0.37348 -1.03743,0.69953 -0.53946,0.32605 -1.09671,0.59282 -0.56318,0.26084 -1.15007,0.47425 -0.58689,0.21342 -1.18564,0.36755 -0.6106,0.15413 -1.22713,0.24306 -0.61653,0.0889 -1.24492,0.12449 l -68.18005,3.52727 -0.65802,-12.68632 6.86483,10.68852 -71.262695,45.75965 q -0.527608,0.33791 -1.078929,0.62246 -0.557249,0.28455 -1.138211,0.50982 -0.580962,0.2312 -1.185637,0.39719 -0.592819,0.17192 -1.20935,0.28456 -0.616531,0.1067 -1.23899,0.16006 -0.62246,0.0474 -1.244919,0.0356 -0.622459,-0.0119 -1.244919,-0.083 -0.622459,-0.0711 -1.227134,-0.20749 -0.604674,-0.13634 -1.203421,-0.32012 -0.598747,-0.18377 -1.167852,-0.44461 -0.569106,-0.26084 -1.114499,-0.55132 -0.545393,-0.29048 -1.061145,-0.66396 -0.515752,-0.37347 -0.984078,-0.75881 -0.468327,-0.38533 -0.912941,-0.85365 -0.444613,-0.46833 -0.818089,-0.93666 -0.373476,-0.46832 -0.723239,-1.01965 -0.349762,-0.55132 -0.622459,-1.07892 -0.272696,-0.52761 -0.509824,-1.13822 -0.237127,-0.6106 -0.403116,-1.1797 -0.165989,-0.56911 -0.278625,-1.21528 -0.112635,-0.64617 -0.160061,-1.23306 -0.04742,-0.5869 -0.03557,-1.24492 0.0059,-0.62839 0.08299,-1.24492 0.07114,-0.62246 0.201558,-1.23306 0.136348,-0.60468 0.32605,-1.20343 0.19563,-0.59281 0.444614,-1.16192 0.248984,-0.57503 0.551321,-1.12043 0.302337,-0.54539 0.658028,-1.05521 0.355691,-0.50983 0.764736,-0.99001 0.409045,-0.48018 0.853659,-0.90701 0.444613,-0.42683 0.936653,-0.81809 0.492039,-0.39126 1.013719,-0.72324 M 89.547862,116.72417 133.35714,28.204521 q 0.27863,-0.557249 0.61061,-1.084857 0.32605,-0.533537 0.71138,-1.025576 0.3794,-0.492039 0.80623,-0.94851 0.42683,-0.45647 0.89516,-0.865515 0.47425,-0.414972 0.97815,-0.770663 0.50982,-0.367548 1.04929,-0.675813 0.53946,-0.308266 1.10857,-0.569106 0.5691,-0.26084 1.16192,-0.45647 0.59282,-0.201559 1.1975,-0.343835 0.6106,-0.136348 1.22713,-0.219343 0.62246,-0.08299 1.24492,-0.100779 0.62246,-0.01778 1.24492,0.02371 0.62246,0.0415 1.23899,0.142276 0.61653,0.100779 1.21527,0.266769 0.59875,0.165989 1.18564,0.379403 0.58689,0.225271 1.14414,0.497968 0.56318,0.278624 1.09079,0.610603 0.53353,0.331978 1.02557,0.711382 0.49204,0.379404 0.94851,0.806233 0.45647,0.426829 0.86552,0.895156 0.41497,0.474254 0.77066,0.97815 0.36755,0.509824 0.67581,1.049289 0.30827,0.539464 0.56911,1.10857 0.25491,0.569106 0.45647,1.161924 0.20156,0.592818 0.33791,1.197493 0.13634,0.604675 0.22527,1.227134 0.0889,0.62246 0.10078,1.244919 0.0119,0.622459 -0.0237,1.244919 -0.0356,0.622459 -0.14227,1.23899 -0.10671,0.616531 -0.26677,1.221206 -0.16006,0.604675 -0.38533,1.185637 -0.22527,0.580962 -0.49797,1.138211 l -43.80928,88.519654 q -0.2727,0.55725 -0.60467,1.08485 -0.33198,0.53354 -0.71139,1.02558 -0.3794,0.49204 -0.80623,0.94851 -0.42683,0.45647 -0.89516,0.86551 -0.47425,0.41498 -0.97815,0.77067 -0.50982,0.36755 -1.04928,0.67581 -0.53947,0.30827 -1.10858,0.56911 -0.5691,0.26084 -1.16192,0.45647 -0.59282,0.20155 -1.19749,0.34383 -0.61061,0.13635 -1.22714,0.21934 -0.62246,0.083 -1.24492,0.10078 -0.62245,0.0178 -1.24491,-0.0237 -0.622459,-0.0415 -1.244919,-0.14228 -0.622459,-0.10078 -1.215279,-0.26676 -0.59875,-0.16007 -1.18564,-0.37941 -0.58096,-0.22527 -1.14414,-0.49797 -0.55725,-0.27862 -1.08485,-0.6106 -0.53354,-0.33198 -1.02558,-0.71138 -0.49204,-0.3794 -0.94851,-0.80623 -0.45647,-0.42683 -0.86551,-0.89516 -0.41498,-0.47425 -0.77067,-0.97815 -0.36755,-0.50982 -0.67581,-1.04929 -0.30827,-0.53946 -0.56911,-1.10857 -0.25491,-0.5691 -0.45647,-1.16192 -0.20156,-0.59282 -0.34383,-1.1975 -0.14228,-0.60467 -0.21934,-1.22713 -0.0771,-0.62246 -0.10078,-1.24492 -0.0237,-0.62246 0.0237,-1.24492 0.0474,-0.62246 0.14228,-1.23899 0.0949,-0.61653 0.26676,-1.21528 0.17192,-0.59874 0.38534,-1.18563 0.21934,-0.59282 0.49203,-1.14414"
     id="path2"
     style="stroke-width:5.92818" />
</svg>
