<?xml version="1.0" encoding="UTF-8" standalone="no"?>
<svg
   width="200"
   height="200"
   version="1.1"
   id="svg4"
   sodipodi:docname="tentacles.svg"
   inkscape:version="1.3.2 (091e20e, 2023-11-25, custom)"
   xmlns:inkscape="http://www.inkscape.org/namespaces/inkscape"
   xmlns:sodipodi="http://sodipodi.sourceforge.net/DTD/sodipodi-0.dtd"
   xmlns="http://www.w3.org/2000/svg"
   xmlns:svg="http://www.w3.org/2000/svg">
  <defs
     id="defs4" />
  <sodipodi:namedview
     id="namedview4"
     pagecolor="#505050"
     bordercolor="#eeeeee"
     borderopacity="1"
     inkscape:showpageshadow="0"
     inkscape:pageopacity="0"
     inkscape:pagecheckerboard="0"
     inkscape:deskcolor="#505050"
     inkscape:zoom="1.3065405"
     inkscape:cx="165.32209"
     inkscape:cy="137.38571"
     inkscape:window-width="1920"
     inkscape:window-height="1009"
     inkscape:window-x="3832"
     inkscape:window-y="-8"
     inkscape:window-maximized="1"
     inkscape:current-layer="svg4" />
  <path
     style="fill:#1e254a;fill-opacity:1;stroke:#13182f;stroke-width:9.97319;stroke-linecap:square;stroke-linejoin:round;stroke-miterlimit:11.2;stroke-dasharray:none;stroke-opacity:1"
     d="m 57.933827,195.01335 c 0,0 -36.503181,-48.2294 -34.970173,-75.49142 C 24.638988,89.728898 70.728481,70.810559 70.23612,40.98209 70.006596,27.076905 47.000501,4.9846575 47.000501,4.9846575 c 0,0 40.393817,23.3481785 44.468172,42.5424205 4.512995,21.260712 -24.901177,38.752751 -26.440537,60.359322 -2.130662,29.90617 24.437462,87.12695 24.437462,87.12695 z"
     id="path1"
     sodipodi:nodetypes="csscsacc" />
  <path
     style="fill:#1e254a;fill-opacity:1;stroke:#13182f;stroke-width:9.97319;stroke-linecap:square;stroke-linejoin:round;stroke-miterlimit:11.2;stroke-dasharray:none;stroke-opacity:1"
     d="m 85.256008,194.60781 c 0,0 -3.787678,-40.92312 -2.25467,-68.18514 C 84.676672,96.62964 101.54108,88.535409 101.04872,58.70694 100.81919,44.801755 145.19316,5.3909346 145.19316,5.3909346 120.76566,67.302253 114.55265,89.780777 112.61809,130.2115 c 2.5073,39.75652 4.16968,64.39631 4.16968,64.39631 z"
     id="path1-4"
     sodipodi:nodetypes="csscscc" />
  <path
     style="fill:#1e254a;fill-opacity:1;stroke:#13182f;stroke-width:9.97319;stroke-linecap:square;stroke-linejoin:round;stroke-miterlimit:11.2;stroke-dasharray:none;stroke-opacity:1"
     d="m 117.21817,194.60781 c 0,0 6.49522,-33.07564 8.02823,-60.33766 1.67534,-29.79304 1.76238,-32.20461 11.01171,-50.667762 6.229,-12.434082 43.97104,-42.762501 43.97104,-42.762501 -6.83832,24.568146 -7.09808,39.199185 -22.56278,81.524133 -13.67113,37.41614 -8.91643,72.24379 -8.91643,72.24379 z"
     id="path1-4-8"
     sodipodi:nodetypes="csscscc" />
</svg>
