<?xml version="1.0" encoding="UTF-8" standalone="no"?>
<svg
   width="200"
   height="200"
   version="1.1"
   id="svg6"
   sodipodi:docname="thirdeye.svg"
   inkscape:version="1.3.2 (091e20e, 2023-11-25, custom)"
   xmlns:inkscape="http://www.inkscape.org/namespaces/inkscape"
   xmlns:sodipodi="http://sodipodi.sourceforge.net/DTD/sodipodi-0.dtd"
   xmlns="http://www.w3.org/2000/svg"
   xmlns:svg="http://www.w3.org/2000/svg">
  <defs
     id="defs6" />
  <sodipodi:namedview
     id="namedview6"
     pagecolor="#505050"
     bordercolor="#eeeeee"
     borderopacity="1"
     inkscape:showpageshadow="0"
     inkscape:pageopacity="0"
     inkscape:pagecheckerboard="0"
     inkscape:deskcolor="#505050"
     showgrid="false"
     inkscape:zoom="1.8477273"
     inkscape:cx="135.84256"
     inkscape:cy="70.627306"
     inkscape:window-width="1920"
     inkscape:window-height="1009"
     inkscape:window-x="3832"
     inkscape:window-y="-8"
     inkscape:window-maximized="1"
     inkscape:current-layer="svg6" />
  <path
     fill="#111111"
     d="m 99.999999,13.040386 q 69.567361,86.957678 0,173.915354 -69.567358,-86.957676 0,-173.915354"
     id="path1"
     style="stroke-width:6.08692" />
  <path
     fill="#111111"
     d="m 110.18341,4.8960935 q 76.08645,95.1019705 0,190.2039365 -0.39565,0.50522 -0.84608,0.96174 -0.44435,0.45651 -0.93739,0.87042 -0.48695,0.41391 -1.01651,0.77913 -0.52956,0.36521 -1.09565,0.66956 -0.55999,0.30435 -1.14434,0.56 -0.59043,0.25565 -1.19912,0.45043 -0.60869,0.19478 -1.24173,0.3226 -0.63304,0.12783 -1.25999,0.20696 -0.62695,0.0791 -1.27825,0.0791 -0.645217,0 -1.278257,-0.0487 -0.639126,-0.0609 -1.272165,-0.17043 -0.626952,-0.12174 -1.241731,-0.30434 -0.620865,-0.17044 -1.217383,-0.40783 -0.590431,-0.24347 -1.156514,-0.53565 -0.57217,-0.29217 -1.107818,-0.64521 -0.535649,-0.35304 -1.034776,-0.74869 -1.138253,-0.90695 -2.039117,-2.03912 -76.086444,-95.101966 0,-190.2039365 0.39565,-0.499127 0.846081,-0.9617326 0.444345,-0.4565187 0.937385,-0.8704289 0.486954,-0.4139103 1.016515,-0.7730383 0.529562,-0.3652149 1.095645,-0.6695607 0.559996,-0.3104327 1.14434,-0.5660832 0.590431,-0.24956351 1.199123,-0.44434481 0.608691,-0.19478129 1.24173,-0.32869344 0.63304,-0.13391214 1.259992,-0.20086821 0.626952,-0.06695607 1.278252,-0.07912992 0.645208,-0.01217381 1.278248,0.04260843 0.63913,0.06086916 1.27217,0.17652055 0.62695,0.1156514 1.24173,0.29217195 0.62087,0.18260746 1.21738,0.41999717 0.59044,0.23738968 1.15652,0.52956168 0.57217,0.2982588 1.10782,0.645213 0.53564,0.3469542 1.03477,0.7486906 1.13826,0.9069505 2.03912,2.0391167 m -20.366821,16.2946725 10.18341,-8.15038 10.183411,8.15038 q -63.042186,78.807298 0,157.614594 l -10.183411,8.15038 -10.18341,-8.15038 q 63.042191,-78.807296 0,-157.614594"
     id="path2"
     style="stroke-width:6.08692" />
  <clipPath
     id="a">
    <path
       d="M 55,33.571 Q 66.429,47.857 55,62.143 43.571,47.857 55,33.571"
       id="path3" />
  </clipPath>
  <g
     clip-path="url(#a)"
     id="g4"
     transform="matrix(6.0869156,0,0,6.0869156,-234.78035,-191.30345)">
    <path
       fill="#eeeeee"
       d="m 62.143,47.857 q 0,0.175 -0.009,0.35 -0.008,0.176 -0.026,0.35 -0.017,0.175 -0.042,0.348 -0.026,0.174 -0.06,0.346 -0.035,0.172 -0.077,0.342 -0.043,0.17 -0.094,0.338 -0.05,0.167 -0.11,0.332 -0.059,0.166 -0.126,0.328 -0.067,0.162 -0.142,0.32 -0.075,0.158 -0.158,0.313 -0.082,0.155 -0.172,0.305 -0.09,0.15 -0.188,0.296 -0.098,0.146 -0.202,0.287 -0.104,0.14 -0.216,0.276 -0.11,0.136 -0.228,0.266 -0.118,0.13 -0.242,0.254 -0.124,0.124 -0.254,0.242 -0.13,0.118 -0.266,0.229 -0.135,0.11 -0.276,0.215 -0.14,0.105 -0.287,0.202 -0.145,0.098 -0.296,0.188 -0.15,0.09 -0.305,0.173 -0.155,0.083 -0.313,0.157 -0.158,0.074 -0.32,0.142 -0.162,0.068 -0.328,0.126 -0.165,0.06 -0.333,0.11 -0.167,0.051 -0.337,0.094 -0.17,0.042 -0.342,0.077 -0.172,0.035 -0.346,0.06 -0.174,0.025 -0.348,0.043 -0.174,0.018 -0.35,0.025 Q 55.174,54.998 55,55 q -0.174,0.002 -0.35,-0.009 -0.176,-0.008 -0.35,-0.025 -0.175,-0.018 -0.348,-0.043 -0.174,-0.026 -0.346,-0.06 -0.171,-0.035 -0.342,-0.077 -0.17,-0.043 -0.337,-0.094 -0.168,-0.05 -0.333,-0.11 -0.165,-0.059 -0.327,-0.126 -0.162,-0.067 -0.321,-0.142 -0.159,-0.075 -0.313,-0.157 -0.154,-0.082 -0.305,-0.173 -0.151,-0.091 -0.296,-0.188 -0.145,-0.097 -0.287,-0.202 -0.142,-0.105 -0.276,-0.215 -0.134,-0.11 -0.266,-0.23 -0.132,-0.12 -0.254,-0.241 -0.122,-0.121 -0.242,-0.254 -0.12,-0.133 -0.228,-0.266 -0.108,-0.133 -0.216,-0.276 -0.108,-0.143 -0.202,-0.287 -0.094,-0.144 -0.188,-0.296 -0.094,-0.152 -0.172,-0.305 -0.078,-0.153 -0.158,-0.313 -0.08,-0.16 -0.142,-0.32 -0.062,-0.16 -0.126,-0.328 -0.06,-0.165 -0.11,-0.332 -0.051,-0.168 -0.094,-0.338 -0.042,-0.17 -0.077,-0.342 -0.035,-0.172 -0.06,-0.346 -0.025,-0.174 -0.042,-0.348 -0.017,-0.174 -0.026,-0.35 -0.009,-0.176 -0.009,-0.35 0,-0.174 0.009,-0.35 0.008,-0.176 0.026,-0.35 0.017,-0.175 0.042,-0.348 0.025,-0.173 0.06,-0.345 0.035,-0.172 0.077,-0.342 0.042,-0.17 0.094,-0.338 0.052,-0.168 0.11,-0.333 0.058,-0.165 0.126,-0.327 0.068,-0.162 0.142,-0.32 0.075,-0.16 0.158,-0.314 0.082,-0.155 0.172,-0.305 0.09,-0.15 0.188,-0.296 0.098,-0.146 0.202,-0.287 0.104,-0.14 0.216,-0.276 0.11,-0.136 0.228,-0.266 0.118,-0.13 0.242,-0.254 0.124,-0.124 0.254,-0.241 0.13,-0.118 0.266,-0.23 0.135,-0.11 0.276,-0.215 0.14,-0.105 0.287,-0.202 0.145,-0.097 0.296,-0.188 0.15,-0.09 0.305,-0.172 0.155,-0.083 0.313,-0.158 0.159,-0.075 0.32,-0.142 0.163,-0.067 0.328,-0.126 0.165,-0.06 0.333,-0.11 0.167,-0.051 0.337,-0.094 0.17,-0.042 0.342,-0.077 0.172,-0.035 0.346,-0.06 0.174,-0.025 0.348,-0.042 0.174,-0.017 0.35,-0.026 0.176,-0.009 0.35,-0.009 0.174,0 0.35,0.009 0.176,0.008 0.35,0.026 0.175,0.017 0.348,0.043 0.174,0.025 0.346,0.06 0.172,0.035 0.342,0.076 0.17,0.043 0.337,0.094 0.168,0.05 0.333,0.11 0.165,0.059 0.327,0.126 0.162,0.067 0.321,0.142 0.159,0.075 0.313,0.158 0.154,0.083 0.305,0.172 0.151,0.089 0.296,0.188 0.145,0.099 0.287,0.202 0.142,0.103 0.276,0.216 0.136,0.11 0.266,0.229 0.13,0.117 0.254,0.241 0.124,0.124 0.242,0.254 0.118,0.13 0.228,0.266 0.112,0.135 0.216,0.276 0.105,0.14 0.202,0.287 0.097,0.147 0.188,0.296 0.091,0.149 0.172,0.305 0.081,0.156 0.158,0.313 0.075,0.159 0.142,0.32 0.067,0.163 0.126,0.328 0.06,0.165 0.11,0.333 0.051,0.167 0.094,0.338 0.042,0.17 0.077,0.342 0.035,0.172 0.06,0.345 0.025,0.173 0.042,0.348 0.017,0.175 0.026,0.35 0.009,0.175 0.009,0.35"
       id="path4" />
  </g>
</svg>
