<?xml version="1.0" encoding="UTF-8" standalone="no"?>
<svg
   width="200"
   height="200"
   version="1.1"
   id="svg4"
   sodipodi:docname="yggdrasil.svg"
   inkscape:version="1.3.2 (091e20e, 2023-11-25, custom)"
   xmlns:inkscape="http://www.inkscape.org/namespaces/inkscape"
   xmlns:sodipodi="http://sodipodi.sourceforge.net/DTD/sodipodi-0.dtd"
   xmlns="http://www.w3.org/2000/svg"
   xmlns:svg="http://www.w3.org/2000/svg">
  <defs
     id="defs4" />
  <sodipodi:namedview
     id="namedview4"
     pagecolor="#505050"
     bordercolor="#eeeeee"
     borderopacity="1"
     inkscape:showpageshadow="0"
     inkscape:pageopacity="0"
     inkscape:pagecheckerboard="0"
     inkscape:deskcolor="#505050"
     inkscape:zoom="1.3065405"
     inkscape:cx="-58.934263"
     inkscape:cy="32.528651"
     inkscape:window-width="1920"
     inkscape:window-height="1009"
     inkscape:window-x="3832"
     inkscape:window-y="-8"
     inkscape:window-maximized="1"
     inkscape:current-layer="svg4" />
  <path
     fill="#886d35"
     fill-rule="evenodd"
     d="m 198.41526,178.23491 q 4.07104,-11.1323 -2.31601,-24.08652 l -0.20072,-0.386 -0.20587,-0.37571 -0.22131,-0.37571 -0.2316,-0.36542 -0.24189,-0.36026 -0.25219,-0.35513 -0.25733,-0.34482 -0.27793,-0.33969 -0.28306,-0.32938 -0.28822,-0.3191 -0.30365,-0.3088 -0.3088,-0.3088 -0.3191,-0.28822 -0.32939,-0.28821 -0.33453,-0.27278 -0.34483,-0.26248 -0.34998,-0.25733 -0.36026,-0.2419 -0.36542,-0.2316 -0.37571,-0.22131 -0.37571,-0.21101 -0.386,-0.20072 -0.39115,-0.19043 -0.39629,-0.17499 -0.40144,-0.16469 -0.40659,-0.1544 -0.41174,-0.13896 -0.41173,-0.12867 -0.41689,-0.11837 -0.42202,-0.10294 -0.42203,-0.0926 -0.42718,-0.0772 q -5.15184,-0.87493 -10.26765,-2.21307 1.38961,-3.87546 2.69687,-7.98252 0.39115,-0.69995 0.71024,-1.44108 0.3088,-0.73083 0.54555,-1.50283 0.2316,-0.76686 0.38086,-1.5543 0.14925,-0.78745 0.21101,-1.58518 3.09831,-10.65366 6.9995,-27.3804 0.0772,-0.34483 0.14411,-0.69995 l 0.11323,-0.71539 q 0.0463,-0.36027 0.0772,-0.72054 l 0.0412,-0.720545 q 0.0103,-0.36027 0,-0.72053 0,-0.36027 -0.0257,-0.72054 -0.0257,-0.36027 -0.0669,-0.720538 -0.0412,-0.355122 -0.0978,-0.710244 -0.0566,-0.360268 -0.13381,-0.710243 -0.0772,-0.349975 -0.16984,-0.69995 -0.0926,-0.349975 -0.20587,-0.694803 -0.11323,-0.344829 -0.23675,-0.679364 -0.12352,-0.334535 -0.26763,-0.66907 -0.1441,-0.334535 -0.3088,-0.65363 -0.16469,-0.319094 -0.32939,-0.638189 -0.17498,-0.319095 -0.36541,-0.62275 -0.19043,-0.308802 -0.3963,-0.602163 -0.20586,-0.293361 -0.42717,-0.586723 -0.22131,-0.283068 -0.45291,-0.560989 -0.2316,-0.272775 -0.47864,-0.540403 l -0.50438,-0.514669 q -0.25733,-0.247041 -0.53525,-0.488936 -0.26763,-0.236748 -0.5507,-0.463202 -0.28307,-0.221308 -0.57643,-0.432322 l -0.59702,-0.406589 q -0.30365,-0.195574 -0.6176,-0.375708 -0.3088,-0.180135 -0.63304,-0.344829 -0.3191,-0.164694 -0.64849,-0.313948 -0.32938,-0.149254 -0.66392,-0.283068 -0.33453,-0.133814 -0.67936,-0.247041 -0.34483,-0.113227 -0.68451,-0.216161 -0.33968,-0.102934 -0.69995,-0.180134 l -3.99384,-0.931552 1.73444,-10.622772 q 0,-0.04117 0.0103,-0.0772 0.0566,-0.360268 0.0978,-0.720537 0.036,-0.360268 0.0566,-0.720537 0.0206,-0.360268 0.0257,-0.720536 l -0.0103,-0.720537 q -0.0154,-0.360269 -0.0515,-0.720537 -0.0309,-0.360269 -0.0772,-0.71539 -0.0515,-0.360269 -0.11838,-0.710244 -0.0669,-0.360268 -0.1544,-0.705097 -0.0823,-0.355121 -0.18528,-0.69995 -0.10293,-0.344828 -0.22131,-0.68451 -0.11837,-0.339681 -0.25733,-0.679363 -0.12867,-0.334535 -0.28307,-0.658777 -0.1544,-0.329388 -0.31909,-0.648483 -0.1647,-0.319095 -0.34998,-0.633043 -0.18013,-0.308801 -0.38085,-0.612456 -0.20073,-0.303655 -0.41174,-0.59187 -0.21101,-0.288214 -0.43747,-0.576429 -0.22645,-0.277921 -0.4632,-0.550696 -0.24189,-0.267628 -0.49408,-0.524963 -0.25734,-0.257334 -0.51982,-0.504376 -0.26763,-0.241894 -0.5404,-0.473495 -0.27792,-0.231601 -0.56614,-0.447762 -0.28821,-0.221308 -0.58672,-0.422029 -0.29851,-0.200721 -0.60731,-0.391149 -0.3088,-0.190427 -0.62275,-0.360268 -0.31909,-0.174988 -0.64334,-0.334535 -0.32424,-0.154401 -0.65877,-0.293361 -0.32939,-0.144108 -0.66907,-0.267628 -0.33968,-0.123521 -0.68451,-0.231602 -0.34483,-0.10808 -0.69481,-0.200721 l -0.69995,-0.164694 q -0.35512,-0.07205 -0.71024,-0.128667 l -0.5507,-0.08749 0.27793,-1.41534 0.0103,-0.05661 q 0.072,-0.360268 0.12352,-0.71539 0.0515,-0.360268 0.0824,-0.71539 0.036,-0.360268 0.0515,-0.720537 0.0154,-0.360268 0.0154,-0.720537 0,-0.360268 -0.0206,-0.720536 -0.0206,-0.360269 -0.0566,-0.720537 -0.036,-0.360269 -0.0926,-0.720537 -0.0515,-0.349975 -0.12866,-0.705097 -0.0721,-0.355122 -0.15441,-0.705097 -0.0926,-0.349975 -0.20072,-0.694803 -0.10293,-0.344828 -0.2316,-0.68451 -0.11837,-0.339682 -0.25733,-0.66907 -0.14411,-0.334535 -0.29851,-0.658777 -0.1544,-0.329388 -0.32939,-0.643336 -0.16984,-0.319095 -0.36027,-0.627896 -0.18528,-0.308802 -0.386,-0.60731 -0.20072,-0.298508 -0.41688,-0.59187 -0.21616,-0.293361 -0.44776,-0.566136 -0.2316,-0.272774 -0.4735,-0.545549 -0.24189,-0.272775 -0.49923,-0.514669 -0.25733,-0.241895 -0.52496,-0.499229 -0.26763,-0.257335 -0.5507,-0.468349 -0.28306,-0.211015 -0.56613,-0.442616 -0.28307,-0.231601 -0.59702,-0.411735 -0.31395,-0.180134 -0.60731,-0.386002 -0.29336,-0.205868 -0.63304,-0.349975 -0.33968,-0.144107 -0.64334,-0.324242 -0.30365,-0.180134 -0.66392,-0.288214 l -0.66907,-0.257335 q -0.34483,-0.118374 -0.68966,-0.221308 -0.34483,-0.102934 -0.6948,-0.190427 -0.34998,-0.08749 -0.7051,-0.154401 l -6.58776,-1.281526 -0.0926,-0.01544 q -0.58158,-1.286673 -1.40505,-2.444679 -0.20587,-0.293361 -0.43232,-0.57643 -0.22131,-0.283068 -0.45806,-0.555842 -0.23675,-0.272775 -0.48379,-0.53011 L 139.32622,31.6829 q -0.26248,-0.241894 -0.53525,-0.478642 -0.27792,-0.236748 -0.56099,-0.458056 l -0.58158,-0.427175 q -0.29851,-0.205868 -0.60216,-0.396295 l -0.6176,-0.370562 q -0.3191,-0.174988 -0.63819,-0.334535 -0.32425,-0.164694 -0.65363,-0.308802 -0.33454,-0.144107 -0.66907,-0.272774 -0.33969,-0.128668 -0.67937,-0.241895 -0.34483,-0.10808 -0.6948,-0.205867 -0.34483,-0.09264 -0.69995,-0.169841 -0.34998,-0.08235 -0.71024,-0.138961 l -6.61865,-1.121979 q -0.33968,-0.06176 -0.68451,-0.102934 l -0.18528,-0.401442 -0.20587,-0.401441 -0.20587,-0.391149 -0.22645,-0.386002 -0.2316,-0.380855 -0.24704,-0.370562 -0.25734,-0.365415 -0.27277,-0.360269 q -0.13382,-0.174987 -0.27792,-0.344828 l -0.28822,-0.339682 -0.29851,-0.329388 -0.3088,-0.324241 -0.32424,-0.308802 -0.32424,-0.303655 -0.33968,-0.288214 -0.34483,-0.283068 q -0.17499,-0.138961 -0.36027,-0.272775 l -0.36027,-0.257335 q -0.18013,-0.128667 -0.37056,-0.247041 l -0.37571,-0.241894 -0.386,-0.221308 -0.39115,-0.216161 -0.39629,-0.205868 -0.40659,-0.185281 -0.41174,-0.180134 -0.41173,-0.164694 -0.41688,-0.154401 -0.42718,-0.138961 -0.42718,-0.12352 q -0.21101,-0.06176 -0.43232,-0.113227 l -0.43232,-0.102934 -0.43747,-0.08749 -6.59806,-1.209473 q -0.772,-0.144107 -1.56459,-0.205867 -0.78745,-0.05147 -1.57489,-0.03088 -0.79259,0.02573 -1.57489,0.13896 -0.78229,0.113227 -1.544,0.308802 -0.34998,-0.272775 -0.71025,-0.519816 -0.360394,-0.247093 -0.736102,-0.473548 -0.375709,-0.226454 -0.761711,-0.427175 -0.386001,-0.205868 -0.787443,-0.386002 -0.396296,-0.180134 -0.808031,-0.334535 -0.411735,-0.154401 -0.823471,-0.288215 -0.411735,-0.133814 -0.844057,-0.236748 -0.432322,-0.102933 -0.854351,-0.185281 l -6.598059,-1.235206 -0.05147,-0.0051 q -0.880084,-0.164694 -1.775608,-0.216161 -0.895525,-0.05147 -1.785903,0 Q 83.963133,12.552599 83.700652,12.264384 83.443317,11.976169 83.165396,11.698248 82.892621,11.425473 82.59926,11.162992 82.316192,10.905658 82.012537,10.658616 81.708882,10.416722 81.394934,10.185121 81.086132,9.958666 80.756744,9.747652 80.427356,9.536638 80.092821,9.335917 79.753139,9.145489 79.408311,8.970501 79.063482,8.795514 78.708361,8.635966 L 77.987824,8.337458 Q 77.627555,8.203644 77.256994,8.080124 76.886432,7.96175 76.510723,7.863963 76.135015,7.7661755 75.75416,7.6838285 75.373304,7.6014814 74.987302,7.5448678 74.601301,7.4882542 74.215299,7.4470806 73.829297,7.4059071 73.443295,7.3956137 L 66.742302,7.0765188 Q 65.507096,7.0250519 64.28733,7.1691593 64.040289,6.973585 63.782954,6.7883041 L 63.263139,6.4331823 62.727883,6.0986474 Q 62.455108,5.9390999 62.177187,5.7898459 61.899265,5.6405918 61.611051,5.5016311 61.322836,5.3626705 61.039768,5.2442965 60.7567,5.1259226 60.453045,5.002402 L 59.856029,4.7965344 Q 59.55752,4.6936005 59.253866,4.6061068 58.950211,4.518613 58.641409,4.451706 58.332608,4.384799 58.023806,4.3127453 57.715005,4.2406916 57.406203,4.2098115 57.087108,4.1583446 56.77316,4.1274644 56.464359,4.0914376 56.145264,4.0759975 55.831316,4.0554107 55.512221,4.0451174 h -0.627897 l -6.711286,0.1595474 h -0.01029 Q 46.865779,4.235545 45.589399,4.4980262 45.316624,4.317892 45.02841,4.1531979 44.740195,3.9885037 44.446833,3.8392497 44.153472,3.6848489 43.854964,3.5458883 43.556456,3.4069276 43.252801,3.2885537 42.949146,3.1701798 42.635198,3.0466592 42.32125,2.9231385 42.007301,2.8407915 41.693353,2.7584444 41.374258,2.6606573 41.055163,2.5628701 40.730922,2.5062565 L 40.082439,2.3878826 q -0.324242,-0.051467 -0.65363,-0.09264 l -0.658777,-0.06176 Q 38.440644,2.2077484 38.111256,2.197455 h -0.658777 q -0.329388,0 -0.658776,0.025733 l -0.658777,0.051467 q -0.329388,0.036027 -0.65363,0.087494 l -6.634085,1.0087516 h -0.01029 q -0.360268,0.056614 -0.71539,0.1286673 -0.349975,0.072054 -0.69995,0.1595475 -0.349975,0.087494 -0.694803,0.1955743 -0.344829,0.1080805 -0.684511,0.2316011 -0.339681,0.1235206 -0.669069,0.2624813 -0.334535,0.1389606 -0.663924,0.2985081 -0.324241,0.1544007 -0.643336,0.3242416 -0.313948,0.1749875 -0.62275,0.3602684 -0.308801,0.1852809 -0.607309,0.3911486 -0.303655,0.200721 -0.59187,0.4117353 -0.288215,0.2213078 -0.566136,0.4529089 -0.277922,0.2264544 -0.545549,0.4734956 -0.262482,0.2418946 -0.51467,0.4992292 -0.252188,0.2573341 -0.499229,0.5249621 -0.247041,0.267628 -0.463202,0.550696 -0.216161,0.283069 -0.447762,0.566137 -0.231601,0.283068 -0.411736,0.597016 -0.180134,0.3139481 -0.380855,0.6124561 -0.200721,0.298508 -0.355121,0.627897 -0.154401,0.329388 -0.319095,0.643336 -0.154401,0.329388 -0.293362,0.663923 -0.133814,0.334535 -0.257334,0.674217 -0.118374,0.339682 -0.221308,0.68451 -0.102934,0.349975 -0.185281,0.69995 -0.08749,0.349975 -0.154401,0.705097 -0.07205,0.355121 -0.12352,0.710243 -0.05147,0.360269 -0.08235,0.720537 -0.03603,0.360268 -0.05147,0.720537 -0.01544,0.360268 -0.01544,0.720537 0,0.360268 0.02059,0.720537 0.02059,0.360268 0.05661,0.720536 0.04117,0.360269 0.09264,0.710244 l 0.174988,1.106539 -5.584161,2.758626 -0.01029,0.0051 q -0.319095,0.159548 -0.63819,0.334535 -0.308801,0.174988 -0.6176029,0.370562 -0.3088015,0.195574 -0.6021629,0.396295 -0.2985082,0.205868 -0.5867229,0.427176 -0.2830681,0.216161 -0.5609894,0.452908 -0.2727747,0.231602 -0.535256,0.478643 -0.2624812,0.247041 -0.5146691,0.509522 -0.2521879,0.262482 -0.4889358,0.53011 -0.2367478,0.267628 -0.4632022,0.555842 -0.2264545,0.288215 -0.4323221,0.57643 -0.2058677,0.293361 -0.401442,0.597016 -0.1955743,0.303655 -0.3757085,0.617603 -0.1801342,0.313948 -0.3448283,0.633043 -0.1646942,0.319095 -0.3139482,0.648483 -0.1492541,0.329389 -0.2830681,0.66907 -0.1286673,0.334535 -0.2470412,0.674217 -0.1132272,0.344828 -0.2110144,0.689657 -0.1029338,0.349975 -0.1801342,0.69995 -0.0772,0.349975 -0.149254,0.705096 -0.06176,0.360269 -0.1080806,0.715391 -0.051467,0.360268 -0.0772,0.720536 l -0.041174,0.720537 q -0.010293,0.360269 0,0.720537 0,0.360269 0.025734,0.720537 0.025733,0.360268 0.066907,0.720537 0.041174,0.360268 0.1029338,0.710243 0.056614,0.360269 0.133814,0.710244 0.0772,0.355121 0.1749875,0.69995 0.09264,0.349975 0.2058677,0.694803 0.1029338,0.344829 0.2367478,0.679364 0.1286673,0.339681 0.2727747,0.669069 0.1441074,0.329389 0.3036548,0.65363 1.4513671,2.938761 3.2527092,5.687095 -0.2933614,0.370562 -0.5661361,0.756563 L 3.3093258,55.645849 Q 3.1343383,55.898037 2.9696442,56.155372 2.80495,56.412706 2.655696,56.670041 L 2.3571878,57.205297 2.0844132,57.750846 Q 1.9557459,58.023621 1.837372,58.306689 1.7189981,58.58461 1.6109175,58.872825 l -0.2058676,0.566136 -0.1801343,0.586723 -0.1544007,0.586723 q -0.0720537,0.298508 -0.12866731,0.597016 l -0.10293384,0.597016 q -0.0514669,0.298509 -0.0823471,0.602163 -0.0360268,0.303655 -0.0566136,0.60731 l -0.0308801,0.60731 q -0.0102934,0.308801 -0.005147,0.607309 0,0.308802 0.0205868,0.612457 0.0154401,0.303654 0.0411735,0.602162 0.0308801,0.308802 0.0720537,0.60731 0.0411735,0.303655 0.0926404,0.602163 0.0514669,0.298508 0.11837395,0.597016 0.066907,0.293362 0.1492541,0.59187 0.0772,0.293361 0.1646941,0.581576 0.09264,0.293361 0.1955743,0.57643 0.1029338,0.288214 0.216161,0.566136 0.1132273,0.288214 0.2367479,0.566136 l 0.2624812,0.545549 q 0.1389607,0.272775 0.2882148,0.540403 0.1441074,0.262481 0.3088015,0.524962 0.1544007,0.257335 0.3242416,0.514669 0.1698408,0.252188 0.349975,0.494083 0.1801342,0.247041 0.3705618,0.483789 0.1904276,0.236748 0.3911486,0.468349 -0.4632023,0.838911 -0.8080306,1.724142 l -2.4498253,6.248083 -0.00515,0.02059 -0.24704124,0.679364 q -0.11322722,0.344828 -0.20586767,0.689656 -0.10293383,0.349975 -0.18013421,0.69995 -0.0772004,0.349975 -0.14410737,0.710244 -0.0617603,0.355121 -0.10808053,0.710243 -0.05146692,0.360269 -0.07720038,0.720537 -0.02573345,0.360269 -0.03602684,0.720537 -0.01029338,0.360268 0,0.720537 0.00514669,0.360268 0.03088015,0.720537 0.02573346,0.360268 0.066907,0.720536 0.0463202,0.360269 0.10293383,0.710244 0.0617603,0.360268 0.13896068,0.710243 0.0772004,0.355122 0.17498752,0.699951 0.0926405,0.349975 0.20586767,0.694803 0.11322722,0.339682 0.24189452,0.679363 0.12866737,0.334535 0.27277467,0.66907 0.1389607,0.313948 0.2933615,0.627897 0.1544007,0.308801 0.3242415,0.612456 0.1698409,0.303655 0.3499751,0.597016 0.1801342,0.293362 0.3808552,0.581576 0.200721,0.288215 0.4117353,0.566136 0.2110144,0.277922 0.4271754,0.540403 0.2264545,0.262481 0.4632023,0.519816 0.2316011,0.257334 0.4786423,0.499229 0.2470412,0.241895 0.5043758,0.478645 0.2573346,0.23675 0.5249626,0.44776 0.267628,0.21101 0.550696,0.42718 0.2830681,0.21616 0.5661361,0.40144 0.2830681,0.18528 0.5867229,0.37056 0.3036548,0.18528 0.6021629,0.34483 L 8.3222,100.28826 q 0.3088015,0.14926 0.6330431,0.28307 -0.216161,0.89038 -0.3242416,1.80134 l -0.7617103,6.66497 q -0.041174,0.386 -0.066907,0.772 -0.025733,0.386 -0.025733,0.772 0,0.386 0.010293,0.77715 0.020587,0.39115 0.056614,0.77201 0.036027,0.39115 0.097787,0.772 0.051467,0.386 0.133814,0.76171 0.0772,0.38086 0.1749876,0.75656 0.097787,0.37571 0.216161,0.74627 0.1183739,0.37057 0.2573346,0.73084 0.1389607,0.36026 0.2882147,0.72053 0.1492541,0.36027 0.3293883,0.69995 0.1801342,0.33968 0.3705618,0.68451 0.1904276,0.34483 0.4014418,0.66393 0.211015,0.31909 0.437469,0.63819 0.226455,0.31909 0.463202,0.6176 0.236748,0.29851 0.504376,0.59187 -0.221308,1.26608 -0.221308,2.54761 v 6.72673 l 0.01029,0.57128 0.03603,0.57643 q 0.02059,0.28307 0.05661,0.56612 l 0.0772,0.5713 0.102934,0.56612 q 0.05147,0.28307 0.12352,0.56099 l 0.144108,0.55585 0.164694,0.55069 q 0.08749,0.27278 0.190427,0.5404 l 0.205868,0.53526 q 0.10808,0.26248 0.231601,0.52496 l 0.247041,0.51467 q 0.128668,0.25734 0.272775,0.50952 0.144107,0.25219 0.288215,0.49409 0.144107,0.24189 0.308801,0.48379 0.154401,0.24189 0.324242,0.47349 l 0.344828,0.4632 0.360269,0.44262 0.386001,0.42717 q 0.195575,0.21102 0.396296,0.41174 l 0.411735,0.40144 q 0.205868,0.20072 0.427175,0.386 0.216162,0.18528 0.442616,0.36542 0.226454,0.18013 0.458056,0.34998 l 0.463202,0.32938 0.483789,0.3088 q 0.247041,0.1544 0.494082,0.29337 0.252188,0.14411 0.509523,0.27792 l 0.514669,0.25218 0.524962,0.23161 q 0.262482,0.11322 0.53011,0.21101 0.267628,0.0978 0.540402,0.19043 l 0.04117,2.4138 q 0,0.36026 0.02573,0.72053 0.02573,0.36027 0.06691,0.72054 0.04117,0.36027 0.09779,0.71024 0.05661,0.36027 0.133814,0.71025 0.07205,0.35512 0.169841,0.69995 0.09264,0.34997 0.200721,0.6948 0.108081,0.34483 0.236748,0.68451 l 0.267628,0.66907 q 0.144107,0.32939 0.308802,0.65363 0.1544,0.32424 0.329388,0.63819 0.174987,0.31395 0.360268,0.62275 0.195575,0.3088 0.401442,0.60216 0.205868,0.29336 0.422029,0.58673 0.221308,0.28306 0.452909,0.56098 0.231601,0.27793 0.478642,0.54041 0.247041,0.26248 0.504376,0.51467 0.257335,0.25218 0.530109,0.48893 0.272775,0.23675 0.555843,0.4632 0.283068,0.22646 0.576429,0.43747 l 0.59187,0.40659 q 0.308801,0.19558 0.617603,0.37571 0.308802,0.18013 0.633043,0.34483 0.319095,0.16469 0.648483,0.31395 0.329389,0.1544 0.66907,0.28307 0.329388,0.13381 0.66907,0.25218 0.344828,0.11323 0.694804,0.21616 0.344828,0.0978 0.694803,0.18014 0.349975,0.0823 0.705097,0.14925 l 0.71539,0.11323 q 0.360268,0.0463 0.720537,0.0772 0.360268,0.0309 0.720537,0.0412 0.360268,0.0103 0.720536,0.005 1.801343,-0.0257 3.628418,-0.0926 v 0.0618 l 0.04117,0.72054 q 0.03088,0.36027 0.0772,0.72053 0.05147,0.36027 0.113227,0.71025 0.06691,0.35512 0.149254,0.70509 0.08235,0.35513 0.180135,0.69995 l 0.216161,0.68966 q 0.118373,0.33968 0.252187,0.67422 0.133814,0.33968 0.283069,0.66907 0.149254,0.32424 0.313948,0.64848 0.164694,0.3191 0.344828,0.63304 0.180134,0.30881 0.375709,0.61761 0.200721,0.2985 0.411735,0.59187 0.205868,0.29336 0.432322,0.57643 0.226454,0.28306 0.463202,0.55069 0.236748,0.26763 0.488936,0.53011 l 0.514669,0.50952 q 0.267628,0.24704 0.540403,0.47865 0.277921,0.2316 0.566136,0.4529 0.283068,0.21617 0.581576,0.42203 0.298508,0.20587 0.602163,0.3963 0.308802,0.19043 0.62275,0.36541 0.319095,0.17499 0.63819,0.33454 l 0.658776,0.30365 q 0.329388,0.13896 0.66907,0.26763 0.339682,0.12867 0.679363,0.23675 0.339682,0.10808 0.694804,0.20587 0.355121,0.0978 0.69995,0.16469 0.355122,0.0772 0.710243,0.13382 0.360269,0.0618 0.720537,0.10293 0.355122,0.036 0.71539,0.0618 0.360269,0.0206 0.720537,0.0257 0.360269,0.0103 0.720537,0 2.789507,-0.10293 5.620187,-0.31909 0.08235,0.32424 0.180135,0.63819 0.09264,0.31909 0.205867,0.62789 0.108081,0.31395 0.231601,0.61762 0.123521,0.30879 0.262482,0.61244 0.13896,0.30367 0.288214,0.59187 0.149255,0.28822 0.313949,0.58159 0.164694,0.29336 0.344828,0.56613 0.180134,0.27277 0.360268,0.55584 l 0.396296,0.53525 0.411735,0.51467 q 0.216161,0.25219 0.437469,0.49409 0.226454,0.24704 0.463202,0.47864 0.231601,0.2316 0.478642,0.45291 0.241895,0.22645 0.49923,0.43747 l 0.514669,0.41173 0.540402,0.386 q 0.272775,0.18528 0.555843,0.36027 0.277921,0.17499 0.566136,0.33454 0.288215,0.16469 0.586723,0.3088 0.293361,0.1544 0.597016,0.28821 l 0.60731,0.25734 q 0.308801,0.12352 0.62275,0.2316 l 0.633043,0.20072 q 0.313948,0.0926 0.63819,0.16984 0.319094,0.0823 0.643336,0.14411 0.324242,0.0618 0.65363,0.11837 0.329388,0.0566 0.65363,0.0823 0.324241,0.0257 0.658776,0.0515 0.334535,0.0257 0.663924,0.0309 h 0.663923 l 0.658776,-0.036 q 0.329389,-0.0257 0.658777,-0.0669 7.174488,-0.85435 14.132816,-2.09985 0.08235,0.31395 0.180134,0.6279 l 0.205867,0.6176 0.236748,0.60216 q 0.123521,0.29851 0.257335,0.59187 0.133814,0.29336 0.293361,0.58158 0.159548,0.28821 0.308802,0.56614 0.149254,0.27792 0.339681,0.56098 0.190428,0.28307 0.360269,0.53526 l 0.386002,0.52496 q 0.200721,0.25734 0.411735,0.50438 0.205868,0.24704 0.427175,0.48379 0.221308,0.24189 0.452909,0.46835 0.231602,0.2316 0.473496,0.44776 0.236748,0.21616 0.488936,0.42717 0.252188,0.20587 0.509522,0.40145 0.257335,0.19557 0.524963,0.38085 0.267628,0.18528 0.545549,0.36027 0.277921,0.17499 0.555843,0.32939 l 0.571283,0.3088 q 0.288214,0.14411 0.586722,0.27792 0.293362,0.13896 0.597017,0.25734 0.298508,0.12352 0.60731,0.2316 l 0.6176,0.20072 q 0.3088,0.0926 0.62275,0.17499 0.31395,0.0823 0.63305,0.1441 l 0.63818,0.12352 q 0.3191,0.0515 0.64334,0.0875 0.32424,0.036 0.64848,0.0618 0.32425,0.0257 0.64849,0.036 0.32424,0.0103 0.64848,0 0.32424,0 0.64848,-0.0206 l 0.64849,-0.0515 q 9.73754,-1.0036 20.73602,-4.36439 0.76686,-0.0824 1.51827,-0.24705 0.75657,-0.15954 1.49254,-0.40144 0.73083,-0.24189 1.43593,-0.56099 0.7051,-0.31394 1.36902,-0.70509 4.14823,-1.45137 9.017,-3.39682 12.01238,6.50027 24.78647,12.06385 0.3088,0.13381 0.62275,0.25733 0.31395,0.11837 0.63819,0.22131 l 0.64334,0.20072 0.64848,0.16469 q 0.32939,0.0772 0.66392,0.13896 0.32939,0.0566 0.66393,0.10294 0.33453,0.0463 0.66907,0.0772 0.33453,0.0309 0.66907,0.0463 0.33453,0.0154 0.67421,0.0154 0.33969,0 0.66907,-0.0206 0.32939,-0.0206 0.67422,-0.0463 0.33968,-0.0309 0.66907,-0.0772 l 0.66907,-0.10293 0.65878,-0.14411 q 0.32424,-0.0772 0.64848,-0.16984 0.32424,-0.0875 0.64334,-0.19558 0.57128,-0.19042 1.12712,-0.42717 15.40405,-6.38705 19.79418,-18.38398"
     id="path1"
     style="stroke-width:5.14669" />
  <path
     fill="#a88642"
     fill-rule="evenodd"
     d="m 182.90828,160.65895 c 4.45703,9.02215 3.43284,16.89659 -10.06178,22.43958 a 308.80151,308.80151 0 0 1 -29.70671,-14.87394 c -5.72312,2.41895 -11.48227,4.73496 -17.29803,6.64953 l -0.0823,0.33453 -0.54555,-0.12352 c -6.62893,2.15132 -13.32993,3.77767 -20.10812,4.47762 l -0.6948,-6.67526 a 72.053685,72.053685 0 0 0 7.5399,-1.18888 190.4276,190.4276 0 0 1 -14.235747,-4.72467 c -7.565636,1.70356 -15.131273,2.96965 -22.686617,3.87032 l -0.797737,-6.66497 a 226.45444,226.45444 0 0 0 12.408674,-1.82707 149.25406,149.25406 0 0 1 -9.938262,-5.00259 128.66729,128.66729 0 0 1 -22.043281,2.73804 l -0.226455,-6.70099 a 118.37391,118.37391 0 0 0 13.576973,-1.28667 118.37391,118.37391 0 0 1 -10.828639,-7.98767 154.40075,154.40075 0 0 1 -21.070556,1.80134 l -0.102934,-6.70614 a 144.10737,144.10737 0 0 0 14.621751,-0.98816 97.787144,97.787144 0 0 1 -8.404547,-9.28978 c -5.39888,0.5404 -10.808053,0.83891 -16.222373,0.84406 v -6.71129 q 5.805468,-0.005 11.62123,-0.4632 a 90.067106,90.067106 0 0 1 -6.304697,-11.06539 190.4276,190.4276 0 0 1 -8.83687,-0.82347 l 0.76171,-6.66497 q 2.557906,0.29337 5.115812,0.51467 a 87.493761,87.493761 0 0 1 -3.962953,-14.189431 128.66729,128.66729 0 0 1 -9.691221,-3.32991 l 2.444679,-6.248084 q 3.108602,1.209473 6.17603,2.228518 A 92.640452,92.640452 0 0 1 22.974885,68.651539 66.906993,66.906993 0 0 1 15.368075,64.06069 l 3.834285,-5.496666 q 2.192491,1.528567 4.431302,2.81524 0.82347,-6.381898 2.480705,-12.732916 A 41.688204,41.688204 0 0 1 17.632569,37.184666 l 6.016483,-2.974788 c 1.240353,2.511586 2.835827,4.858477 4.698929,7.009794 1.405047,-4.13794 3.088015,-8.234707 5.002585,-12.285153 A 108.08053,108.08053 0 0 1 31.060288,17.910305 l 6.634086,-1.013898 q 0.710243,4.668049 1.883689,9.336099 4.508502,0.13896 8.939804,0.483789 a 154.40075,154.40075 0 0 0 0,-7.807532 l 6.711286,-0.1544 q 0.102934,4.297487 -0.01029,8.589828 5.239333,0.597016 10.344851,1.492541 0.319095,-3.520337 0.488936,-7.071555 l 6.700992,0.313948 a 169.84083,169.84083 0 0 1 -0.571283,8.033986 159.54745,159.54745 0 0 1 11.899152,3.051989 l 1.029338,-5.630481 6.603206,1.235206 q -0.597016,3.221829 -1.183739,6.459098 a 138.96068,138.96068 0 0 1 12.187354,4.889357 q 0.82348,-4.348954 1.62636,-8.703056 l 6.59806,1.209473 q -0.96758,5.280506 -1.97633,10.561011 6.2944,3.288737 12.04326,7.205369 0.82347,-4.565116 1.59547,-9.135378 l 6.62379,1.121979 q -1.05507,6.20691 -2.21307,12.403527 5.48122,4.302634 10.29338,9.238312 1.31755,-6.634086 2.59908,-13.263025 l 6.58777,1.281526 a 1868.2491,1868.2491 0 0 1 -3.61298,18.203849 97.787144,97.787144 0 0 1 7.63769,10.669092 q 0.89038,-5.501813 1.74987,-11.024213 l 6.63409,1.039631 c -1.02934,6.531152 -2.07412,13.072597 -3.20124,19.608896 a 97.787144,97.787144 0 0 1 6.90171,20.380907 q 1.65209,-6.59806 3.1961,-13.278472 l 6.53115,1.528567 c -2.23367,9.577995 -4.54968,19.181725 -7.3958,28.631055 l 0.0566,0.95213 -0.34483,0.0257 c -2.51159,8.2347 -5.43491,16.34589 -9.07877,24.22033 a 138.96068,138.96068 0 0 0 27.33923,7.66342 m -73.39183,3.29389 q 7.26199,2.29027 15.27024,4.15338 a 205.86767,205.86767 0 0 0 11.10656,-4.16882 277.92136,277.92136 0 0 1 -9.10964,-5.80547 q -8.63101,3.34535 -17.26716,5.82605 m -11.32271,-3.9681 c 7.28771,-1.71384 14.56513,-3.86002 21.8477,-6.49512 a 257.33459,257.33459 0 0 1 -8.88834,-6.58777 c -8.04942,2.99023 -16.191483,5.80032 -24.523977,8.05458 q 5.49152,2.66084 11.554323,5.02831 z m 51.18384,-9.59343 c 3.48946,-7.52446 6.33043,-15.35258 8.78541,-23.38142 a 97.787144,97.787144 0 0 0 -4.70408,-24.15343 c -2.86671,14.73498 -6.4591,29.41335 -11.70872,43.8807 q 3.78796,1.94545 7.62739,3.65415 m -83.335224,-7.83326 q 5.419467,4.0453 11.713871,7.6943 c 9.197138,-2.07412 18.245022,-5.00258 27.272313,-8.27073 a 241.89451,241.89451 0 0 1 -8.414835,-7.28257 c -10.020609,2.98508 -20.159591,5.79517 -30.571349,7.86414 m 59.819994,-5.17242 q 4.90994,3.263 9.91767,6.11427 c 6.0731,-16.98409 9.87136,-34.43137 12.96967,-52.099969 a 87.493761,87.493761 0 0 0 -7.65313,-12.588809 c -4.1328,19.475083 -8.88319,39.011928 -15.23421,58.569358 m -75.707831,-9.42359 a 97.787144,97.787144 0 0 0 9.001564,9.017 c 10.735999,-1.81678 21.255837,-4.58055 31.770528,-7.63769 a 226.45444,226.45444 0 0 1 -8.425134,-8.61556 c -10.746293,3.16007 -21.528612,5.67165 -32.346958,7.23625 m 58.095851,-3.84973 a 190.4276,190.4276 0 0 0 11.83739,9.28978 c 6.51571,-20.40663 11.33816,-40.849297 15.57904,-61.353717 a 95.728467,95.728467 0 0 0 -10.08752,-9.799301 c -4.12765,20.823515 -9.40301,41.533808 -17.32891,61.863238 M 39.207501,112.24917 q 2.6454,4.9048 6.057656,9.58829 c 10.725706,-1.30726 21.487439,-3.62327 32.280051,-6.65982 a 211.01436,211.01436 0 0 1 -4.76069,-5.71283 166.23815,166.23815 0 0 1 -33.767444,2.41895 z m 53.448394,-2.80495 a 221.30775,221.30775 0 0 0 10.216185,9.94856 c 7.65827,-20.175035 12.7432,-40.833859 16.77821,-61.760308 a 113.22722,113.22722 0 0 0 -12.02782,-7.570783 c -3.92692,19.742709 -8.543503,39.536886 -14.966575,59.382531 m -56.881237,-4.37468 q 4.318074,0.20586 8.625855,0.19042 a 159.54745,159.54745 0 0 0 23.715956,-1.83222 q -2.938761,-3.932075 -5.717975,-8.054577 -1.121978,0.03088 -2.233664,0.03603 A 121.46193,121.46193 0 0 1 31.647011,92.310882 q 1.513127,6.500273 4.127647,12.758658 M 76.397496,90.828634 q 5.393733,6.809074 10.993334,12.995406 C 93.314672,84.899645 97.65848,65.92894 101.40527,46.906767 A 133.81399,133.81399 0 0 0 89.310546,41.940209 C 86.325465,58.306689 83.031582,74.81213 76.397496,90.833781 M 30.298578,85.07978 c 9.171404,2.398358 18.281049,3.53063 27.802429,3.612977 A 195.57429,195.57429 0 0 1 51.827189,77.781771 C 44.43654,76.330404 36.932663,74.626849 29.547161,71.672648 c -0.102934,4.503355 0.13896,8.986123 0.751417,13.407132 M 63.803541,73.58207 a 298.50812,298.50812 0 0 0 7.838412,11.039654 C 77.12318,70.200694 80.082527,55.120887 82.872034,39.824919 A 154.40075,154.40075 0 0 0 71.425792,36.850131 C 69.79429,49.387472 66.989343,61.569692 63.798395,73.58207 M 29.989776,64.585653 c 5.805468,2.532172 11.806511,4.189407 17.961954,5.53784 A 195.57429,195.57429 0 0 1 43.1756,59.25368 50.43758,50.43758 0 0 1 31.868319,53.376158 92.640452,92.640452 0 0 0 29.989776,64.585653 M 51.286787,53.576879 Q 54.976965,59.96907 58.82669,66.00614 C 61.358863,55.939211 63.51018,45.820815 64.827733,35.548018 A 169.84083,169.84083 0 0 0 54.853444,34.091504 C 54.318188,40.674123 53.22709,47.189835 51.286787,53.576879 M 33.752008,46.371511 c 1.883689,1.487394 3.911486,2.7998 6.031923,3.952659 A 200.72098,200.72098 0 0 1 36.2533,39.217609 q -1.389607,3.566658 -2.501292,7.153902 m 10.9676,-4.69893 q 0.890378,1.677822 1.785902,3.335056 c 0.792591,-3.787965 1.327847,-7.647984 1.646941,-11.569763 q -3.288736,-0.257334 -6.628939,-0.401442 1.389607,4.318075 3.196096,8.636149"
     id="path2"
     style="stroke-width:5.14669" />
</svg>
