<?xml version="1.0" encoding="UTF-8" standalone="no"?>
<svg
   width="218.66083"
   height="168.39781"
   version="1.1"
   id="svg8"
   sodipodi:docname="beetle.svg"
   inkscape:version="1.3.2 (091e20e, 2023-11-25, custom)"
   xmlns:inkscape="http://www.inkscape.org/namespaces/inkscape"
   xmlns:sodipodi="http://sodipodi.sourceforge.net/DTD/sodipodi-0.dtd"
   xmlns="http://www.w3.org/2000/svg"
   xmlns:svg="http://www.w3.org/2000/svg">
  <defs
     id="defs8" />
  <sodipodi:namedview
     id="namedview8"
     pagecolor="#ffffff"
     bordercolor="#000000"
     borderopacity="0.25"
     inkscape:showpageshadow="2"
     inkscape:pageopacity="0.0"
     inkscape:pagecheckerboard="0"
     inkscape:deskcolor="#d1d1d1"
     inkscape:zoom="1.9568182"
     inkscape:cx="76.399535"
     inkscape:cy="87.642276"
     inkscape:window-width="1920"
     inkscape:window-height="1057"
     inkscape:window-x="-8"
     inkscape:window-y="-8"
     inkscape:window-maximized="1"
     inkscape:current-layer="svg8" />
  <clipPath
     id="a">
    <path
       d="m 13.333,9.167 h 83.334 q 4.166,0 4.166,4.166 v 83.334 q 0,4.166 -4.166,4.166 H 13.333 q -4.166,0 -4.166,-4.166 V 13.333 q 0,-4.166 4.166,-4.166"
       id="path1" />
  </clipPath>
  <g
     clip-path="url(#a)"
     id="g8"
     transform="matrix(-0.3688952,-13.939783,13.939783,-0.3688952,-913.78703,1043.1905)" />
  <path
     fill="#905db0"
     d="M 107.13147,11.617372 Q 205.74505,9.5852643 207.26913,83.545445 208.79321,157.50563 110.17964,159.53775 11.566063,161.56986 10.041979,87.609665 8.517894,13.649483 107.13147,11.617372"
     id="path6"
     style="stroke-width:3.69883" />
  <path
     fill="#754b8f"
     d="M 106.95109,2.9908283 Q 214.19644,0.77823225 215.89834,83.367625 217.60025,165.95703 110.35746,168.16696 3.11467,170.37689 1.412768,87.787495 -0.28913798,5.1980943 106.95365,2.9881613 m 0.35819,17.2557547 q -89.987021,1.85173 -88.638087,67.185269 1.348929,65.333525 91.325397,63.476785 89.97647,-1.85674 88.6381,-67.185265 -1.33836,-65.328516 -91.33063,-63.476682"
     id="path7"
     inkscape:label="path7"
     style="stroke-width:3.69883" />
  <path
     fill="#754b8f"
     d="m 57.891579,78.084945 q 50.426601,-8.6256 101.173631,-2.08225 0.42224,0.0514 0.83232,0.14766 0.42054,0.096 0.81835,0.23165 0.40038,0.13305 0.78593,0.30819 0.38811,0.17251 0.75616,0.38728 0.36796,0.20954 0.71306,0.45358 0.34521,0.24926 0.66483,0.5252 0.31973,0.28118 0.61382,0.58903 0.28888,0.30797 0.54692,0.64274 0.25803,0.33475 0.48267,0.699 0.22463,0.36422 0.41544,0.737 0.18575,0.38335 0.33774,0.77523 0.14951,0.39979 0.25992,0.80823 0.11044,0.40844 0.18179,0.82553 0.0714,0.41709 0.0985,0.84295 0.0274,0.42585 0.0148,0.84467 -0.0122,0.41882 -0.0663,0.84373 -0.0514,0.42224 -0.14766,0.83232 -0.096,0.42054 -0.23165,0.81836 -0.1356,0.40304 -0.31078,0.78859 -0.16996,0.38544 -0.38472,0.75349 -0.20954,0.36796 -0.45358,0.71306 -0.24926,0.34521 -0.5252,0.66483 -0.28115,0.31973 -0.58903,0.61382 -0.31063,0.28633 -0.64274,0.54692 -0.33744,0.25547 -0.69899,0.48267 -0.35646,0.22185 -0.73701,0.41544 -0.38334,0.18575 -0.77523,0.33774 -0.39979,0.14951 -0.80823,0.25995 -0.40844,0.11045 -0.82553,0.1818 -0.41709,0.0714 -0.84295,0.0985 -0.42585,0.0274 -0.84467,0.0148 -0.41882,-0.0122 -0.84372,-0.0663 -48.17389,-6.21182 -96.056198,1.97941 -0.417091,0.0714 -0.840274,0.10102 -0.423183,0.0296 -0.847128,0.0226 -0.423938,-0.007 -0.843725,-0.0663 -0.419788,-0.0594 -0.834885,-0.14499 -0.415091,-0.0856 -0.815685,-0.22911 -0.400594,-0.14348 -0.791157,-0.30808 -0.390564,-0.16459 -0.756052,-0.38205 -0.365297,-0.20699 -0.713061,-0.45358 -0.345137,-0.24405 -0.667391,-0.52253 -0.317063,-0.27859 -0.611154,-0.58647 -0.288878,-0.30797 -0.552142,-0.64263 -0.258031,-0.33475 -0.485124,-0.6911 -0.227219,-0.36156 -0.415549,-0.74223 -0.190896,-0.37801 -0.340292,-0.77256 -0.152059,-0.39712 -0.265058,-0.80289 -0.110521,-0.41367 -0.184498,-0.8281 -0.0688,-0.41976 -0.101015,-0.84028 -0.02959,-0.42318 -0.01997,-0.84979 0.01221,-0.42404 0.06632,-0.84372 0.05145,-0.42225 0.144995,-0.83489 0.09351,-0.41264 0.229105,-0.81568 0.135599,-0.40305 0.305523,-0.78849 0.169962,-0.38544 0.384619,-0.75873 0.206987,-0.36529 0.453573,-0.71305 0.244049,-0.34514 0.519974,-0.66473 0.281185,-0.31972 0.589035,-0.61382 0.307965,-0.28887 0.640068,-0.54947 0.337296,-0.26073 0.696327,-0.48523 0.359008,-0.22452 0.739566,-0.41811 0.375442,-0.18823 0.772563,-0.34029 0.397118,-0.15206 0.802887,-0.26506 0.413673,-0.11052 0.825531,-0.1818 M 78.460992,56.602291 q 0.006,0.303341 -0.003,0.606985 -0.01,0.303674 -0.0322,0.604955 -0.0226,0.301307 -0.0609,0.597713 -0.0355,0.304191 -0.0896,0.600919 -0.0541,0.29672 -0.12125,0.591099 -0.0672,0.294353 -0.15272,0.586523 -0.0776,0.294612 -0.1764,0.579159 -0.0961,0.287103 -0.20532,0.571906 -0.10934,0.279557 -0.23181,0.556759 -0.12247,0.27719 -0.26343,0.546946 -0.14093,0.269755 -0.28466,0.531688 -0.1437,0.261952 -0.31633,0.516642 -0.17262,0.2547 -0.33762,0.50139 -0.16494,0.24671 -0.36149,0.48356 -0.18864,0.23935 -0.38532,0.47098 -0.19944,0.22385 -0.40944,0.44269 -0.21002,0.21886 -0.43068,0.42744 -0.22067,0.20861 -0.44947,0.40428 -0.22878,0.19567 -0.46827,0.38113 -0.23946,0.18542 -0.48705,0.35797 -0.2476,0.17252 -0.50317,0.33737 -0.25559,0.16486 -0.52207,0.309 -0.2665,0.14415 -0.53307,0.28304 -0.26661,0.13893 -0.55196,0.25466 -0.27213,0.12332 -0.56029,0.23129 -0.28038,0.10519 -0.56618,0.20003 -0.29106,0.0949 -0.57973,0.17677 -0.29402,0.0767 -0.58828,0.14292 -0.2969,0.0637 -0.594039,0.11689 -0.302453,0.0481 -0.59992,0.0856 -0.29746,0.0375 -0.603128,0.0569 -0.305671,0.0192 -0.603782,0.0255 -0.298089,0.006 -0.604311,-6e-4 -0.306226,-0.007 -0.604959,-0.0322 -0.298754,-0.0255 -0.603049,-0.0661 -0.301529,-0.0333 -0.598249,-0.0871 -0.29672,-0.0541 -0.591099,-0.12125 -0.29439,-0.0672 -0.583853,-0.15017 -0.297275,-0.0802 -0.581829,-0.17899 -0.287104,-0.0961 -0.57191,-0.20532 -0.279557,-0.10934 -0.556755,-0.23181 -0.27719,-0.12247 -0.54172,-0.26354 -0.272196,-0.13305 -0.536914,-0.28455 -0.264726,-0.15154 -0.516645,-0.31633 -0.25448,-0.16219 -0.498714,-0.33504 -0.249597,-0.17798 -0.486237,-0.36407 -0.239351,-0.18864 -0.465745,-0.38543 -0.229106,-0.19933 -0.447929,-0.40933 -0.218859,-0.21002 -0.424766,-0.42812 -0.205914,-0.21812 -0.406952,-0.45204 -0.201032,-0.23391 -0.381124,-0.46826 -0.182759,-0.23687 -0.357973,-0.48705 -0.17255,-0.2476 -0.33737,-0.50317 -0.164857,-0.255591 -0.306337,-0.51951 -0.14148,-0.263911 -0.285698,-0.535627 Q 54.954021,62.085672 54.846274,61.807982 54.720255,61.53327 54.614986,61.247691 54.507128,60.964767 54.41229,60.678955 54.32,60.390483 54.235523,60.099226 q -0.07671,-0.29402 -0.142923,-0.588273 -0.06369,-0.296905 -0.114219,-0.591487 -0.04809,-0.302453 -0.08829,-0.60248 -0.03514,-0.300123 -0.05426,-0.600568 -0.02182,-0.303008 -0.02811,-0.606338 -0.0063,-0.303341 6.02e-4,-0.604315 0.007,-0.300974 0.03218,-0.604958 0.02515,-0.30397 0.06606,-0.603046 0.04095,-0.299051 0.08977,-0.595689 0.04882,-0.29661 0.118584,-0.593663 0.06972,-0.297053 0.152725,-0.586523 0.07764,-0.294612 0.176397,-0.579159 0.09613,-0.287103 0.208022,-0.569346 0.106675,-0.28211 0.22918,-0.559319 0.122468,-0.27719 0.263542,-0.541715 0.138262,-0.272308 0.287214,-0.534356 0.151504,-0.264725 0.313697,-0.519204 0.162194,-0.25448 0.33504,-0.498717 0.172847,-0.244234 0.364076,-0.486234 0.188641,-0.239351 0.385418,-0.465745 0.19933,-0.229106 0.409339,-0.447928 0.210019,-0.21886 0.428121,-0.42477 0.21812,-0.205914 0.45203,-0.406949 0.233914,-0.201032 0.468268,-0.381124 0.236873,-0.182759 0.487051,-0.357973 0.2476,-0.172513 0.505841,-0.334818 0.258252,-0.162267 0.516841,-0.308889 0.258585,-0.146585 0.538294,-0.283145 0.279743,-0.136561 0.546736,-0.254554 0.274712,-0.125982 0.560295,-0.231288 0.282923,-0.107858 0.568732,-0.202696 0.288471,-0.09229 0.582399,-0.174178 0.293946,-0.08193 0.588273,-0.142922 0.294353,-0.06103 0.59405,-0.116883 0.299717,-0.05585 0.594687,-0.08548 0.302675,-0.03765 0.603131,-0.05692 0.303008,-0.02182 0.606335,-0.02811 0.303341,-0.0063 0.606985,0.0032 0.303674,0.0096 0.604958,0.03218 0.301307,0.02256 0.60038,0.06351 0.29905,0.04095 0.595681,0.08977 0.296607,0.04882 0.593667,0.118585 0.29705,0.06972 0.58652,0.152725 0.29461,0.07764 0.57916,0.176397 0.2871,0.09613 0.56935,0.208022 0.28211,0.106674 0.55931,0.229142 0.27719,0.122469 0.54439,0.266094 0.26717,0.143626 0.53169,0.284662 0.26454,0.141074 0.5192,0.313698 0.2547,0.172624 0.50139,0.337629 0.24667,0.164931 0.48356,0.361487 0.23935,0.18864 0.46841,0.387985 0.22641,0.196741 0.44526,0.406771 0.21886,0.21002 0.42744,0.430685 0.20861,0.220672 0.40428,0.449474 0.19567,0.228773 0.38113,0.468261 0.18542,0.239462 0.35797,0.48705 0.17252,0.2476 0.33482,0.505841 0.16231,0.258253 0.31155,0.519401 0.14925,0.261137 0.28049,0.535739 0.13123,0.274601 0.25721,0.549294 0.12602,0.274712 0.23129,0.560295 0.1052,0.280372 0.2027,0.568736 0.0922,0.288472 0.17155,0.579836 0.0792,0.291357 0.14292,0.588277 0.0637,0.296905 0.11688,0.594043 0.0532,0.297127 0.0881,0.59725 0.0348,0.300123 0.0569,0.603131 0.0218,0.303008 0.0255,0.603775 m 1.21931,59.170241 q 0.006,0.30334 -6e-4,0.60432 -0.007,0.30097 -0.0322,0.60496 -0.0255,0.29872 -0.0661,0.60304 -0.0359,0.29898 -0.0898,0.59569 -0.0514,0.29931 -0.11859,0.59367 -0.0672,0.29435 -0.15013,0.58385 -0.083,0.28947 -0.17899,0.58183 -0.096,0.29235 -0.20802,0.56934 -0.112,0.27701 -0.22914,0.55932 -0.11715,0.2823 -0.26354,0.54172 -0.1464,0.2594 -0.28722,0.53435 -0.14081,0.27497 -0.3137,0.51921 -0.17284,0.24423 -0.33504,0.49872 -0.17798,0.24959 -0.36407,0.48623 -0.18864,0.23935 -0.38542,0.46574 -0.19937,0.22911 -0.40934,0.44793 -0.21002,0.21886 -0.42812,0.42477 -0.21812,0.20591 -0.45203,0.40695 -0.23392,0.20103 -0.46826,0.38112 -0.23691,0.1828 -0.48706,0.35798 -0.2476,0.17251 -0.50584,0.33482 -0.25825,0.16226 -0.51684,0.30888 -0.25858,0.14659 -0.5383,0.28315 -0.2797,0.1366 -0.54673,0.25455 -0.27472,0.12599 -0.5603,0.23129 -0.28292,0.10786 -0.56873,0.2027 -0.28847,0.0923 -0.5824,0.17418 -0.29395,0.0819 -0.58827,0.14292 -0.29436,0.061 -0.59149,0.11422 -0.29712,0.0532 -0.59981,0.0908 -0.30268,0.0377 -0.600567,0.0542 -0.297903,0.0163 -0.606338,0.0281 -0.308445,0.0115 -0.606981,-0.003 -0.298496,-0.0148 -0.602292,-0.0296 -0.303748,-0.0148 -0.603046,-0.0661 -0.299309,-0.0514 -0.595685,-0.0898 -0.296425,-0.0383 -0.593666,-0.11859 -0.297275,-0.0802 -0.58652,-0.15272 -0.294612,-0.0776 -0.579163,-0.1764 -0.287103,-0.0961 -0.569346,-0.20802 -0.282109,-0.10667 -0.559318,-0.22914 -0.277191,-0.12247 -0.541712,-0.26354 -0.272308,-0.13827 -0.534359,-0.28722 -0.264725,-0.1515 -0.519201,-0.3137 -0.25448,-0.16219 -0.501388,-0.33759 -0.246897,-0.17543 -0.483566,-0.36148 -0.236651,-0.18609 -0.468413,-0.38799 -0.226405,-0.19674 -0.445257,-0.40677 -0.21886,-0.21002 -0.427441,-0.43069 -0.208614,-0.22067 -0.404282,-0.44947 -0.195668,-0.22877 -0.381124,-0.46826 -0.185422,-0.2395 -0.357972,-0.48705 -0.172514,-0.2476 -0.334818,-0.50584 -0.162268,-0.25825 -0.311553,-0.51941 -0.149248,-0.26113 -0.280482,-0.53573 -0.131235,-0.2746 -0.257217,-0.5493 -0.125982,-0.27471 -0.231288,-0.56029 -0.105157,-0.28037 -0.200032,-0.56617 -0.09491,-0.29106 -0.174178,-0.5824 -0.07927,-0.29136 -0.142923,-0.58828 -0.06369,-0.2969 -0.116883,-0.59404 -0.05064,-0.29979 -0.08814,-0.59725 -0.03751,-0.29746 -0.05693,-0.60313 -0.01923,-0.30568 -0.02552,-0.60378 -0.0059,-0.29809 0.0032,-0.60698 0.0092,-0.30889 0.03218,-0.60496 0.02293,-0.29609 0.06351,-0.60038 0.04065,-0.3043 0.08707,-0.59825 0.04623,-0.29395 0.121248,-0.5911 0.07498,-0.29717 0.152724,-0.58652 0.07764,-0.29461 0.176398,-0.57916 0.09613,-0.28714 0.205322,-0.57191 0.109337,-0.27956 0.231805,-0.55676 0.122468,-0.27719 0.266094,-0.54439 0.133047,-0.27219 0.281962,-0.53424 0.151504,-0.26473 0.316324,-0.51665 0.164857,-0.25192 0.337629,-0.50138 0.172772,-0.24945 0.361487,-0.48357 0.18864,-0.23935 0.387981,-0.46841 0.196741,-0.2264 0.406771,-0.44526 0.21002,-0.21886 0.430688,-0.42744 0.220672,-0.20861 0.449471,-0.40428 0.228773,-0.19567 0.468261,-0.38112 0.239499,-0.18543 0.487051,-0.35798 0.247599,-0.17251 0.503174,-0.33737 0.255589,-0.16485 0.522067,-0.309 0.266464,-0.14414 0.533072,-0.28303 0.266574,-0.13893 0.551961,-0.25466 0.272123,-0.12332 0.560295,-0.23129 0.280372,-0.1052 0.566173,-0.20004 0.291061,-0.0949 0.579732,-0.17676 0.29402,-0.0767 0.588277,-0.14293 0.296905,-0.0636 0.59671,-0.11433 0.297127,-0.0532 0.597254,-0.0881 0.300123,-0.0348 0.603131,-0.0569 0.303008,-0.0218 0.603775,-0.0255 0.300788,-0.003 0.604314,6e-4 0.303674,0.01 0.604963,0.0322 0.301307,0.0226 0.603037,0.0661 0.30153,0.0329 0.59825,0.0871 0.29672,0.0541 0.59111,0.12125 0.29435,0.0672 0.58652,0.15273 0.29461,0.0776 0.57916,0.17639 0.2871,0.0961 0.57191,0.20533 0.27956,0.10933 0.55676,0.2318 0.27719,0.12247 0.54427,0.26084 0.26709,0.13841 0.53436,0.28722 0.26727,0.14884 0.51664,0.31636 0.24934,0.16752 0.49872,0.33504 0.24933,0.16752 0.48623,0.36407 0.23935,0.18864 0.46575,0.38543 0.2291,0.19933 0.44792,0.40933 0.21886,0.21002 0.42734,0.42545 0.20606,0.22334 0.40439,0.45471 0.19566,0.22877 0.38112,0.46826 0.18542,0.23946 0.35797,0.48705 0.17255,0.2476 0.33737,0.50317 0.16486,0.25559 0.309,0.52207 0.14414,0.26647 0.28303,0.53307 0.13893,0.26657 0.25467,0.55197 0.12332,0.27212 0.22862,0.55773 0.11041,0.28022 0.2027,0.56873 0.0922,0.28847 0.17677,0.57974 0.0767,0.29402 0.14292,0.58827 0.0637,0.2969 0.11688,0.59405 l 0.0856,0.59991 q 0.0348,0.30013 0.0542,0.60057 0.0218,0.30301 0.0281,0.60634 M 120.22035,48.343866 q 0.006,0.303341 -6e-4,0.604311 -0.01,0.303674 -0.0322,0.604963 -0.0277,0.301454 -0.0661,0.603046 -0.0359,0.298976 -0.0898,0.595685 -0.0514,0.299309 -0.11859,0.593666 -0.0672,0.29439 -0.15272,0.58652 -0.0856,0.292133 -0.1764,0.579162 -0.0909,0.28703 -0.20802,0.569347 -0.11714,0.282331 -0.22914,0.559318 -0.112,0.277005 -0.26355,0.541712 -0.1515,0.264725 -0.28721,0.534355 -0.13571,0.269645 -0.3137,0.519205 -0.17798,0.249597 -0.33504,0.498717 -0.17798,0.249597 -0.36407,0.486237 -0.18864,0.239351 -0.38542,0.465746 -0.19937,0.229105 -0.40934,0.447924 -0.21002,0.21886 -0.43068,0.427441 -0.22067,0.208614 -0.44947,0.404282 -0.22878,0.195668 -0.46827,0.381127 -0.23946,0.185422 -0.48705,0.357973 -0.2476,0.17255 -0.50584,0.334818 -0.25825,0.162305 -0.5194,0.311552 -0.26114,0.149248 -0.53574,0.280483 -0.2746,0.131234 -0.54929,0.257216 -0.27472,0.126019 -0.5603,0.231288 -0.28037,0.105195 -0.56617,0.200033 -0.29106,0.09491 -0.5824,0.174178 -0.29136,0.07927 -0.58828,0.142922 -0.2969,0.06369 -0.59404,0.116883 -0.29713,0.05319 -0.59725,0.08814 -0.30012,0.03477 -0.60313,0.05693 -0.30301,0.02182 -0.60378,0.02552 -0.30079,0.0034 -0.60698,-0.0032 -0.30623,-0.0067 -0.60496,-0.03218 -0.29872,-0.02552 -0.59771,-0.06092 -0.29898,-0.03588 -0.60092,-0.08966 -0.30193,-0.05393 -0.5911,-0.121247 -0.28914,-0.06728 -0.58652,-0.152725 -0.29461,-0.07764 -0.57916,-0.176397 -0.2871,-0.09613 -0.57191,-0.205322 -0.277,-0.112001 -0.5542,-0.234469 -0.27719,-0.122468 -0.5495,-0.26073 -0.26965,-0.13571 -0.52913,-0.287325 -0.26472,-0.151542 -0.5192,-0.313698 -0.25448,-0.162194 -0.50139,-0.337592 -0.24689,-0.175436 -0.48356,-0.361524 -0.23665,-0.186088 -0.468418,-0.387981 -0.2264,-0.196741 -0.44526,-0.406775 -0.21886,-0.21002 -0.42743,-0.430681 -0.20862,-0.220672 -0.40429,-0.449474 -0.19567,-0.228773 -0.38112,-0.468261 -0.18542,-0.239462 -0.35797,-0.487055 -0.17252,-0.247599 -0.33482,-0.505841 -0.16231,-0.258252 -0.31155,-0.519397 -0.14925,-0.261137 -0.28304,-0.533071 -0.13379,-0.271938 -0.25466,-0.551966 -0.12332,-0.272122 -0.23129,-0.560295 -0.1052,-0.280371 -0.2027,-0.568728 -0.0923,-0.288472 -0.1741,-0.577169 -0.0767,-0.29402 -0.14292,-0.588277 -0.0637,-0.296905 -0.11433,-0.596713 -0.0532,-0.297127 -0.0881,-0.597254 -0.0351,-0.300123 -0.0569,-0.603128 -0.0218,-0.303008 -0.0255,-0.603778 -0.003,-0.300789 6e-4,-0.604315 0.004,-0.303526 0.0322,-0.604962 0.0251,-0.30397 0.0661,-0.603046 0.0329,-0.301529 0.0871,-0.598245 0.0541,-0.29672 0.12125,-0.591106 0.0672,-0.294353 0.15272,-0.586516 0.0776,-0.294612 0.1764,-0.579163 0.0961,-0.287103 0.20532,-0.57191 0.10934,-0.279557 0.23181,-0.556758 0.12247,-0.277191 0.26084,-0.544276 0.13841,-0.267092 0.28721,-0.534355 0.14884,-0.267277 0.31633,-0.516641 0.16752,-0.249339 0.33504,-0.498717 0.16752,-0.249338 0.36407,-0.486237 0.18864,-0.239352 0.38542,-0.465746 0.19933,-0.229105 0.40934,-0.447925 0.21002,-0.218859 0.42801,-0.43 0.22079,-0.203361 0.45214,-0.401722 0.228778,-0.195668 0.468268,-0.381124 0.23946,-0.185422 0.48705,-0.357973 0.2476,-0.172513 0.50317,-0.33737 0.25559,-0.164857 0.52207,-0.309 0.26646,-0.144143 0.53307,-0.283035 0.26661,-0.138928 0.55196,-0.254664 0.27213,-0.123319 0.5603,-0.231288 0.27767,-0.107747 0.56617,-0.200032 0.28847,-0.09229 0.57973,-0.176768 0.29402,-0.07671 0.58828,-0.142922 0.2969,-0.06369 0.59404,-0.116883 l 0.59992,-0.08559 q 0.30012,-0.03477 0.60057,-0.05423 0.30301,-0.02182 0.60633,-0.02811 0.30334,-0.0063 0.60432,5.99e-4 0.30098,0.007 0.60496,0.03218 0.30397,0.02515 0.60305,0.06606 0.29905,0.04095 0.59824,0.08707 0.29917,0.04616 0.59111,0.121248 0.29195,0.07509 0.58385,0.150136 0.29728,0.08019 0.58183,0.178986 0.2871,0.09613 0.57191,0.205322 0.277,0.112 0.55419,0.234469 0.27719,0.122468 0.54684,0.258178 0.26964,0.13571 0.5318,0.289877 0.26472,0.151504 0.5192,0.313698 0.25448,0.162194 0.49872,0.33504 0.24423,0.172846 0.48623,0.364076 0.23935,0.18864 0.46575,0.385422 0.2291,0.19933 0.44792,0.409331 0.21886,0.210019 0.42477,0.428124 0.20592,0.21812 0.40695,0.452034 0.20103,0.233914 0.38113,0.468261 0.18276,0.23691 0.35797,0.487051 0.17251,0.2476 0.33482,0.505841 0.16227,0.258252 0.30889,0.516841 0.14658,0.258585 0.28314,0.538298 0.13656,0.279706 0.25711,0.544068 0.12058,0.264356 0.22873,0.562962 0.10819,0.298644 0.2027,0.568732 0.0945,0.270126 0.1741,0.577169 0.0796,0.307077 0.14559,0.59084 0.066,0.283775 0.11167,0.594151 0.0456,0.310369 0.0908,0.599817 0.0452,0.28947 0.0542,0.600568 0.009,0.311108 0.0281,0.606334 m 1.52408,73.960193 q 0.006,0.30334 -0.003,0.60698 -0.01,0.30363 -0.0322,0.60496 -0.0226,0.3013 -0.0635,0.60038 -0.0329,0.30152 -0.0871,0.59824 -0.0541,0.29672 -0.12124,0.59111 -0.0672,0.29435 -0.15273,0.58652 -0.0776,0.29461 -0.17639,0.57916 -0.0961,0.2871 -0.20533,0.5719 -0.112,0.27701 -0.23447,0.5542 -0.12246,0.27719 -0.26073,0.54951 -0.13571,0.26964 -0.28732,0.52912 -0.15151,0.26473 -0.3137,0.51921 -0.16219,0.25448 -0.33759,0.50139 -0.17544,0.24689 -0.36149,0.48356 -0.18609,0.23665 -0.38798,0.46841 -0.19674,0.22641 -0.40677,0.44526 -0.21002,0.21886 -0.43069,0.42744 -0.22067,0.20861 -0.44947,0.40428 -0.22878,0.19567 -0.46826,0.38113 -0.23947,0.18542 -0.48706,0.35797 -0.2476,0.17251 -0.50584,0.33482 -0.25825,0.1623 -0.5194,0.31155 -0.26114,0.14925 -0.53574,0.28048 -0.2746,0.13124 -0.54662,0.25977 -0.27205,0.12853 -0.56296,0.22874 -0.28038,0.10519 -0.56618,0.20003 -0.29106,0.0949 -0.57973,0.17677 -0.29402,0.0767 -0.58828,0.14292 -0.2969,0.0637 -0.59671,0.11433 -0.29712,0.0532 -0.59725,0.0881 -0.30012,0.0348 -0.60313,0.0569 -0.30301,0.0218 -0.60378,0.0255 -0.30078,0.003 -0.60431,-6e-4 -0.30353,-0.004 -0.60496,-0.0322 -0.30397,-0.0251 -0.60304,-0.0661 -0.30153,-0.0329 -0.59826,-0.0871 -0.29672,-0.0541 -0.5911,-0.12125 -0.29435,-0.0672 -0.58652,-0.15272 -0.29461,-0.0776 -0.57916,-0.1764 -0.2871,-0.0961 -0.57191,-0.20532 -0.27956,-0.10934 -0.55675,-0.23181 -0.27719,-0.12246 -0.54428,-0.26087 -0.26709,-0.13841 -0.53436,-0.28722 -0.26727,-0.14884 -0.51664,-0.31632 -0.24934,-0.16752 -0.49872,-0.33504 -0.24933,-0.16752 -0.48623,-0.36408 -0.23935,-0.18864 -0.46574,-0.38542 -0.22911,-0.19929 -0.44793,-0.40933 -0.21886,-0.21002 -0.42744,-0.43069 -0.20861,-0.22067 -0.40428,-0.44947 -0.195668,-0.22877 -0.381128,-0.46826 -0.18542,-0.23946 -0.35797,-0.48705 -0.17252,-0.2476 -0.33737,-0.50318 -0.16486,-0.25558 -0.309,-0.52206 -0.14415,-0.2665 -0.28304,-0.53307 -0.13893,-0.26658 -0.25466,-0.55197 -0.12332,-0.27212 -0.23129,-0.56029 -0.10516,-0.28037 -0.20003,-0.56617 -0.0923,-0.28848 -0.17677,-0.57973 -0.0767,-0.29402 -0.14292,-0.58828 -0.0637,-0.2969 -0.11688,-0.59405 l -0.0856,-0.59991 q -0.0351,-0.30013 -0.0569,-0.60313 -0.0192,-0.30046 -0.0255,-0.60378 -0.006,-0.30334 6e-4,-0.60432 0.007,-0.30097 0.0322,-0.60496 0.0251,-0.30397 0.0661,-0.60304 0.0333,-0.30153 0.0871,-0.59825 0.0541,-0.29672 0.12125,-0.5911 0.0672,-0.29436 0.15272,-0.58652 0.0776,-0.29461 0.1764,-0.57916 0.0961,-0.2871 0.20532,-0.57191 l 0.23181,-0.55676 q 0.12513,-0.27464 0.26354,-0.54172 0.1356,-0.27486 0.28721,-0.53435 0.15151,-0.26473 0.3137,-0.51921 0.16219,-0.25447 0.33504,-0.49871 0.17285,-0.24424 0.36408,-0.48624 0.18864,-0.23935 0.385418,-0.46574 0.19933,-0.22911 0.40933,-0.44793 0.21002,-0.21886 0.42812,-0.42477 0.21812,-0.20591 0.45204,-0.40695 0.23391,-0.20103 0.46826,-0.38112 0.23687,-0.18276 0.48705,-0.35797 0.2476,-0.17252 0.50584,-0.33482 0.25825,-0.16231 0.51684,-0.30889 0.25859,-0.14659 0.5383,-0.28315 0.27974,-0.1366 0.54407,-0.2571 0.26435,-0.12059 0.56296,-0.22874 0.29864,-0.10819 0.56873,-0.20269 0.27013,-0.0945 0.57973,-0.17677 0.30963,-0.0823 0.58828,-0.14292 0.27867,-0.0607 0.59671,-0.11434 0.31807,-0.0536 0.59469,-0.0855 0.30268,-0.0377 0.60313,-0.0569 0.30301,-0.0218 0.60634,-0.0281 0.30334,-0.006 0.60431,6e-4 0.30098,0.007 0.60496,0.0322 0.30397,0.0251 0.60305,0.0661 0.29905,0.0409 0.59568,0.0898 0.29661,0.0488 0.59367,0.11858 0.29705,0.0697 0.58652,0.15273 0.29461,0.0776 0.57916,0.17643 0.2871,0.0961 0.56935,0.20802 0.28211,0.10668 0.55932,0.22918 0.27719,0.12247 0.54171,0.26355 0.27231,0.13826 0.53436,0.28721 0.26472,0.15147 0.5192,0.3137 0.25448,0.16219 0.49872,0.33504 0.24423,0.17284 0.48623,0.36407 0.24201,0.1912 0.46575,0.38543 0.2291,0.19933 0.44793,0.40933 0.21886,0.21002 0.42743,0.43068 0.20862,0.22068 0.40429,0.44948 0.19566,0.22877 0.38112,0.46826 0.18542,0.23946 0.35797,0.48705 0.17252,0.2476 0.33482,0.50584 0.1623,0.25825 0.31155,0.51941 0.14925,0.26113 0.28048,0.53573 0.13124,0.2746 0.25722,0.5493 0.12602,0.27471 0.23129,0.56029 0.10519,0.28037 0.20003,0.56617 0.0923,0.28847 0.17418,0.5824 0.0819,0.29395 0.14292,0.58827 0.061,0.29436 0.11689,0.59405 0.0558,0.29972 0.0881,0.59725 0.0322,0.29757 0.0569,0.60313 0.0244,0.30556 0.0255,0.60378 m 40.54,-67.429504 q 0.006,0.303341 -0.003,0.606982 -0.01,0.303674 -0.0322,0.604962 -0.0226,0.301307 -0.0635,0.600376 -0.041,0.29905 -0.0898,0.595685 -0.0488,0.296609 -0.12114,0.596337 -0.0723,0.299716 -0.15013,0.583849 -0.0776,0.294612 -0.1764,0.579159 -0.0961,0.287103 -0.20802,0.56935 -0.10668,0.282109 -0.22918,0.559318 -0.12247,0.27719 -0.2661,0.544383 -0.14362,0.267166 -0.28466,0.531684 -0.14104,0.264541 -0.3137,0.519205 -0.17262,0.254701 -0.33759,0.501388 -0.16493,0.246711 -0.36407,0.486233 -0.19911,0.239536 -0.38543,0.465748 -0.18631,0.22622 -0.40677,0.44526 -0.22045,0.21904 -0.43068,0.42744 -0.21021,0.20839 -0.44947,0.40427 -0.23136,0.19837 -0.46827,0.38113 -0.23946,0.18542 -0.48961,0.36067 -0.2476,0.17252 -0.50584,0.33482 -0.2557,0.15961 -0.51684,0.30889 -0.2638,0.1467 -0.53574,0.28048 -0.2719,0.13379 -0.54662,0.25977 -0.27471,0.12598 -0.56297,0.22874 -0.28825,0.10275 -0.56873,0.20269 -0.28048,0.1 -0.57984,0.17156 -0.29938,0.0716 -0.58828,0.14292 -0.28891,0.0713 -0.59404,0.11688 -0.30515,0.0455 -0.59725,0.0882 -0.29214,0.0426 -0.60313,0.0569 -0.31104,0.0144 -0.60378,0.0255 -0.29276,0.0115 -0.60698,-0.003 -0.31422,-0.0144 -0.6023,-0.0296 -0.28806,-0.0148 -0.60304,-0.0661 -0.31499,-0.051 -0.59825,-0.0871 -0.28329,-0.0359 -0.5911,-0.12125 -0.30782,-0.0852 -0.58908,-0.15006 -0.28122,-0.0648 -0.57917,-0.1764 -0.2979,-0.11159 -0.56934,-0.20802 -0.27142,-0.0964 -0.55676,-0.23181 -0.28529,-0.13537 -0.54427,-0.26084 -0.25896,-0.12546 -0.53436,-0.28721 -0.27538,-0.16172 -0.5192,-0.31366 -0.24383,-0.15195 -0.50139,-0.33763 -0.25758,-0.18568 -0.48357,-0.36149 -0.22596,-0.17584 -0.46841,-0.38798 -0.24242,-0.21217 -0.44526,-0.40678 -0.20284,-0.19463 -0.42744,-0.43068 -0.22463,-0.23606 -0.40428,-0.449471 -0.17965,-0.213423 -0.38112,-0.468264 -0.20144,-0.25485 -0.35798,-0.487055 -0.15649,-0.232213 -0.33481,-0.505841 -0.17832,-0.273602 -0.30897,-0.522067 -0.13068,-0.248451 -0.28307,-0.533068 -0.15235,-0.284625 -0.25721,-0.549299 -0.10487,-0.264688 -0.23129,-0.560291 -0.12643,-0.295611 -0.19748,-0.568839 -0.071,-0.273196 -0.17677,-0.579729 -0.0767,-0.29402 -0.14292,-0.588277 -0.0662,-0.294242 -0.11689,-0.594047 -0.0506,-0.29979 -0.0881,-0.597253 -0.0325,-0.302787 -0.0543,-0.605795 -0.0192,-0.300456 -0.0255,-0.603778 -0.009,-0.300641 6e-4,-0.604315 0.01,-0.303674 0.0322,-0.604962 0.0226,-0.301307 0.0635,-0.600379 0.0355,-0.304192 0.0896,-0.600912 0.0541,-0.29672 0.12125,-0.591106 0.0672,-0.294353 0.15014,-0.58385 0.0776,-0.294611 0.17639,-0.579162 0.0961,-0.287104 0.20533,-0.57191 0.11189,-0.28222 0.23439,-0.559426 0.12247,-0.27719 0.26354,-0.541712 0.13305,-0.272197 0.28455,-0.536918 0.15151,-0.264725 0.31633,-0.516642 0.16219,-0.254479 0.33504,-0.498716 0.1754,-0.246934 0.36407,-0.486238 0.18609,-0.236651 0.38543,-0.465745 0.19932,-0.229106 0.40933,-0.447928 0.21002,-0.21886 0.42812,-0.42477 0.21812,-0.205914 0.44948,-0.404282 0.23136,-0.198369 0.47082,-0.383791 0.23946,-0.185422 0.48449,-0.355309 0.25015,-0.175177 0.50317,-0.337371 0.25826,-0.162267 0.52207,-0.308963 0.26635,-0.149396 0.53563,-0.285698 0.27194,-0.133786 0.54941,-0.252001 0.27471,-0.125982 0.56029,-0.231288 0.28292,-0.107858 0.56873,-0.202696 0.28847,-0.09225 0.57717,-0.174103 0.29402,-0.07668 0.58828,-0.142923 0.29946,-0.06632 0.59671,-0.114331 0.29716,-0.05319 0.59982,-0.09084 0.30012,-0.03477 0.60056,-0.05423 0.30046,-0.01923 0.60634,-0.02811 0.30589,-0.0089 0.60175,0.0031 0.29587,0.01258 0.60496,0.03218 0.30912,0.0196 0.60561,0.0634 0.2965,0.04361 0.59569,0.08977 0.29916,0.04616 0.59366,0.118584 0.2945,0.07242 0.58652,0.152725 0.29202,0.0803 0.57916,0.176397 0.28711,0.09613 0.56935,0.208022 0.28222,0.11189 0.55932,0.22918 0.27708,0.117253 0.54171,0.263541 0.27231,0.138263 0.53436,0.287215 0.26472,0.151504 0.5192,0.313697 0.25448,0.162194 0.49872,0.33504 0.24423,0.172847 0.48623,0.364076 0.24202,0.191193 0.46575,0.385422 0.22911,0.19933 0.44792,0.409331 0.21886,0.210019 0.42477,0.428121 0.20592,0.21812 0.40696,0.452038 0.20103,0.233914 0.38112,0.46826 0.18013,0.234358 0.35797,0.487051 0.17784,0.252704 0.33482,0.505841 0.15694,0.253148 0.309,0.522071 0.15206,0.268905 0.28563,0.530401 0.13356,0.261471 0.25466,0.551962 0.1211,0.290506 0.23129,0.560295 0.10516,0.280371 0.19748,0.568843 0.0923,0.288472 0.17677,0.579729 0.0845,0.291246 0.14292,0.588276 0.0585,0.297016 0.11688,0.594043 0.0585,0.297017 0.0881,0.597251 0.0325,0.302786 0.0517,0.603238 0.0218,0.303008 0.0307,0.603671 m 1.21931,59.170245 q 0.003,0.30078 -0.006,0.60442 -0.01,0.30367 -0.0296,0.60229 -0.02,0.29864 -0.0634,0.6056 -0.0434,0.30697 -0.0898,0.59569 -0.0514,0.29931 -0.11858,0.59367 -0.0672,0.29435 -0.15273,0.58652 -0.0856,0.29213 -0.17639,0.57915 -0.0909,0.28703 -0.20803,0.56935 -0.11714,0.28234 -0.22918,0.55933 -0.112,0.277 -0.26354,0.54171 -0.1515,0.26472 -0.28721,0.53435 -0.13571,0.26965 -0.31366,0.51921 -0.17799,0.2496 -0.33763,0.50138 -0.15964,0.25182 -0.36149,0.48357 -0.20192,0.23177 -0.38542,0.46574 -0.18354,0.23399 -0.40933,0.44793 -0.22582,0.21394 -0.43069,0.42744 -0.20488,0.2135 -0.44947,0.40428 -0.2446,0.19079 -0.46826,0.38113 -0.22367,0.19037 -0.48706,0.35797 -0.26339,0.16759 -0.50584,0.33482 -0.24246,0.16718 -0.52207,0.309 -0.27959,0.14181 -0.53039,0.28562 -0.25082,0.14381 -0.55197,0.25466 -0.3012,0.11086 -0.56029,0.23129 -0.25911,0.12044 -0.56884,0.19748 -0.30971,0.077 -0.57974,0.17677 -0.27001,0.0998 -0.58827,0.14292 -0.31828,0.0432 -0.59405,0.11689 -0.27578,0.0737 -0.59725,0.0881 -0.30278,0.0325 -0.60579,0.0543 -0.30046,0.0192 -0.60111,0.0281 -0.30334,0.006 -0.60699,-0.003 -0.30367,-0.01 -0.60495,-0.0322 -0.30131,-0.0226 -0.60038,-0.0635 -0.30153,-0.0329 -0.60092,-0.0896 -0.29406,-0.0515 -0.5911,-0.12125 -0.29436,-0.0672 -0.58386,-0.15014 -0.29461,-0.0776 -0.57916,-0.17639 -0.28714,-0.0961 -0.5719,-0.20532 -0.27956,-0.10934 -0.55676,-0.23181 -0.27719,-0.12247 -0.54439,-0.26609 -0.27219,-0.13305 -0.53168,-0.28467 -0.26473,-0.1515 -0.51921,-0.31369 -0.25448,-0.1622 -0.50138,-0.3376 -0.2469,-0.17543 -0.48623,-0.36407 -0.23935,-0.18864 -0.46575,-0.38542 -0.22641,-0.19674 -0.44526,-0.40678 -0.21886,-0.21002 -0.42744,-0.43068 -0.20861,-0.22067 -0.40428,-0.44947 -0.19837,-0.23136 -0.38113,-0.46827 -0.18542,-0.23946 -0.36063,-0.48961 -0.17252,-0.2476 -0.33482,-0.50584 -0.15964,-0.2557 -0.30889,-0.51684 -0.14669,-0.2638 -0.28303,-0.53306 -0.13379,-0.27194 -0.25467,-0.55197 -0.12602,-0.27472 -0.23129,-0.56029 -0.10785,-0.28293 -0.20269,-0.56874 -0.0923,-0.28847 -0.17411,-0.57717 -0.0767,-0.29402 -0.14292,-0.58827 -0.0637,-0.29691 -0.11433,-0.59672 -0.0532,-0.29713 -0.0881,-0.59725 -0.0348,-0.30012 -0.0569,-0.60313 -0.0218,-0.30301 -0.0255,-0.60378 -0.003,-0.30078 6e-4,-0.60431 0.01,-0.30367 0.0322,-0.60496 0.0251,-0.30397 0.0661,-0.60305 0.0329,-0.30153 0.0871,-0.59824 0.0541,-0.29672 0.12125,-0.59111 0.0672,-0.29439 0.15006,-0.58908 0.0803,-0.29202 0.17644,-0.57916 0.0961,-0.2871 0.20802,-0.56934 0.11192,-0.28223 0.2318,-0.55676 0.11992,-0.27453 0.26084,-0.54428 0.14097,-0.26975 0.28722,-0.53436 0.14629,-0.26461 0.3137,-0.5192 0.16741,-0.25459 0.33504,-0.49872 0.16763,-0.24412 0.36407,-0.48623 0.19648,-0.24209 0.38543,-0.46575 0.18897,-0.22363 0.40933,-0.44793 0.22034,-0.22426 0.42812,-0.42476 0.20777,-0.20048 0.45204,-0.40696 0.24427,-0.20646 0.46826,-0.38112 0.224,-0.17466 0.48705,-0.35797 0.26306,-0.18328 0.50584,-0.33482 0.24279,-0.1515 0.52207,-0.309 0.2793,-0.1575 0.53307,-0.28303 0.25378,-0.12558 0.54929,-0.25722 0.2955,-0.13168 0.5603,-0.23129 0.28037,-0.10519 0.56884,-0.19748 0.28847,-0.0923 0.57973,-0.17677 0.29125,-0.0845 0.58828,-0.14292 0.2969,-0.0637 0.59404,-0.11688 0.29724,-0.048 0.59725,-0.0882 0.30279,-0.0325 0.60324,-0.0516 0.30301,-0.0218 0.60634,-0.0281 0.30064,-0.009 0.60431,6e-4 0.30368,0.01 0.60496,0.0322 0.30131,0.0226 0.60038,0.0635 0.30419,0.0355 0.60091,0.0897 0.29672,0.0541 0.59111,0.12125 0.29435,0.0672 0.58385,0.15013 0.29461,0.0776 0.57916,0.17644 0.2871,0.0961 0.57191,0.20532 0.27967,0.11455 0.55686,0.23702 0.27719,0.12247 0.54684,0.25818 0.26964,0.13571 0.5318,0.28987 0.26472,0.15151 0.5192,0.3137 0.25448,0.1622 0.49872,0.33504 0.24423,0.17285 0.48623,0.36408 0.24202,0.19119 0.46575,0.38542 0.22374,0.19418 0.44792,0.40933 0.22415,0.21512 0.42477,0.42812 0.20059,0.21298 0.40429,0.44948 0.19836,0.23136 0.38379,0.47082 0.18276,0.23691 0.35531,0.48449 0.17517,0.25015 0.33481,0.50584 0.16231,0.25825 0.31156,0.5194 0.14939,0.26636 0.28314,0.5383 0.13379,0.2719 0.25711,0.54407 0.12332,0.27212 0.22873,0.56296 0.10538,0.2908 0.2027,0.56873 0.0923,0.28848 0.1741,0.57717 0.0767,0.29402 0.14293,0.58828 0.0663,0.29949 0.11433,0.59671 0.0532,0.29713 0.0908,0.59982 0.0348,0.30012 0.0543,0.60056 0.0192,0.30046 0.0281,0.60634"
     id="path8"
     style="stroke-width:3.69883" />
</svg>
