<?xml version="1.0" encoding="UTF-8" standalone="no"?>
<svg
   width="254.552"
   height="176.47389"
   version="1.1"
   id="svg7"
   sodipodi:docname="mantis.svg"
   inkscape:version="1.3.2 (091e20e, 2023-11-25, custom)"
   xmlns:inkscape="http://www.inkscape.org/namespaces/inkscape"
   xmlns:sodipodi="http://sodipodi.sourceforge.net/DTD/sodipodi-0.dtd"
   xmlns="http://www.w3.org/2000/svg"
   xmlns:svg="http://www.w3.org/2000/svg">
  <defs
     id="defs7" />
  <sodipodi:namedview
     id="namedview7"
     pagecolor="#ffffff"
     bordercolor="#000000"
     borderopacity="0.25"
     inkscape:showpageshadow="2"
     inkscape:pageopacity="0.0"
     inkscape:pagecheckerboard="0"
     inkscape:deskcolor="#d1d1d1"
     inkscape:zoom="1.9568182"
     inkscape:cx="154.84321"
     inkscape:cy="159.69803"
     inkscape:window-width="1920"
     inkscape:window-height="1009"
     inkscape:window-x="3832"
     inkscape:window-y="-8"
     inkscape:window-maximized="1"
     inkscape:current-layer="g7" />
  <clipPath
     id="a">
    <path
       d="m 13.333,9.167 h 83.334 q 4.166,0 4.166,4.166 v 83.334 q 0,4.166 -4.166,4.166 H 13.333 q -4.166,0 -4.166,-4.166 V 13.333 q 0,-4.166 4.166,-4.166"
       id="path1" />
  </clipPath>
  <g
     id="g7"
     transform="translate(-0.92086901,-1.4027016)">
    <path
       fill="none"
       stroke="#333333"
       stroke-linecap="round"
       stroke-linejoin="round"
       stroke-width="11.5351"
       d="M 105.27821,91.759527 Q 53.539668,62.815376 41.311753,35.242238 M 105.27821,91.759527 Q 96.537947,49.231309 95.447915,6.9685498 m 9.830295,84.7909772 q 40.68133,-33.425204 51.7562,-67.877747 m -51.7562,67.877747 Q 70.193993,127.64168 60.454935,164.40536 M 105.27821,91.759527 Q 82.626613,131.55801 75.909349,171.90738 M 105.27821,91.759527 q 47.10245,31.896843 58.09346,62.540633"
       id="path2" />
    <path
       fill="#78a62e"
       d="M 150.74615,149.35697 Q 98.118357,166.50191 52.247639,147.61825 -0.34026007,125.98172 0.95185569,88.686215 2.2459391,51.392809 56.217384,33.451825 q 47.063156,-15.656779 98.375946,5.094906 47.13614,19.047924 45.81717,57.058665 -1.31715,38.016924 -49.66856,53.755524 z m -7.61682,-23.3957 Q 175.09537,115.55479 175.81708,94.756092 176.5388,73.957368 145.36706,61.355923 102.45672,44.005299 63.978567,56.803573 26.247879,69.346204 25.545124,89.539601 24.84434,109.73509 61.616832,124.86505 q 37.490329,15.43437 81.510388,1.09819 z"
       id="path3"
       style="stroke-width:2.88374" />
    <path
       fill="#9acc46"
       d="M 146.93459,137.66207 C 125.61895,144.60432 89.863264,149.79882 56.933224,136.24271 23.998958,122.6905 12.749808,103.4841 13.24849,89.112896 13.747172,74.741691 26.300587,56.361238 60.098964,45.12875 c 33.786423,-11.241066 69.098156,-3.582533 89.881296,4.820532 20.78315,8.403077 38.8686,24.106756 38.13557,45.23153 -0.73513,21.126748 -19.85958,35.541268 -41.17913,42.479298"
       id="path4"
       style="stroke-width:2.88374" />
    <path
       fill="#78a62e"
       d="m 91.363589,62.344598 q -12.334392,0.01471 -22.325587,1.82675 -10.007784,1.819567 -21.263291,6.080993 -0.28111,0.104541 -0.575566,0.182006 -0.290382,0.07764 -0.588075,0.130592 -0.299655,0.05085 -0.600287,0.07102 -0.298522,0.01824 -0.602231,0.01022 -0.301607,-0.01022 -0.604343,-0.04754 -0.298502,-0.04092 -0.591953,-0.110355 -0.295545,-0.06737 -0.584062,-0.161054 -0.282199,-0.09953 -0.561574,-0.221474 -0.27319,-0.12374 -0.535135,-0.27769 -0.259992,-0.151829 -0.507018,-0.323644 -0.244799,-0.177836 -0.474725,-0.373489 -0.225678,-0.19962 -0.434198,-0.423136 -0.206554,-0.221406 -0.390167,-0.456322 -0.185464,-0.241087 -0.345902,-0.497617 -0.160439,-0.256543 -0.2939,-0.526413 -0.133446,-0.269881 -0.241909,-0.555198 -0.10844,-0.285328 -0.184128,-0.57361 -0.07569,-0.28827 -0.128467,-0.590037 -0.05278,-0.301756 -0.0731,-0.598314 -0.02032,-0.296558 -0.0097,-0.602236 0.01045,-0.301608 0.0475,-0.604345 0.04097,-0.298495 0.110321,-0.591953 0.06739,-0.295544 0.163164,-0.586025 0.09549,-0.282342 0.219369,-0.559609 0.123745,-0.273199 0.277693,-0.535134 0.149889,-0.262072 0.321678,-0.509129 0.177836,-0.244789 0.377456,-0.470471 0.199783,-0.229728 0.419244,-0.438366 0.221402,-0.206552 0.458266,-0.388081 0.241079,-0.185461 0.497616,-0.345898 0.256537,-0.160437 0.526405,-0.293901 0.269893,-0.133454 0.555205,-0.241917 12.301533,-4.653596 23.422198,-6.675305 11.067104,-2.007252 24.499444,-2.028798 0.303993,3.53e-4 0.602927,0.02908 0.304986,0.03101 0.598712,0.09223 0.295977,0.05518 0.586737,0.142778 0.290776,0.08767 0.568324,0.203349 0.277548,0.115736 0.545962,0.259712 0.268406,0.143975 0.515731,0.307615 0.25125,0.16787 0.48958,0.355693 0.232011,0.193703 0.446867,0.411302 0.215173,0.209426 0.40864,0.443042 0.189831,0.233057 0.358574,0.485792 0.168739,0.252735 0.308523,0.516721 0.143831,0.264136 0.258482,0.547618 0.117037,0.273357 0.204798,0.566153 0.08793,0.288704 0.148991,0.586674 0.0571,0.293755 0.08957,0.594815 0.02831,0.300913 0.03005,0.602931 0.0019,0.302031 -0.02908,0.602932 -0.03082,0.300902 -0.09218,0.598713 -0.05517,0.295977 -0.140681,0.584771 -0.08551,0.288806 -0.205455,0.570292 -0.113617,0.275581 -0.257603,0.543991 -0.142027,0.270498 -0.309725,0.517702 -0.167871,0.251254 -0.355687,0.489577 -0.193543,0.227964 -0.409202,0.444901 -0.211438,0.213004 -0.446696,0.408942 -0.231115,0.191914 -0.48385,0.360663 -0.250626,0.166764 -0.518677,0.306407 -0.262119,0.146004 -0.545658,0.260602 -0.27538,0.114869 -0.566021,0.200714 -0.288838,0.09201 -0.584699,0.151101 -0.295868,0.05906 -0.596915,0.09154 -0.300913,0.02839 -0.602947,0.0301 m -2.909827,71.156009 q -13.352179,-0.93665 -24.302303,-3.71197 -10.972043,-2.79039 -22.911004,-8.29124 -0.273014,-0.12788 -0.535142,-0.27771 -0.263923,-0.15604 -0.506728,-0.33179 -0.242832,-0.17573 -0.466225,-0.38142 -0.227644,-0.20174 -0.434196,-0.42314 -0.204587,-0.21929 -0.388083,-0.45826 -0.183495,-0.23897 -0.337599,-0.50142 -0.160446,-0.25654 -0.289691,-0.53034 -0.133446,-0.26989 -0.239933,-0.55309 -0.106468,-0.28324 -0.180051,-0.57347 -0.07751,-0.29446 -0.122148,-0.59594 -0.04885,-0.29755 -0.06495,-0.59803 -0.01821,-0.29852 -0.0076,-0.60419 0.01043,-0.30164 0.05354,-0.60211 0.03887,-0.29653 0.110321,-0.59195 0.07146,-0.29538 0.171025,-0.57761 0.09774,-0.28837 0.223596,-0.56353 0.125843,-0.27516 0.279651,-0.53302 0.153785,-0.2579 0.33391,-0.5087 0.173617,-0.24087 0.37729,-0.46642 0.203671,-0.22556 0.423132,-0.4342 0.21907,-0.20906 0.458266,-0.38809 0.238804,-0.17945 0.501417,-0.3376 0.256538,-0.16044 0.530341,-0.28969 0.269885,-0.13346 0.553096,-0.23994 0.283218,-0.10642 0.575293,-0.17384 0.294458,-0.0775 0.592002,-0.12637 0.299513,-0.0467 0.600003,-0.0628 0.300488,-0.016 0.604206,-0.008 0.30371,0.008 0.602085,0.0536 0.298368,0.045 0.593913,0.1124 0.291333,0.0713 0.57761,0.17103 0.286401,0.0957 0.563541,0.2236 10.910698,5.02852 20.782612,7.53589 9.886114,2.5099 22.141197,3.36974 0.301177,0.0227 0.599403,0.0718 0.298085,0.0533 0.591245,0.1307 0.29317,0.0775 0.568891,0.18703 0.285984,0.10786 0.556791,0.24172 0.272772,0.13596 0.526275,0.29779 0.253533,0.16179 0.491979,0.34557 0.240431,0.18587 0.459771,0.39138 0.219226,0.20959 0.42152,0.43494 0.194007,0.22919 0.371252,0.47399 0.177036,0.24893 0.325011,0.51317 0.148085,0.26016 0.273244,0.53385 0.122942,0.27967 0.219124,0.56462 0.09412,0.28686 0.163471,0.58105 0.06529,0.29403 0.103736,0.59733 0.03872,0.29515 0.0485,0.60154 0.008,0.30021 -0.01278,0.60351 -0.02465,0.29906 -0.07379,0.5973 -0.04911,0.29822 -0.128725,0.59334 -0.08143,0.28896 -0.187056,0.5689 -0.109819,0.28388 -0.24157,0.55271 -0.138076,0.27474 -0.299903,0.52825 -0.157907,0.25769 -0.343597,0.49408 -0.183744,0.23846 -0.393329,0.45769 -0.207638,0.22131 -0.434951,0.42151 -0.229173,0.19401 -0.473975,0.37127 -0.246826,0.17507 -0.511051,0.32303 -0.262284,0.15005 -0.535963,0.27522 -0.277583,0.12097 -0.560542,0.21926 -0.288846,0.092 -0.585122,0.16332 -0.292074,0.0674 -0.595239,0.1018 -0.297261,0.0407 -0.601544,0.0484 -0.302309,0.0108 -0.603501,-0.0128 M 138.37004,67.781378 q -8.29441,16.710298 -8.59704,25.373303 -0.29858,8.663149 6.8153,25.914229 0.1187,0.28365 0.20467,0.57023 0.086,0.28659 0.14489,0.58654 0.0593,0.29178 0.0876,0.59269 0.0263,0.30289 0.0281,0.6049 0.003,0.30007 -0.0271,0.60505 -0.0307,0.29683 -0.0901,0.59673 -0.0612,0.29373 -0.14673,0.58255 -0.0917,0.29062 -0.20546,0.57027 -0.11769,0.27546 -0.26168,0.54386 -0.13975,0.26447 -0.30971,0.5177 -0.16788,0.25125 -0.35964,0.48535 -0.19175,0.2341 -0.40726,0.44699 -0.21517,0.21322 -0.4448,0.40249 -0.23924,0.1917 -0.4879,0.36056 -0.25063,0.16676 -0.51672,0.30852 -0.26819,0.1437 -0.54763,0.25848 -0.28365,0.1187 -0.56812,0.20269 -0.2887,0.0879 -0.58653,0.14491 -0.29783,0.057 -0.59678,0.0875 -0.30104,0.0324 -0.6049,0.0281 -0.30007,0.003 -0.60293,-0.029 -0.30105,-0.0268 -0.59674,-0.0901 -0.29176,-0.0591 -0.58464,-0.14475 -0.28655,-0.0916 -0.57028,-0.20546 -0.27545,-0.1177 -0.54386,-0.26167 -0.26447,-0.13978 -0.51573,-0.30764 -0.25126,-0.16787 -0.48326,-0.36158 -0.23815,-0.19192 -0.44896,-0.40936 -0.21509,-0.20949 -0.40501,-0.44248 -0.1897,-0.23711 -0.35857,-0.4858 -0.16873,-0.25273 -0.31048,-0.51882 -0.14373,-0.26819 -0.25849,-0.54762 -8.12627,-19.71014 -7.73337,-31.032654 0.3929,-11.322529 9.86768,-30.415791 0.1319,-0.272891 0.29582,-0.528384 0.1558,-0.255733 0.34359,-0.494081 0.18586,-0.240434 0.3935,-0.461738 0.20553,-0.219343 0.43237,-0.415839 0.22762,-0.199895 0.47624,-0.377272 0.24278,-0.17519 0.507,-0.323156 0.26245,-0.15411 0.53386,-0.273243 0.27774,-0.125028 0.56476,-0.223209 0.28687,-0.09405 0.58314,-0.16543 0.29404,-0.06532 0.59131,-0.106029 0.30134,-0.04059 0.60155,-0.04846 0.30639,-0.01022 0.6035,0.01277 0.30525,0.0228 0.60151,0.06988 0.29822,0.04913 0.58718,0.130546 0.29513,0.07958 0.57506,0.185222 0.28388,0.109786 0.55271,0.241584 0.2729,0.131903 0.5284,0.295818 0.25771,0.157906 0.49815,0.343744 0.24043,0.185848 0.4577,0.393324 0.21726,0.207475 0.41781,0.43448 0.1979,0.225522 0.37529,0.474141 0.17716,0.24488 0.32316,0.506998 0.1541,0.262447 0.27522,0.535953 0.12503,0.277737 0.22334,0.560693 0.0939,0.290938 0.16333,0.585125 0.0673,0.292054 0.10598,0.591291 0.0406,0.301335 0.0484,0.601541 0.0108,0.306396 -0.0128,0.60349 -0.0208,0.303306 -0.0698,0.601529 -0.0492,0.298233 -0.12859,0.589274 -0.0795,0.295133 -0.18523,0.57508 -0.10978,0.283869 -0.24156,0.552702"
       id="path5"
       style="stroke-width:2.88374" />
    <path
       fill="#78a62e"
       d="m 34.900916,83.16579 88.227914,0.372348 q 0.3061,-0.0012 0.60293,0.02908 0.30497,0.03101 0.59869,0.09224 0.2978,0.06134 0.58662,0.146849 0.28247,0.09144 0.56606,0.209401 0.27545,0.117699 0.54388,0.261672 0.26434,0.143816 0.51572,0.307629 0.2531,0.174026 0.48523,0.363683 0.232,0.193715 0.4449,0.409205 0.21321,0.215182 0.40272,0.448547 0.18983,0.233071 0.35858,0.485804 0.16874,0.252735 0.3064,0.518672 0.14581,0.266256 0.25848,0.547629 0.11265,0.281372 0.19863,0.567989 0.0878,0.292772 0.1449,0.586526 0.0611,0.297972 0.0874,0.600856 0.0283,0.300902 0.0262,0.598726 l -0.002,0.187626 -0.18669,5.380029 q -0.0108,0.301609 -0.0514,0.600116 -0.0368,0.298655 -0.11035,0.591953 -0.0674,0.295556 -0.16499,0.579854 -0.0977,0.288377 -0.22358,0.563535 -0.12585,0.275158 -0.2777,0.535137 -0.15183,0.259979 -0.32968,0.50477 -0.17176,0.24708 -0.37357,0.474643 -0.19962,0.225668 -0.42101,0.432235 -0.22141,0.206548 -0.4625,0.392012 -0.24106,0.185464 -0.49535,0.339884 -0.25653,0.16045 -0.52836,0.2918 -0.27184,0.13136 -0.5531,0.23992 -0.28124,0.10865 -0.57768,0.18399 -0.29237,0.0756 -0.59201,0.12637 -0.29556,0.051 -0.59607,0.067 -0.30063,0.0202 -0.60224,0.0102 l -0.19141,-0.0102 -88.039261,-5.750262 q -0.301326,-0.01859 -0.599553,-0.06772 -0.29626,-0.04697 -0.591386,-0.126624 -0.288935,-0.0814 -0.57296,-0.187182 -0.28205,-0.103628 -0.552853,-0.237505 -0.270807,-0.133851 -0.528385,-0.295816 -0.257586,-0.161965 -0.4983,-0.339664 -0.240429,-0.18586 -0.457686,-0.393335 -0.221427,-0.203588 -0.421528,-0.434947 -0.197918,-0.225522 -0.375411,-0.470093 -0.177162,-0.244881 -0.327213,-0.507158 -0.150059,-0.262288 -0.27522,-0.535965 -0.125027,-0.277736 -0.22124,-0.562654 -0.100142,-0.289113 -0.169649,-0.579219 -0.06529,-0.294028 -0.105845,-0.595362 -0.04069,-0.297276 -0.0485,-0.601552 -0.01399,-0.302451 0.0087,-0.603638 0.01623,-0.291211 0.0628,-0.57524 0.04671,-0.28811 0.119729,-0.569186 0.073,-0.281076 0.174403,-0.557079 0.09703,-0.268 0.220488,-0.533036 0.125414,-0.262937 0.274736,-0.508719 0.147615,-0.256051 0.318855,-0.486772 0.171516,-0.238906 0.364645,-0.454636 0.193127,-0.215717 0.406007,-0.410266 0.212744,-0.203154 0.441655,-0.380532 0.22859,-0.177709 0.478799,-0.332252 0.241939,-0.150713 0.505607,-0.282388 0.257649,-0.133874 0.526538,-0.238815 0.272938,-0.104768 0.549147,-0.18497 0.280253,-0.08003 0.565717,-0.133396 0.285458,-0.05335 0.576116,-0.08003 0.290652,-0.02668 0.576237,-0.02485 m -0.05144,12.301502 0.02776,-6.150671 0.398656,-6.137812 88.043465,5.746322 -0.40075,6.139773 -6.14825,-0.215387 0.18655,-5.375958 6.14824,0.215398 -0.0237,6.150818 z"
       id="path6"
       style="stroke-width:2.88374" />
    <path
       fill="#353535"
       d="m 163.83102,71.856953 q 27.17179,-2.131925 45.89996,-12.240795 18.76779,-10.134017 36.58235,-32.31059 l 2.6e-4,0.0044 4.01174,3.222173 2.89232,4.258583 q -30.26946,20.54878 -41.91964,26.834797 -11.64806,6.284065 -45.09592,20.115874 l -1.96717,-4.754935 z m 0.80492,10.260265 q -0.40309,0.03295 -0.80589,-0.0012 -0.40294,-0.03032 -0.80149,-0.127798 -0.39253,-0.09519 -0.76466,-0.248927 -0.37409,-0.155809 -0.72191,-0.363752 -0.34555,-0.213974 -0.65272,-0.475589 -0.307,-0.265743 -0.56981,-0.572687 -0.26274,-0.307024 -0.4752,-0.653082 -0.21245,-0.346035 -0.36469,-0.72065 -0.1,-0.234039 -0.16912,-0.477186 -0.0733,-0.239203 -0.12385,-0.487857 -0.0485,-0.246533 -0.0746,-0.49839 -0.0215,-0.2558 -0.0253,-0.504841 6.1e-4,-0.252986 0.0237,-0.507238 0.025,-0.248049 0.0764,-0.497215 0.0515,-0.24919 0.12519,-0.49147 0.0737,-0.242281 0.17157,-0.475567 0.0978,-0.233308 0.21372,-0.455741 0.11591,-0.22241 0.25786,-0.433807 0.14199,-0.211363 0.30365,-0.401623 0.15999,-0.200544 0.33962,-0.379987 0.17722,-0.177811 0.37312,-0.335615 0.19948,-0.16241 0.40624,-0.300115 0.20887,-0.139666 0.43336,-0.258366 0.22256,-0.120776 0.4564,-0.216767 32.95941,-13.632472 44.14167,-19.663371 11.19474,-6.038628 41.02566,-26.296535 0.33854,-0.228974 0.70971,-0.401805 0.37739,-0.174613 0.76899,-0.287528 0.39552,-0.10869 0.80129,-0.159905 0.40771,-0.0491 0.81515,-0.03088 0.41166,0.01429 0.81275,0.09757 0.40532,0.07936 0.788,0.22322 0.38464,0.145972 0.73877,0.348008 0.3582,0.202186 0.67775,0.460153 0.19658,0.155772 0.38009,0.33557 0.17959,0.175571 0.34229,0.366892 0.16046,0.197364 0.3042,0.406384 0.14373,0.20902 0.26469,0.427455 0.12096,0.218433 0.21889,0.454431 0.0979,0.235992 0.17725,0.477469 0.0793,0.241468 0.13003,0.486027 0.0484,0.250608 0.0765,0.500507 0.0281,0.24989 0.0316,0.498937 9.7e-4,0.255092 -0.0177,0.509473 -0.025,0.248055 -0.0724,0.497376 -0.0453,0.247345 -0.11704,0.491739 -0.0717,0.244394 -0.16357,0.479925 -0.0919,0.235517 -0.21176,0.457853 -0.11995,0.222296 -0.25798,0.437887 -0.1399,0.20939 -0.29353,0.404025 l 2.6e-4,0.0044 q -19.1175,23.798313 -39.71908,34.917436 -20.64318,11.142164 -49.98362,13.443693 m -0.85948,24.827696 q 29.10755,4.331 48.92677,16.87517 19.78536,12.52054 37.20528,37.58468 l -1.5e-4,0.004 q 0.14177,0.20692 0.26485,0.42338 0.12475,0.22672 0.22898,0.45682 0.098,0.23193 0.17953,0.47144 0.0752,0.24132 0.12792,0.48799 0.0525,0.25075 0.0826,0.49868 0.03,0.25199 0.0356,0.50315 9.7e-4,0.25509 -0.0156,0.50752 -0.0209,0.2482 -0.0662,0.49554 -0.0434,0.24945 -0.11104,0.49399 -0.0717,0.2444 -0.16356,0.47992 -0.0939,0.23751 -0.20781,0.46207 -0.1139,0.22458 -0.24986,0.43816 -0.13988,0.20939 -0.2958,0.41005 -0.15577,0.19659 -0.33148,0.38024 -0.17572,0.18366 -0.3669,0.3423 -0.19358,0.16874 -0.40259,0.31247 -0.33454,0.23325 -0.70787,0.408 -0.36742,0.18109 -0.75915,0.29808 -0.39173,0.11698 -0.80157,0.16805 -0.40591,0.0553 -0.81756,0.041 -0.41165,-0.0142 -0.81317,-0.0854 -0.40126,-0.0792 -0.79024,-0.21718 -0.38283,-0.13978 -0.74512,-0.3421 -0.36044,-0.19614 -0.68012,-0.45004 -28.35495,-22.27695 -39.10421,-29.07703 -10.67322,-6.75664 -42.66856,-22.67162 l -0.003,-0.004 q -0.22667,-0.11195 -0.44042,-0.24378 -0.21356,-0.136 -0.4144,-0.28779 -0.20078,-0.15187 -0.38643,-0.32965 -0.17979,-0.17147 -0.34647,-0.36301 -0.16645,-0.19179 -0.31266,-0.3985 -0.14581,-0.20708 -0.27497,-0.42574 -0.12908,-0.21874 -0.22717,-0.45064 -0.098,-0.23193 -0.18373,-0.46749 -0.0793,-0.24148 -0.13622,-0.48421 -0.0566,-0.25087 -0.0908,-0.49895 -0.0341,-0.25215 -0.0397,-0.50331 -0.005,-0.25115 0.006,-0.5037 0.0231,-0.25426 0.0603,-0.50188 0.0455,-0.25142 0.11115,-0.49809 0.0655,-0.24255 0.15525,-0.47612 0.0879,-0.23974 0.2039,-0.46628 0.17576,-0.36115 0.41168,-0.69169 0.23592,-0.33048 0.51914,-0.6145 0.28761,-0.29202 0.61025,-0.53377 0.32256,-0.24184 0.68625,-0.43118 0.35727,-0.18348 0.74129,-0.31296 0.38398,-0.12951 0.78414,-0.19521 0.4024,-0.0717 0.80435,-0.0721 0.4062,-0.005 0.80813,0.0546 m -1.51631,10.18175 0.75821,-5.09291 2.29006,-4.60925 0.003,0.004 q 32.47258,16.15599 43.58904,23.19325 11.1905,7.07862 39.96081,29.67399 l -3.17859,4.04998 -4.2274,2.93421 -5.6e-4,0.004 Q 225.22162,143.92423 207.19932,132.51562 189.2148,121.13488 162.2581,117.12672"
       id="path7"
       style="stroke-width:2.88374" />
  </g>
</svg>
