<?xml version="1.0" encoding="UTF-8" standalone="no"?>
<svg
   width="230"
   height="125.35"
   version="1.1"
   id="svg7"
   sodipodi:docname="roach.svg"
   inkscape:version="1.3.2 (091e20e, 2023-11-25, custom)"
   xmlns:inkscape="http://www.inkscape.org/namespaces/inkscape"
   xmlns:sodipodi="http://sodipodi.sourceforge.net/DTD/sodipodi-0.dtd"
   xmlns="http://www.w3.org/2000/svg"
   xmlns:svg="http://www.w3.org/2000/svg">
  <defs
     id="defs7" />
  <sodipodi:namedview
     id="namedview7"
     pagecolor="#505050"
     bordercolor="#eeeeee"
     borderopacity="1"
     inkscape:showpageshadow="0"
     inkscape:pageopacity="0"
     inkscape:pagecheckerboard="0"
     inkscape:deskcolor="#505050"
     inkscape:zoom="1.4142136"
     inkscape:cx="168.99852"
     inkscape:cy="218.14244"
     inkscape:window-width="1920"
     inkscape:window-height="1009"
     inkscape:window-x="3832"
     inkscape:window-y="-8"
     inkscape:window-maximized="1"
     inkscape:current-layer="svg7" />
  <clipPath
     id="a">
    <path
       d="m 13.333,9.167 h 83.334 q 4.166,0 4.166,4.166 v 83.334 q 0,4.166 -4.166,4.166 H 13.333 q -4.166,0 -4.166,-4.166 V 13.333 q 0,-4.166 4.166,-4.166"
       id="path1" />
  </clipPath>
  <g
     clip-path="url(#a)"
     id="g7"
     transform="matrix(-1.9404733,1.9404733,-1.9404733,-1.9404733,333.93605,62.673406)">
    <path
       fill="#6c3619"
       d="m 40.946,40.947 q 0.186,-0.186 0.38,-0.361 0.194,-0.177 0.396,-0.343 0.202,-0.166 0.413,-0.323 0.21,-0.155 0.428,-0.302 0.218,-0.146 0.443,-0.28 0.224,-0.135 0.455,-0.259 0.231,-0.123 0.467,-0.237 0.236,-0.112 0.479,-0.213 0.241,-0.1 0.487,-0.19 0.247,-0.088 0.497,-0.164 0.25,-0.076 0.504,-0.14 0.254,-0.064 0.51,-0.117 0.256,-0.051 0.515,-0.09 0.258,-0.04 0.519,-0.066 0.26,-0.026 0.52,-0.04 0.262,-0.013 0.523,-0.014 0.262,0 0.523,0.012 0.26,0.012 0.521,0.036 0.26,0.026 0.518,0.063 0.259,0.037 0.514,0.087 0.257,0.051 0.51,0.113 0.253,0.062 0.503,0.138 0.25,0.076 0.495,0.163 0.246,0.088 0.487,0.186 0.242,0.1 0.477,0.211 0.236,0.111 0.466,0.234 0.23,0.122 0.455,0.256 0.223,0.133 0.44,0.278 0.218,0.145 0.426,0.3 0.21,0.155 0.411,0.32 0.202,0.165 0.394,0.34 0.194,0.176 0.378,0.36 0.184,0.183 0.36,0.377 0.175,0.193 0.339,0.395 0.166,0.201 0.32,0.41 0.156,0.209 0.3,0.427 0.146,0.217 0.278,0.44 0.134,0.224 0.257,0.454 0.122,0.23 0.234,0.466 0.111,0.236 0.21,0.477 0.099,0.242 0.187,0.488 0.086,0.245 0.163,0.495 0.074,0.25 0.137,0.503 0.063,0.253 0.114,0.51 0.051,0.257 0.086,0.514 0.038,0.258 0.063,0.518 0.025,0.26 0.037,0.521 0.012,0.261 0.012,0.522 0,0.261 -0.015,0.524 -0.013,0.26 -0.04,0.52 -0.026,0.26 -0.065,0.519 -0.039,0.259 -0.09,0.514 -0.053,0.258 -0.117,0.51 -0.064,0.255 -0.14,0.505 -0.076,0.25 -0.165,0.497 -0.09,0.246 -0.19,0.487 -0.1,0.242 -0.213,0.479 -0.113,0.236 -0.236,0.467 -0.124,0.23 -0.26,0.455 -0.134,0.224 -0.28,0.442 -0.146,0.218 -0.301,0.428 -0.158,0.21 -0.323,0.413 -0.167,0.203 -0.343,0.396 -0.175,0.194 -0.361,0.38 -0.186,0.186 -0.38,0.361 -0.193,0.177 -0.396,0.343 -0.203,0.165 -0.413,0.323 -0.21,0.155 -0.428,0.302 -0.218,0.146 -0.442,0.28 -0.225,0.135 -0.456,0.259 -0.23,0.123 -0.466,0.237 -0.237,0.112 -0.48,0.213 -0.24,0.1 -0.487,0.19 -0.247,0.088 -0.497,0.164 -0.25,0.076 -0.504,0.14 -0.254,0.064 -0.51,0.117 -0.255,0.051 -0.515,0.09 -0.258,0.04 -0.518,0.066 -0.26,0.026 -0.522,0.04 -0.26,0.013 -0.522,0.014 -0.261,0 -0.522,-0.011 -0.261,-0.013 -0.522,-0.037 -0.259,-0.026 -0.517,-0.063 -0.26,-0.037 -0.515,-0.087 -0.256,-0.051 -0.51,-0.113 -0.253,-0.063 -0.503,-0.138 -0.25,-0.075 -0.495,-0.163 -0.246,-0.088 -0.487,-0.186 -0.241,-0.1 -0.477,-0.211 -0.236,-0.111 -0.466,-0.234 -0.23,-0.123 -0.454,-0.256 -0.224,-0.133 -0.44,-0.278 -0.218,-0.145 -0.427,-0.3 -0.209,-0.155 -0.41,-0.32 -0.201,-0.165 -0.395,-0.34 -0.194,-0.176 -0.378,-0.36 -0.184,-0.183 -0.36,-0.377 -0.175,-0.193 -0.339,-0.395 -0.165,-0.201 -0.32,-0.41 -0.156,-0.209 -0.3,-0.427 -0.145,-0.217 -0.278,-0.44 -0.134,-0.224 -0.256,-0.454 -0.123,-0.23 -0.234,-0.466 -0.111,-0.236 -0.212,-0.477 -0.098,-0.242 -0.185,-0.488 -0.087,-0.245 -0.163,-0.495 -0.075,-0.25 -0.138,-0.503 -0.062,-0.253 -0.113,-0.51 -0.05,-0.255 -0.087,-0.514 -0.038,-0.258 -0.063,-0.518 -0.025,-0.26 -0.037,-0.521 -0.012,-0.261 -0.011,-0.522 10e-4,-0.261 0.013,-0.523 0.014,-0.26 0.04,-0.521 0.027,-0.26 0.067,-0.519 0.038,-0.259 0.09,-0.514 0.052,-0.258 0.116,-0.51 0.064,-0.255 0.14,-0.505 0.076,-0.25 0.166,-0.497 0.09,-0.247 0.19,-0.487 0.1,-0.242 0.212,-0.479 0.113,-0.236 0.237,-0.467 0.123,-0.23 0.26,-0.455 0.133,-0.224 0.28,-0.442 0.145,-0.218 0.3,-0.428 0.157,-0.212 0.323,-0.413 0.167,-0.203 0.343,-0.396 0.176,-0.194 0.361,-0.38"
       id="path2" />
    <path
       fill="#522812"
       d="m 39.322,39.322 q 3.797,-3.796 9.154,-3.811 5.364,-0.016 9.149,3.769 3.784,3.784 3.77,9.149 -0.016,5.357 -3.814,9.153 -3.796,3.796 -9.152,3.812 -5.365,0.016 -9.15,-3.769 -3.784,-3.784 -3.769,-9.149 0.015,-5.357 3.812,-9.154 0.08,-0.08 0.168,-0.15 0.087,-0.072 0.18,-0.134 0.094,-0.064 0.194,-0.116 0.1,-0.054 0.204,-0.097 0.104,-0.043 0.212,-0.076 0.108,-0.033 0.219,-0.055 0.111,-0.022 0.222,-0.034 0.112,-0.01 0.225,-0.01 0.114,0 0.226,0.01 0.112,0.013 0.222,0.034 0.11,0.021 0.22,0.055 0.107,0.033 0.211,0.076 0.105,0.043 0.204,0.097 0.1,0.052 0.193,0.116 0.094,0.062 0.181,0.133 0.088,0.071 0.168,0.151 0.08,0.08 0.15,0.168 0.07,0.088 0.135,0.181 0.065,0.093 0.116,0.193 0.051,0.1 0.096,0.204 0.045,0.104 0.076,0.212 0.031,0.108 0.055,0.219 0.024,0.111 0.034,0.222 0.01,0.113 0.01,0.226 0,0.113 -0.01,0.225 -0.012,0.112 -0.034,0.223 -0.022,0.11 -0.055,0.218 -0.033,0.109 -0.076,0.212 -0.043,0.105 -0.096,0.204 -0.053,0.1 -0.116,0.193 -0.063,0.095 -0.134,0.181 -0.072,0.087 -0.152,0.167 -2.457,2.457 -2.466,5.92 -0.009,3.453 2.425,5.886 2.434,2.433 5.886,2.425 3.461,-0.01 5.918,-2.467 2.457,-2.457 2.468,-5.918 0.01,-3.455 -2.425,-5.887 -2.434,-2.434 -5.887,-2.425 -3.462,0.01 -5.919,2.466 -0.08,0.08 -0.167,0.152 -0.087,0.072 -0.18,0.134 -0.093,0.062 -0.194,0.116 -0.101,0.054 -0.204,0.096 -0.103,0.042 -0.212,0.076 -0.108,0.033 -0.219,0.055 -0.11,0.022 -0.222,0.034 -0.112,0.01 -0.226,0.01 -0.113,0 -0.225,-0.01 -0.112,-0.012 -0.222,-0.034 -0.11,-0.022 -0.22,-0.055 -0.107,-0.033 -0.211,-0.076 -0.105,-0.042 -0.204,-0.096 -0.1,-0.053 -0.193,-0.116 -0.094,-0.062 -0.181,-0.134 -0.088,-0.07 -0.168,-0.15 -0.08,-0.08 -0.15,-0.169 -0.07,-0.089 -0.135,-0.18 -0.065,-0.091 -0.116,-0.194 -0.051,-0.103 -0.096,-0.204 -0.043,-0.103 -0.076,-0.212 -0.033,-0.108 -0.055,-0.218 -0.022,-0.11 -0.034,-0.223 -0.01,-0.112 -0.01,-0.225 0,-0.113 0.01,-0.226 0.012,-0.112 0.034,-0.222 0.022,-0.11 0.055,-0.219 0.033,-0.109 0.076,-0.212 0.043,-0.105 0.096,-0.204 0.053,-0.1 0.116,-0.193 0.063,-0.094 0.134,-0.18 0.07,-0.089 0.151,-0.169"
       id="path3" />
    <path
       fill="#9b4e23"
       d="m 48.06,77.11 c 12.06,12.058 28.338,15.331 36.36,7.31 8.02,-8.022 4.746,-24.3 -7.311,-36.359 -6.6,-6.587 -14.829,-10.835 -22.38,-11.557 2.521,4.98 1.634,11.363 -2.614,15.611 -4.258,4.258 -10.66,5.141 -15.643,2.599 0.729,7.562 4.99,15.794 11.59,22.394 z"
       id="path4" />
    <path
       fill="#843e16"
       d="m 49.685,75.485 q 8.554,8.553 18.522,10.558 9.443,1.9 14.59,-3.246 5.145,-5.147 3.245,-14.589 -2.004,-9.97 -10.558,-18.522 -9.85,-9.832 -20.973,-10.895 l 0.217,-2.287 2.05,-1.038 q 2.252,4.447 1.451,9.48 -0.814,5.119 -4.49,8.794 -3.683,3.683 -8.815,4.493 -5.047,0.797 -9.497,-1.473 l 1.045,-2.046 2.286,-0.22 q 1.074,11.136 10.927,20.99 0.08,0.08 0.152,0.168 0.072,0.086 0.134,0.18 0.062,0.094 0.116,0.194 0.054,0.1 0.096,0.204 0.044,0.103 0.077,0.212 0.033,0.108 0.054,0.218 0.022,0.11 0.034,0.223 0.01,0.112 0.01,0.225 0,0.113 -0.01,0.226 -0.012,0.112 -0.034,0.222 -0.021,0.11 -0.054,0.219 -0.033,0.108 -0.077,0.212 -0.042,0.105 -0.096,0.204 -0.053,0.1 -0.116,0.193 -0.062,0.094 -0.134,0.18 -0.07,0.089 -0.15,0.169 h -0.002 l -1.624,-1.624 z m -3.249,3.249 q -0.08,-0.08 -0.15,-0.168 -0.072,-0.087 -0.134,-0.181 -0.062,-0.094 -0.116,-0.193 -0.054,-0.099 -0.096,-0.204 -0.044,-0.104 -0.077,-0.212 -0.033,-0.109 -0.054,-0.219 -0.022,-0.11 -0.034,-0.222 -0.01,-0.113 -0.01,-0.226 0,-0.113 0.01,-0.224 0.01,-0.111 0.034,-0.224 0.021,-0.11 0.054,-0.218 0.033,-0.109 0.077,-0.213 0.042,-0.104 0.096,-0.203 0.053,-0.1 0.116,-0.193 0.062,-0.095 0.134,-0.181 0.07,-0.088 0.15,-0.168 l 10e-4,-0.001 1.625,1.624 -1.625,1.625 q -11.02,-11.02 -12.251,-23.8 -0.032,-0.326 0.03,-0.648 0.061,-0.324 0.21,-0.616 0.05,-0.1 0.112,-0.195 0.062,-0.095 0.131,-0.184 0.07,-0.089 0.148,-0.169 0.079,-0.082 0.164,-0.154 0.087,-0.074 0.18,-0.138 0.09,-0.065 0.19,-0.12 0.098,-0.055 0.202,-0.1 0.103,-0.046 0.21,-0.08 0.107,-0.035 0.219,-0.06 0.11,-0.023 0.221,-0.036 0.112,-0.014 0.226,-0.016 0.113,-0.002 0.225,0.007 0.112,0.009 0.223,0.029 0.111,0.02 0.22,0.05 0.108,0.03 0.214,0.072 0.104,0.042 0.206,0.093 7.148,3.648 12.974,-2.177 5.806,-5.807 2.189,-12.949 -0.148,-0.291 -0.209,-0.612 -0.06,-0.32 -0.029,-0.644 0.011,-0.113 0.033,-0.223 0.02,-0.111 0.054,-0.22 0.032,-0.107 0.074,-0.212 0.044,-0.103 0.097,-0.203 0.052,-0.1 0.116,-0.194 0.062,-0.094 0.132,-0.182 0.072,-0.086 0.151,-0.167 0.08,-0.08 0.167,-0.152 0.087,-0.072 0.181,-0.134 0.094,-0.062 0.193,-0.117 0.1,-0.053 0.204,-0.097 0.104,-0.044 0.212,-0.077 0.108,-0.033 0.218,-0.055 0.11,-0.022 0.223,-0.034 0.113,-0.012 0.226,-0.011 0.112,-10e-4 0.223,0.01 12.767,1.22 23.787,12.219 9.534,9.535 11.813,20.865 2.384,11.856 -4.501,18.743 -6.887,6.885 -18.743,4.501 -11.33,-2.278 -20.866,-11.812"
       id="path5" />
    <path
       fill="#353535"
       d="M 40.033,48.168 Q 34.127,43.73 28.55,42.4 22.966,41.066 15.459,42.307 l -0.268,-1.618 0.219,-1.625 q 9.835,1.322 13.341,2.16 3.506,0.837 12.807,4.084 l -0.54,1.548 z m 1.97,-2.623 q 0.103,0.078 0.195,0.171 0.09,0.094 0.164,0.2 0.073,0.106 0.13,0.222 0.057,0.117 0.095,0.241 0.038,0.125 0.056,0.252 0.018,0.13 0.015,0.258 -0.002,0.13 -0.026,0.258 -0.022,0.128 -0.066,0.25 -0.026,0.076 -0.06,0.15 -0.033,0.072 -0.075,0.142 -0.04,0.069 -0.088,0.134 -0.047,0.066 -0.101,0.125 -0.055,0.06 -0.113,0.115 -0.06,0.054 -0.124,0.103 -0.064,0.049 -0.134,0.09 -0.067,0.042 -0.14,0.077 -0.074,0.036 -0.148,0.063 -0.076,0.028 -0.154,0.048 -0.078,0.02 -0.157,0.033 -0.079,0.013 -0.16,0.017 -0.081,0.004 -0.162,0 -0.08,-0.002 -0.16,-0.014 -0.08,-0.01 -0.158,-0.03 -0.079,-0.018 -0.155,-0.046 -9.142,-3.191 -12.487,-3.99 -3.345,-0.799 -13.017,-2.1 -0.13,-0.017 -0.255,-0.054 -0.125,-0.039 -0.242,-0.095 -0.118,-0.058 -0.225,-0.133 -0.107,-0.075 -0.201,-0.165 -0.094,-0.092 -0.172,-0.197 -0.079,-0.105 -0.14,-0.22 -0.06,-0.116 -0.102,-0.24 -0.04,-0.124 -0.062,-0.253 -0.013,-0.079 -0.019,-0.16 -0.005,-0.08 -0.003,-0.161 0.003,-0.08 0.013,-0.16 0.012,-0.08 0.03,-0.158 0.019,-0.08 0.044,-0.156 0.025,-0.076 0.058,-0.149 0.033,-0.073 0.074,-0.143 0.041,-0.07 0.087,-0.136 0.048,-0.065 0.1,-0.125 0.054,-0.061 0.113,-0.116 0.058,-0.055 0.121,-0.105 0.065,-0.049 0.133,-0.091 0.07,-0.043 0.14,-0.078 0.073,-0.035 0.149,-0.064 0.074,-0.029 0.154,-0.05 0.077,-0.02 0.156,-0.033 8.162,-1.35 14.39,0.137 6.239,1.49 12.69,6.336 m 3.541,-3.541 q -4.846,-6.451 -6.336,-12.69 -1.488,-6.227 -0.138,-14.39 0.013,-0.079 0.034,-0.156 0.02,-0.08 0.05,-0.155 0.028,-0.074 0.063,-0.147 0.036,-0.072 0.079,-0.14 0.042,-0.07 0.091,-0.133 0.05,-0.063 0.105,-0.122 0.055,-0.06 0.116,-0.112 0.06,-0.053 0.125,-0.101 0.065,-0.046 0.136,-0.087 0.07,-0.04 0.143,-0.073 0.073,-0.033 0.15,-0.059 0.077,-0.026 0.155,-0.044 0.078,-0.018 0.157,-0.03 0.08,-0.01 0.161,-0.012 0.08,-0.002 0.16,0.002 0.082,0.006 0.16,0.02 0.13,0.02 0.254,0.061 0.124,0.042 0.24,0.103 0.116,0.061 0.22,0.139 0.105,0.079 0.197,0.172 0.09,0.095 0.165,0.201 0.075,0.108 0.133,0.225 0.056,0.117 0.095,0.243 0.037,0.125 0.055,0.254 1.3,9.673 2.1,13.018 0.797,3.347 3.99,12.486 0.026,0.077 0.044,0.155 0.02,0.078 0.03,0.158 0.012,0.08 0.016,0.16 0.002,0.08 -10e-4,0.162 -0.005,0.08 -0.018,0.16 -0.013,0.08 -0.032,0.158 -0.021,0.077 -0.048,0.153 -0.028,0.075 -0.063,0.147 -0.034,0.073 -0.077,0.142 -0.041,0.07 -0.09,0.134 -0.05,0.064 -0.103,0.123 -0.055,0.059 -0.115,0.113 -0.06,0.054 -0.126,0.101 -0.064,0.047 -0.133,0.089 -0.07,0.04 -0.143,0.074 -0.073,0.034 -0.149,0.06 -0.122,0.044 -0.25,0.067 -0.128,0.023 -0.258,0.025 -0.13,0.003 -0.258,-0.015 -0.128,-0.018 -0.252,-0.056 -0.124,-0.038 -0.241,-0.094 -0.116,-0.058 -0.222,-0.131 -0.106,-0.075 -0.2,-0.164 -0.093,-0.092 -0.171,-0.194 m 2.622,-1.97 -1.311,0.984 -1.548,0.542 Q 42.06,32.26 41.224,28.753 40.386,25.246 39.064,15.411 l 1.625,-0.219 1.618,0.268 q -1.243,7.508 0.092,13.092 1.332,5.575 5.768,11.481"
       id="path6" />
    <path
       fill="#843e16"
       d="m 50.722,59.994 q 0.286,-0.102 0.577,-0.185 0.29,-0.083 0.583,-0.146 0.293,-0.064 0.587,-0.106 0.293,-0.04 0.582,-0.062 0.29,-0.021 0.575,-0.021 0.285,0.002 0.56,0.024 0.277,0.022 0.54,0.066 0.266,0.042 0.516,0.106 0.252,0.065 0.486,0.15 0.235,0.084 0.451,0.188 0.216,0.104 0.412,0.226 0.196,0.122 0.37,0.262 0.174,0.14 0.322,0.295 0.148,0.155 0.274,0.324 0.123,0.171 0.22,0.353 0.098,0.182 0.167,0.376 0.07,0.192 0.112,0.396 0.041,0.202 0.053,0.412 0.013,0.21 -0.003,0.424 -0.016,0.216 -0.06,0.434 -0.046,0.217 -0.119,0.437 -0.073,0.218 -0.173,0.437 -0.1,0.218 -0.228,0.432 -0.127,0.215 -0.28,0.424 -0.152,0.21 -0.328,0.412 -0.176,0.202 -0.376,0.394 -0.2,0.192 -0.416,0.375 -0.219,0.182 -0.456,0.35 -0.236,0.169 -0.489,0.324 -0.253,0.154 -0.52,0.293 -0.265,0.138 -0.542,0.26 -0.277,0.12 -0.562,0.223 -0.286,0.102 -0.576,0.185 -0.29,0.083 -0.584,0.146 -0.293,0.064 -0.587,0.106 -0.293,0.04 -0.582,0.062 -0.29,0.021 -0.575,0.021 -0.285,-0.002 -0.56,-0.024 -0.277,-0.022 -0.54,-0.066 -0.265,-0.042 -0.516,-0.106 -0.252,-0.065 -0.486,-0.15 -0.235,-0.084 -0.451,-0.188 -0.216,-0.104 -0.411,-0.226 -0.197,-0.122 -0.37,-0.262 -0.174,-0.14 -0.323,-0.295 -0.149,-0.155 -0.274,-0.324 -0.123,-0.171 -0.22,-0.353 -0.098,-0.182 -0.167,-0.376 -0.07,-0.193 -0.112,-0.396 -0.041,-0.202 -0.053,-0.412 -0.013,-0.21 0.003,-0.424 0.016,-0.216 0.06,-0.434 0.046,-0.217 0.119,-0.437 0.073,-0.218 0.174,-0.436 0.1,-0.219 0.227,-0.433 0.127,-0.215 0.28,-0.424 0.152,-0.21 0.328,-0.412 0.176,-0.202 0.376,-0.394 0.2,-0.192 0.416,-0.376 0.22,-0.18 0.456,-0.35 0.236,-0.168 0.489,-0.323 0.253,-0.154 0.52,-0.293 0.265,-0.138 0.542,-0.26 0.277,-0.12 0.562,-0.223 m 9.27,-9.269 q 0.103,-0.286 0.224,-0.563 0.121,-0.277 0.259,-0.542 0.138,-0.267 0.293,-0.52 0.155,-0.252 0.323,-0.49 0.17,-0.236 0.35,-0.454 0.183,-0.22 0.376,-0.417 0.193,-0.2 0.394,-0.375 0.202,-0.177 0.412,-0.33 0.209,-0.152 0.424,-0.279 0.214,-0.127 0.433,-0.227 0.217,-0.1 0.436,-0.174 0.22,-0.073 0.437,-0.118 0.217,-0.044 0.433,-0.06 0.214,-0.016 0.425,-0.004 0.21,0.012 0.412,0.054 0.203,0.041 0.396,0.11 0.194,0.07 0.376,0.168 0.182,0.097 0.352,0.22 0.17,0.125 0.325,0.274 0.155,0.149 0.295,0.323 0.14,0.174 0.262,0.37 0.122,0.196 0.226,0.41 0.104,0.218 0.188,0.452 0.085,0.234 0.15,0.486 0.064,0.25 0.106,0.516 0.044,0.264 0.065,0.54 0.023,0.275 0.025,0.56 0,0.285 -0.02,0.575 -0.023,0.29 -0.063,0.583 -0.043,0.293 -0.106,0.586 -0.063,0.293 -0.146,0.584 -0.083,0.291 -0.186,0.576 -0.103,0.285 -0.223,0.563 -0.12,0.278 -0.26,0.542 -0.138,0.267 -0.293,0.52 -0.154,0.252 -0.323,0.489 -0.169,0.236 -0.35,0.455 -0.183,0.219 -0.375,0.417 -0.193,0.199 -0.394,0.375 -0.203,0.176 -0.412,0.329 -0.21,0.153 -0.424,0.279 -0.214,0.126 -0.432,0.228 -0.219,0.1 -0.438,0.174 -0.22,0.072 -0.436,0.117 -0.218,0.045 -0.434,0.06 -0.214,0.017 -0.424,0.005 -0.21,-0.012 -0.412,-0.054 -0.204,-0.042 -0.396,-0.111 -0.194,-0.07 -0.376,-0.167 -0.182,-0.097 -0.353,-0.22 -0.17,-0.125 -0.324,-0.274 -0.156,-0.15 -0.295,-0.324 -0.14,-0.173 -0.262,-0.37 -0.122,-0.194 -0.227,-0.41 -0.103,-0.217 -0.187,-0.452 -0.085,-0.234 -0.15,-0.486 -0.064,-0.25 -0.107,-0.515 -0.043,-0.264 -0.065,-0.54 -0.022,-0.276 -0.024,-0.56 0,-0.285 0.02,-0.576 0.022,-0.289 0.063,-0.582 0.042,-0.293 0.105,-0.587 0.063,-0.293 0.146,-0.583 0.083,-0.29 0.186,-0.576 M 61.9,71.727 q 5.375,4.647 12.184,6.676 0.125,0.037 0.245,0.086 0.118,0.049 0.232,0.108 0.114,0.061 0.222,0.131 0.107,0.072 0.207,0.153 0.101,0.082 0.192,0.172 0.092,0.09 0.174,0.19 0.083,0.1 0.155,0.205 0.071,0.108 0.134,0.22 0.061,0.115 0.11,0.234 0.05,0.119 0.089,0.241 0.037,0.125 0.064,0.25 0.025,0.126 0.038,0.255 0.014,0.128 0.015,0.257 0,0.13 -0.013,0.257 -0.011,0.129 -0.036,0.255 -0.025,0.126 -0.06,0.25 -0.039,0.124 -0.087,0.244 -0.049,0.119 -0.108,0.233 -0.061,0.114 -0.131,0.221 -0.072,0.108 -0.153,0.208 -0.082,0.1 -0.172,0.191 -0.09,0.093 -0.19,0.175 -0.1,0.083 -0.206,0.155 -0.107,0.07 -0.22,0.133 -0.114,0.061 -0.233,0.11 -0.119,0.051 -0.241,0.089 -0.125,0.038 -0.251,0.064 -0.125,0.026 -0.254,0.039 -0.128,0.013 -0.257,0.014 -0.13,0 -0.257,-0.012 -0.129,-0.012 -0.255,-0.036 -0.126,-0.025 -0.25,-0.061 -7.891,-2.352 -14.118,-7.736 -0.098,-0.085 -0.188,-0.178 -0.088,-0.094 -0.167,-0.196 -0.08,-0.101 -0.148,-0.21 -0.07,-0.11 -0.127,-0.225 -0.058,-0.114 -0.105,-0.235 -0.045,-0.12 -0.08,-0.244 -0.034,-0.125 -0.056,-0.252 -0.022,-0.127 -0.03,-0.255 -0.011,-0.13 -0.007,-0.258 0.003,-0.129 0.02,-0.257 0.015,-0.128 0.044,-0.254 0.029,-0.126 0.069,-0.248 0.04,-0.122 0.093,-0.24 0.053,-0.118 0.115,-0.23 0.064,-0.111 0.139,-0.218 0.074,-0.105 0.158,-0.202 0.085,-0.098 0.178,-0.187 0.093,-0.088 0.195,-0.167 0.102,-0.079 0.211,-0.15 0.109,-0.068 0.225,-0.125 0.114,-0.058 0.235,-0.105 0.12,-0.045 0.244,-0.08 0.124,-0.034 0.252,-0.056 0.127,-0.022 0.255,-0.031 0.13,-0.01 0.257,-0.007 0.13,0.003 0.258,0.02 0.128,0.015 0.253,0.045 0.127,0.028 0.248,0.068 0.123,0.04 0.24,0.094 0.119,0.052 0.23,0.115 0.112,0.064 0.219,0.138 0.104,0.075 0.201,0.159 M 75.697,58.469 q 5.385,6.227 7.736,14.118 0.037,0.124 0.062,0.25 0.024,0.127 0.035,0.255 0.014,0.128 0.013,0.257 -0.001,0.13 -0.015,0.258 -0.014,0.128 -0.038,0.253 -0.027,0.127 -0.064,0.251 -0.038,0.123 -0.089,0.241 -0.049,0.12 -0.11,0.233 -0.062,0.113 -0.134,0.22 -0.072,0.106 -0.155,0.206 -0.082,0.1 -0.174,0.19 -0.09,0.09 -0.192,0.172 -0.1,0.082 -0.207,0.153 -0.107,0.071 -0.222,0.131 -0.115,0.06 -0.232,0.109 -0.12,0.048 -0.245,0.085 -0.123,0.037 -0.25,0.062 -0.126,0.024 -0.254,0.036 -0.128,0.013 -0.257,0.012 -0.13,-0.001 -0.258,-0.014 -0.128,-0.013 -0.253,-0.039 -0.125,-0.026 -0.251,-0.064 -0.123,-0.038 -0.242,-0.089 -0.118,-0.049 -0.232,-0.11 -0.114,-0.062 -0.221,-0.134 -0.106,-0.072 -0.206,-0.154 -0.099,-0.083 -0.19,-0.175 -0.09,-0.09 -0.172,-0.191 -0.08,-0.1 -0.152,-0.208 -0.07,-0.107 -0.131,-0.221 -0.06,-0.114 -0.109,-0.233 -0.048,-0.12 -0.086,-0.244 -2.029,-6.81 -6.676,-12.184 -0.084,-0.097 -0.158,-0.202 -0.074,-0.107 -0.139,-0.218 -0.063,-0.112 -0.115,-0.23 -0.052,-0.118 -0.093,-0.24 -0.04,-0.122 -0.069,-0.248 -0.029,-0.126 -0.044,-0.254 -0.017,-0.128 -0.02,-0.257 -0.004,-0.128 0.007,-0.258 0.01,-0.128 0.03,-0.255 0.022,-0.127 0.056,-0.252 0.035,-0.123 0.08,-0.244 0.048,-0.12 0.105,-0.235 0.058,-0.116 0.127,-0.224 0.07,-0.11 0.149,-0.211 0.079,-0.102 0.166,-0.196 0.09,-0.093 0.188,-0.178 0.097,-0.084 0.202,-0.158 0.106,-0.075 0.218,-0.139 0.112,-0.063 0.23,-0.115 0.117,-0.053 0.24,-0.093 0.123,-0.04 0.248,-0.069 0.125,-0.03 0.254,-0.044 0.128,-0.017 0.257,-0.02 0.128,-0.004 0.257,0.007 0.129,0.009 0.256,0.03 0.127,0.022 0.252,0.056 0.123,0.035 0.244,0.08 0.12,0.048 0.235,0.105 0.116,0.058 0.224,0.126 0.11,0.07 0.211,0.15 0.102,0.079 0.195,0.166 0.094,0.09 0.178,0.188"
       id="path7" />
  </g>
</svg>
