<?xml version="1.0" encoding="UTF-8" standalone="no"?>
<svg
   width="180.55904"
   height="201.53284"
   version="1.1"
   id="svg6"
   sodipodi:docname="shell.svg"
   inkscape:version="1.3.2 (091e20e, 2023-11-25, custom)"
   xmlns:inkscape="http://www.inkscape.org/namespaces/inkscape"
   xmlns:sodipodi="http://sodipodi.sourceforge.net/DTD/sodipodi-0.dtd"
   xmlns="http://www.w3.org/2000/svg"
   xmlns:svg="http://www.w3.org/2000/svg">
  <defs
     id="defs6" />
  <sodipodi:namedview
     id="namedview6"
     pagecolor="#ffffff"
     bordercolor="#000000"
     borderopacity="0.25"
     inkscape:showpageshadow="2"
     inkscape:pageopacity="0.0"
     inkscape:pagecheckerboard="0"
     inkscape:deskcolor="#d1d1d1"
     inkscape:zoom="1.9568182"
     inkscape:cx="9.9651568"
     inkscape:cy="66.689895"
     inkscape:window-width="1920"
     inkscape:window-height="1057"
     inkscape:window-x="-8"
     inkscape:window-y="-8"
     inkscape:window-maximized="1"
     inkscape:current-layer="svg6" />
  <clipPath
     id="a">
    <path
       d="m 13.333,9.167 h 83.334 q 4.166,0 4.166,4.166 v 83.334 q 0,4.166 -4.166,4.166 H 13.333 q -4.166,0 -4.166,-4.166 V 13.333 q 0,-4.166 4.166,-4.166"
       id="path1" />
  </clipPath>
  <g
     clip-path="url(#a)"
     id="g6"
     transform="matrix(-2.3849972,2.2069656,-2.2069656,-2.3849972,337.25053,109.76881)">
    <path
       fill="#ccb36d"
       d="M 60.657,81.87 Q 67.727,67.728 81.87,60.657 L 59.243,55 55,59.243 Z"
       id="path2" />
    <path
       fill="none"
       stroke="#ccb36d"
       stroke-linecap="round"
       stroke-linejoin="round"
       stroke-width="5"
       d="M 60.657,81.87 Q 67.727,67.728 81.87,60.657 L 59.243,55 55,59.243 Z"
       id="path3" />
    <path
       fill="#fcdd86"
       d="m 30.391,70.741 q -0.334,-0.656 -0.636,-1.328 -0.302,-0.672 -0.57,-1.358 -0.268,-0.686 -0.503,-1.384 -0.235,-0.698 -0.434,-1.406 -0.2,-0.71 -0.365,-1.427 -0.165,-0.717 -0.294,-1.443 -0.129,-0.726 -0.224,-1.455 -0.093,-0.73 -0.151,-1.465 -0.058,-0.734 -0.08,-1.47 -0.022,-0.736 -0.007,-1.473 0.015,-0.737 0.065,-1.47 0.05,-0.733 0.137,-1.467 0.087,-0.734 0.21,-1.457 0.121,-0.727 0.28,-1.446 0.157,-0.72 0.35,-1.43 0.193,-0.71 0.42,-1.411 0.228,-0.7 0.49,-1.39 0.262,-0.687 0.557,-1.362 0.295,-0.675 0.623,-1.334 0.328,-0.659 0.687,-1.302 0.36,-0.643 0.751,-1.267 0.391,-0.624 0.812,-1.228 0.421,-0.604 0.872,-1.187 0.451,-0.583 0.928,-1.143 0.477,-0.56 0.984,-1.096 0.507,-0.536 1.036,-1.046 0.529,-0.51 1.086,-0.995 0.557,-0.485 1.133,-0.94 0.579,-0.455 1.179,-0.882 0.6,-0.427 1.22,-0.824 0.62,-0.397 1.26,-0.763 0.64,-0.366 1.295,-0.7 0.787,-0.402 1.597,-0.756 0.81,-0.354 1.639,-0.66 0.829,-0.306 1.675,-0.563 0.846,-0.257 1.705,-0.463 0.859,-0.206 1.73,-0.361 0.87,-0.156 1.747,-0.26 0.877,-0.104 1.76,-0.156 0.883,-0.052 1.766,-0.052 0.883,0 1.766,0.052 0.883,0.052 1.76,0.156 0.877,0.104 1.748,0.26 0.871,0.156 1.73,0.361 0.859,0.205 1.705,0.463 0.846,0.258 1.675,0.563 0.829,0.305 1.639,0.66 0.81,0.355 1.597,0.755 0.522,12.588 2.644,31.68 -2.122,9.192 -11.314,11.314 -19.092,-2.122 -31.68,-2.644"
       id="path4" />
    <path
       fill="none"
       stroke="#ccb36d"
       stroke-linecap="round"
       stroke-linejoin="round"
       stroke-width="5"
       d="m 30.391,70.741 q -0.334,-0.656 -0.636,-1.328 -0.302,-0.672 -0.57,-1.358 -0.268,-0.686 -0.503,-1.384 -0.235,-0.698 -0.434,-1.406 -0.2,-0.71 -0.365,-1.427 -0.165,-0.717 -0.294,-1.443 -0.129,-0.726 -0.224,-1.455 -0.093,-0.73 -0.151,-1.465 -0.058,-0.734 -0.08,-1.47 -0.022,-0.736 -0.007,-1.473 0.015,-0.737 0.065,-1.47 0.05,-0.733 0.137,-1.467 0.087,-0.734 0.21,-1.457 0.121,-0.727 0.28,-1.446 0.157,-0.72 0.35,-1.43 0.193,-0.71 0.42,-1.411 0.228,-0.7 0.49,-1.39 0.262,-0.687 0.557,-1.362 0.295,-0.675 0.623,-1.334 0.328,-0.659 0.687,-1.302 0.36,-0.643 0.751,-1.267 0.391,-0.624 0.812,-1.228 0.421,-0.604 0.872,-1.187 0.451,-0.583 0.928,-1.143 0.477,-0.56 0.984,-1.096 0.507,-0.536 1.036,-1.046 0.529,-0.51 1.086,-0.995 0.557,-0.485 1.133,-0.94 0.579,-0.455 1.179,-0.882 0.6,-0.427 1.22,-0.824 0.62,-0.397 1.26,-0.763 0.64,-0.366 1.295,-0.7 0.787,-0.402 1.597,-0.756 0.81,-0.354 1.639,-0.66 0.829,-0.306 1.675,-0.563 0.846,-0.257 1.705,-0.463 0.859,-0.206 1.73,-0.361 0.87,-0.156 1.747,-0.26 0.877,-0.104 1.76,-0.156 0.883,-0.052 1.766,-0.052 0.883,0 1.766,0.052 0.883,0.052 1.76,0.156 0.877,0.104 1.748,0.26 0.871,0.156 1.73,0.361 0.859,0.205 1.705,0.463 0.846,0.258 1.675,0.563 0.829,0.305 1.639,0.66 0.81,0.355 1.597,0.755 0.522,12.588 2.644,31.68 -2.122,9.192 -11.314,11.314 -19.092,-2.122 -31.68,-2.644"
       id="path5" />
    <path
       fill="none"
       stroke="#ccb36d"
       stroke-linecap="round"
       stroke-linejoin="round"
       stroke-width="4"
       d="m 59.243,38.03 q 3.535,13.434 7.07,21.213 M 49.06,40.575 Q 59.384,54.859 62.92,60.091 M 40.575,49.06 Q 54.859,59.384 60.091,62.92 M 38.03,59.243 q 13.434,3.535 21.213,7.07"
       id="path6" />
  </g>
</svg>
