<?xml version="1.0" encoding="UTF-8" standalone="no"?>
<svg
   width="200"
   height="200.00302"
   version="1.1"
   id="svg6"
   sodipodi:docname="starfish.svg"
   inkscape:version="1.3.2 (091e20e, 2023-11-25, custom)"
   xmlns:inkscape="http://www.inkscape.org/namespaces/inkscape"
   xmlns:sodipodi="http://sodipodi.sourceforge.net/DTD/sodipodi-0.dtd"
   xmlns="http://www.w3.org/2000/svg"
   xmlns:svg="http://www.w3.org/2000/svg">
  <defs
     id="defs6" />
  <sodipodi:namedview
     id="namedview6"
     pagecolor="#ffffff"
     bordercolor="#000000"
     borderopacity="0.25"
     inkscape:showpageshadow="2"
     inkscape:pageopacity="0.0"
     inkscape:pagecheckerboard="0"
     inkscape:deskcolor="#d1d1d1"
     inkscape:zoom="3.9136364"
     inkscape:cx="19.291521"
     inkscape:cy="34.622532"
     inkscape:window-width="1920"
     inkscape:window-height="1057"
     inkscape:window-x="-8"
     inkscape:window-y="-8"
     inkscape:window-maximized="1"
     inkscape:current-layer="svg6" />
  <clipPath
     id="a">
    <path
       d="m 13.333,9.167 h 83.334 q 4.166,0 4.166,4.166 v 83.334 q 0,4.166 -4.166,4.166 H 13.333 q -4.166,0 -4.166,-4.166 V 13.333 q 0,-4.166 4.166,-4.166"
       id="path1" />
  </clipPath>
  <g
     clip-path="url(#a)"
     id="g6"
     transform="matrix(3.0146424,0,0,3.0146424,-70.175153,-70.175153)">
    <path
       fill="#a9403e"
       d="M 33.787,33.787 Q 54.62,52.603 68.62,28.27 57.163,53.898 84.63,59.693 56.716,56.716 59.693,84.631 53.898,57.163 28.27,68.62 q 24.333,-14 5.517,-34.833"
       id="path2" />
    <path
       fill="none"
       stroke="#a9403e"
       stroke-linecap="round"
       stroke-linejoin="round"
       stroke-width="10"
       d="M 33.787,33.787 Q 54.62,52.603 68.62,28.27 v 0 Q 57.163,53.898 84.63,59.693 v 0 Q 56.716,56.716 59.693,84.631 v 0 Q 53.898,57.163 28.27,68.62 v 0 q 24.333,-14 5.517,-34.833"
       id="path3" />
    <path
       fill="#d14f4d"
       d="M 33.787,33.787 Q 54.62,52.603 68.62,28.27 57.163,53.898 84.63,59.693 56.716,56.716 59.693,84.631 53.898,57.163 28.27,68.62 q 24.333,-14 5.517,-34.833"
       id="path4" />
    <path
       fill="none"
       stroke="#d14f4d"
       stroke-linecap="round"
       stroke-linejoin="round"
       stroke-width="5"
       d="M 33.787,33.787 Q 54.62,52.603 68.62,28.27 v 0 Q 57.163,53.898 84.63,59.693 v 0 Q 56.716,56.716 59.693,84.631 v 0 Q 53.898,57.163 28.27,68.62 v 0 q 24.333,-14 5.517,-34.833"
       id="path5" />
    <path
       fill="#d4766c"
       d="m 35.908,35.908 q 0.07,-0.07 0.146,-0.132 0.076,-0.062 0.157,-0.117 0.082,-0.054 0.169,-0.1 0.086,-0.047 0.177,-0.084 0.09,-0.038 0.185,-0.067 0.094,-0.028 0.19,-0.047 0.096,-0.02 0.194,-0.029 0.098,-0.009 0.196,-0.01 0.099,0 0.196,0.01 0.098,0.01 0.195,0.029 0.096,0.019 0.19,0.047 0.094,0.029 0.185,0.067 0.09,0.037 0.177,0.083 0.087,0.046 0.168,0.101 0.081,0.055 0.158,0.117 0.077,0.062 0.146,0.132 0.069,0.07 0.131,0.146 0.062,0.076 0.117,0.157 0.055,0.081 0.101,0.169 0.046,0.088 0.084,0.177 0.038,0.09 0.066,0.185 0.029,0.094 0.048,0.19 0.019,0.096 0.029,0.194 0.01,0.098 0.01,0.196 0,0.098 -0.01,0.196 -0.01,0.098 -0.03,0.194 -0.018,0.097 -0.047,0.19 -0.028,0.095 -0.066,0.186 -0.037,0.09 -0.084,0.177 -0.046,0.087 -0.1,0.168 -0.054,0.081 -0.118,0.158 -0.064,0.077 -0.131,0.146 -0.067,0.069 -0.146,0.131 -0.079,0.062 -0.158,0.117 -0.081,0.055 -0.168,0.101 -0.087,0.046 -0.177,0.084 -0.09,0.038 -0.185,0.066 -0.095,0.028 -0.19,0.048 -0.097,0.02 -0.195,0.029 -0.097,0.01 -0.196,0.01 -0.098,0 -0.196,-0.01 -0.098,-0.01 -0.194,-0.03 -0.096,-0.018 -0.19,-0.047 -0.094,-0.028 -0.185,-0.066 -0.09,-0.038 -0.177,-0.084 -0.087,-0.046 -0.169,-0.1 -0.082,-0.055 -0.157,-0.118 -0.076,-0.062 -0.146,-0.131 -0.07,-0.07 -0.132,-0.146 -0.062,-0.076 -0.117,-0.158 -0.055,-0.082 -0.1,-0.168 -0.045,-0.086 -0.084,-0.177 -0.039,-0.091 -0.067,-0.185 -0.028,-0.094 -0.047,-0.19 -0.02,-0.097 -0.03,-0.195 -0.009,-0.097 -0.009,-0.196 0,-0.098 0.01,-0.196 0.01,-0.098 0.029,-0.194 0.019,-0.096 0.047,-0.19 0.028,-0.094 0.067,-0.185 0.039,-0.091 0.083,-0.177 0.044,-0.086 0.101,-0.169 0.057,-0.083 0.117,-0.157 0.06,-0.074 0.132,-0.146 m 4.242,4.242 q 0.105,-0.103 0.219,-0.197 0.114,-0.093 0.236,-0.175 0.123,-0.082 0.253,-0.152 0.13,-0.07 0.266,-0.126 0.136,-0.056 0.277,-0.099 0.141,-0.043 0.286,-0.071 0.144,-0.029 0.291,-0.043 0.147,-0.015 0.294,-0.015 0.147,0 0.294,0.015 0.147,0.015 0.291,0.043 0.145,0.028 0.286,0.071 0.141,0.043 0.277,0.1 0.136,0.057 0.266,0.125 0.13,0.068 0.253,0.152 0.122,0.082 0.236,0.175 0.114,0.094 0.218,0.198 0.105,0.104 0.198,0.218 0.093,0.114 0.176,0.236 0.081,0.123 0.15,0.253 0.07,0.13 0.127,0.266 0.057,0.136 0.099,0.277 0.042,0.141 0.071,0.286 0.029,0.145 0.044,0.291 0.015,0.146 0.014,0.294 -10e-4,0.148 -0.014,0.294 -0.013,0.146 -0.044,0.291 -0.031,0.145 -0.071,0.286 -0.043,0.14 -0.1,0.277 -0.056,0.136 -0.125,0.266 -0.07,0.13 -0.151,0.253 -0.082,0.122 -0.176,0.236 -0.094,0.114 -0.198,0.218 -0.104,0.104 -0.218,0.198 -0.114,0.094 -0.236,0.176 -0.123,0.081 -0.253,0.15 -0.13,0.07 -0.266,0.127 -0.136,0.057 -0.277,0.099 -0.141,0.042 -0.286,0.071 -0.145,0.029 -0.29,0.044 -0.148,0.014 -0.295,0.014 -0.147,0 -0.294,-0.014 -0.147,-0.014 -0.291,-0.044 -0.145,-0.028 -0.286,-0.071 -0.141,-0.043 -0.277,-0.1 -0.136,-0.057 -0.266,-0.125 -0.13,-0.068 -0.253,-0.151 -0.122,-0.082 -0.236,-0.176 -0.114,-0.094 -0.218,-0.198 -0.104,-0.104 -0.198,-0.218 -0.094,-0.114 -0.175,-0.236 -0.082,-0.123 -0.152,-0.253 -0.07,-0.13 -0.126,-0.266 -0.056,-0.136 -0.099,-0.277 -0.043,-0.141 -0.071,-0.286 -0.03,-0.144 -0.043,-0.29 -0.015,-0.148 -0.015,-0.295 0,-0.147 0.015,-0.294 0.015,-0.147 0.043,-0.291 0.028,-0.145 0.071,-0.286 0.043,-0.141 0.1,-0.277 0.057,-0.136 0.125,-0.266 0.068,-0.13 0.152,-0.253 0.084,-0.123 0.175,-0.236 0.091,-0.113 0.198,-0.218 m 5.657,5.657 q 0.139,-0.14 0.29,-0.264 0.152,-0.125 0.316,-0.234 0.163,-0.109 0.336,-0.202 0.174,-0.092 0.355,-0.167 0.182,-0.076 0.37,-0.133 0.188,-0.057 0.38,-0.095 0.192,-0.038 0.389,-0.058 0.196,-0.019 0.392,-0.019 0.197,0 0.392,0.02 0.196,0.019 0.388,0.057 0.193,0.038 0.381,0.095 0.188,0.057 0.37,0.133 0.182,0.076 0.355,0.167 0.173,0.091 0.336,0.202 0.164,0.11 0.316,0.234 0.152,0.124 0.29,0.264 0.138,0.14 0.264,0.29 0.126,0.15 0.234,0.316 0.11,0.163 0.202,0.336 0.092,0.173 0.168,0.355 0.076,0.182 0.132,0.37 0.056,0.188 0.095,0.38 0.039,0.192 0.058,0.389 0.019,0.197 0.019,0.392 0,0.195 -0.02,0.392 -0.018,0.196 -0.057,0.388 -0.038,0.193 -0.095,0.381 -0.057,0.188 -0.132,0.37 -0.076,0.181 -0.168,0.355 -0.093,0.173 -0.202,0.336 -0.109,0.163 -0.234,0.316 -0.125,0.153 -0.264,0.29 -0.139,0.137 -0.29,0.264 -0.151,0.127 -0.316,0.234 -0.165,0.107 -0.336,0.202 -0.171,0.095 -0.355,0.168 -0.184,0.073 -0.37,0.132 -0.186,0.059 -0.38,0.095 -0.194,0.036 -0.389,0.058 -0.195,0.022 -0.392,0.019 -0.197,-0.003 -0.392,-0.02 -0.196,-0.018 -0.388,-0.057 -0.193,-0.038 -0.381,-0.095 -0.188,-0.057 -0.37,-0.132 -0.181,-0.076 -0.355,-0.168 -0.173,-0.093 -0.336,-0.202 -0.163,-0.109 -0.316,-0.234 -0.153,-0.125 -0.29,-0.264 -0.137,-0.139 -0.264,-0.29 -0.127,-0.151 -0.234,-0.316 -0.107,-0.165 -0.202,-0.336 -0.095,-0.171 -0.167,-0.355 -0.072,-0.184 -0.133,-0.37 -0.061,-0.186 -0.095,-0.38 -0.034,-0.194 -0.058,-0.389 -0.024,-0.195 -0.019,-0.392 0.005,-0.197 0.02,-0.392 0.015,-0.195 0.057,-0.388 0.042,-0.193 0.095,-0.381 0.053,-0.188 0.133,-0.37 0.08,-0.182 0.167,-0.355 0.087,-0.173 0.202,-0.336 0.11,-0.164 0.234,-0.316 0.125,-0.151 0.264,-0.29 M 64.936,31.31 q 0.07,-0.069 0.145,-0.131 0.076,-0.063 0.158,-0.117 0.081,-0.055 0.168,-0.101 0.087,-0.046 0.177,-0.084 0.09,-0.038 0.185,-0.066 0.095,-0.028 0.19,-0.048 0.097,-0.019 0.195,-0.029 0.097,-0.01 0.196,-0.01 0.098,0 0.196,0.01 0.098,0.01 0.194,0.03 0.096,0.018 0.19,0.047 0.094,0.028 0.185,0.066 0.09,0.038 0.178,0.084 0.086,0.046 0.168,0.1 0.082,0.054 0.158,0.118 0.076,0.064 0.145,0.132 0.069,0.068 0.132,0.145 0.063,0.077 0.117,0.158 0.054,0.081 0.1,0.168 0.046,0.087 0.085,0.177 0.039,0.09 0.066,0.185 0.028,0.094 0.047,0.19 0.02,0.097 0.03,0.195 0.01,0.098 0.009,0.196 -10e-4,0.098 -0.01,0.196 -0.009,0.098 -0.029,0.194 -0.02,0.096 -0.047,0.19 -0.027,0.094 -0.066,0.185 -0.038,0.091 -0.084,0.178 -0.047,0.086 -0.101,0.168 -0.054,0.082 -0.117,0.158 -0.063,0.076 -0.132,0.145 -0.069,0.069 -0.145,0.132 -0.076,0.063 -0.158,0.117 -0.082,0.054 -0.168,0.1 -0.086,0.046 -0.178,0.085 -0.09,0.037 -0.185,0.066 -0.094,0.028 -0.19,0.047 -0.096,0.02 -0.194,0.03 -0.098,0.01 -0.196,0.009 -0.099,0 -0.196,-0.01 -0.098,-0.01 -0.194,-0.029 -0.097,-0.019 -0.19,-0.047 -0.095,-0.029 -0.186,-0.066 -0.09,-0.038 -0.177,-0.084 -0.087,-0.046 -0.168,-0.101 -0.081,-0.055 -0.158,-0.117 -0.077,-0.062 -0.145,-0.132 -0.068,-0.07 -0.132,-0.145 -0.064,-0.075 -0.117,-0.158 -0.053,-0.083 -0.101,-0.168 -0.048,-0.085 -0.084,-0.178 -0.038,-0.09 -0.066,-0.185 -0.029,-0.094 -0.048,-0.19 -0.019,-0.096 -0.029,-0.194 -0.01,-0.098 -0.01,-0.196 0,-0.098 0.01,-0.196 0.01,-0.098 0.03,-0.194 0.018,-0.097 0.047,-0.19 0.028,-0.095 0.066,-0.186 0.038,-0.09 0.084,-0.177 0.046,-0.087 0.1,-0.168 0.055,-0.082 0.118,-0.158 0.062,-0.076 0.132,-0.145 M 61.05,36.84 q 0.105,-0.104 0.219,-0.197 0.114,-0.093 0.236,-0.176 0.122,-0.083 0.253,-0.15 0.131,-0.067 0.266,-0.127 0.135,-0.06 0.277,-0.099 0.142,-0.039 0.286,-0.071 0.144,-0.03 0.29,-0.044 0.147,-0.014 0.295,-0.014 0.147,0 0.294,0.014 0.147,0.014 0.291,0.044 0.144,0.03 0.286,0.071 0.14,0.043 0.277,0.1 0.136,0.056 0.266,0.125 0.13,0.07 0.253,0.151 0.122,0.082 0.236,0.176 0.114,0.094 0.218,0.198 0.104,0.104 0.198,0.218 0.094,0.114 0.175,0.236 0.082,0.123 0.152,0.253 0.07,0.13 0.126,0.266 0.056,0.136 0.099,0.277 0.043,0.141 0.071,0.286 0.028,0.145 0.043,0.29 0.015,0.145 0.015,0.295 0,0.15 -0.015,0.294 -0.015,0.144 -0.043,0.291 -0.028,0.147 -0.071,0.286 -0.043,0.139 -0.1,0.277 -0.057,0.138 -0.125,0.266 -0.068,0.128 -0.152,0.253 -0.084,0.125 -0.175,0.236 -0.091,0.111 -0.198,0.218 -0.107,0.107 -0.218,0.198 -0.111,0.091 -0.236,0.175 -0.125,0.084 -0.253,0.152 -0.13,0.07 -0.266,0.125 -0.136,0.057 -0.277,0.1 -0.141,0.043 -0.286,0.071 -0.145,0.028 -0.291,0.043 -0.146,0.015 -0.294,0.015 -0.148,0 -0.294,-0.015 -0.146,-0.015 -0.291,-0.043 -0.145,-0.028 -0.286,-0.071 -0.141,-0.043 -0.277,-0.1 -0.136,-0.057 -0.266,-0.125 -0.13,-0.068 -0.253,-0.152 -0.123,-0.084 -0.236,-0.175 -0.113,-0.091 -0.219,-0.198 -0.106,-0.107 -0.197,-0.218 -0.094,-0.114 -0.176,-0.236 -0.081,-0.123 -0.15,-0.253 -0.07,-0.13 -0.127,-0.266 -0.057,-0.136 -0.099,-0.277 -0.042,-0.141 -0.072,-0.286 -0.03,-0.145 -0.043,-0.291 -0.013,-0.146 -0.014,-0.294 -10e-4,-0.148 0.014,-0.294 0.015,-0.146 0.043,-0.291 0.03,-0.145 0.072,-0.286 0.043,-0.141 0.1,-0.277 0.056,-0.136 0.125,-0.266 0.07,-0.13 0.151,-0.253 0.082,-0.122 0.176,-0.236 0.094,-0.114 0.197,-0.218 m -4.793,7.312 q 0.14,-0.14 0.291,-0.264 0.152,-0.125 0.316,-0.234 0.163,-0.11 0.336,-0.202 0.173,-0.092 0.355,-0.168 0.182,-0.076 0.37,-0.132 0.188,-0.056 0.38,-0.095 0.192,-0.039 0.389,-0.058 0.195,-0.02 0.392,-0.019 0.196,0 0.392,0.02 0.196,0.018 0.388,0.057 0.193,0.038 0.381,0.095 0.188,0.057 0.37,0.132 0.181,0.076 0.355,0.168 0.173,0.093 0.336,0.202 0.163,0.109 0.315,0.234 0.152,0.125 0.291,0.264 0.139,0.139 0.264,0.29 0.125,0.151 0.234,0.316 0.109,0.165 0.202,0.336 0.093,0.171 0.167,0.355 0.074,0.184 0.133,0.37 0.059,0.186 0.095,0.38 0.036,0.194 0.058,0.389 0.022,0.195 0.019,0.392 -0.003,0.197 -0.02,0.392 -0.017,0.195 -0.057,0.388 -0.04,0.193 -0.095,0.381 -0.055,0.188 -0.133,0.37 -0.078,0.182 -0.167,0.355 -0.089,0.173 -0.202,0.336 -0.113,0.163 -0.234,0.316 -0.125,0.151 -0.264,0.29 -0.139,0.14 -0.29,0.264 -0.152,0.125 -0.316,0.234 -0.163,0.109 -0.336,0.202 -0.174,0.092 -0.355,0.167 -0.182,0.076 -0.37,0.133 -0.188,0.057 -0.38,0.095 -0.192,0.038 -0.389,0.058 -0.196,0.019 -0.392,0.019 -0.197,0 -0.392,-0.02 -0.196,-0.019 -0.388,-0.057 -0.193,-0.038 -0.381,-0.095 -0.188,-0.057 -0.37,-0.133 Q 57.373,50.6 57.2,50.509 57.027,50.418 56.864,50.307 56.7,50.197 56.548,50.073 q -0.152,-0.124 -0.29,-0.264 -0.138,-0.14 -0.264,-0.29 -0.126,-0.15 -0.234,-0.316 -0.11,-0.163 -0.202,-0.336 -0.092,-0.173 -0.168,-0.355 -0.076,-0.182 -0.132,-0.37 -0.056,-0.188 -0.095,-0.38 -0.039,-0.192 -0.058,-0.389 -0.019,-0.197 -0.02,-0.392 -10e-4,-0.195 0.02,-0.392 0.021,-0.197 0.058,-0.388 0.037,-0.191 0.095,-0.381 0.058,-0.19 0.132,-0.37 0.074,-0.18 0.168,-0.355 0.094,-0.175 0.202,-0.336 0.108,-0.161 0.234,-0.316 0.126,-0.155 0.263,-0.29 m 22.021,13.344 q 0.07,-0.07 0.145,-0.132 0.076,-0.062 0.158,-0.117 0.082,-0.055 0.168,-0.101 0.086,-0.046 0.178,-0.084 0.092,-0.038 0.185,-0.066 0.093,-0.028 0.19,-0.048 0.097,-0.02 0.194,-0.028 0.097,-0.008 0.196,-0.01 0.099,-0.002 0.196,0.01 0.097,0.012 0.194,0.028 0.097,0.016 0.19,0.048 0.095,0.029 0.186,0.066 0.09,0.038 0.177,0.084 0.087,0.046 0.168,0.1 0.082,0.055 0.158,0.118 0.076,0.062 0.145,0.132 0.07,0.07 0.132,0.145 0.063,0.076 0.117,0.158 0.055,0.081 0.101,0.168 0.046,0.087 0.084,0.177 0.038,0.09 0.066,0.185 0.028,0.095 0.048,0.19 0.019,0.097 0.029,0.195 0.01,0.098 0.01,0.196 0,0.098 -0.01,0.196 -0.01,0.098 -0.03,0.194 -0.018,0.096 -0.047,0.19 -0.028,0.094 -0.066,0.185 -0.038,0.091 -0.084,0.178 -0.046,0.087 -0.1,0.168 -0.054,0.081 -0.118,0.158 -0.064,0.077 -0.132,0.145 -0.069,0.07 -0.145,0.132 -0.076,0.062 -0.158,0.117 -0.081,0.054 -0.168,0.1 -0.087,0.046 -0.177,0.085 -0.09,0.039 -0.185,0.066 -0.094,0.028 -0.19,0.047 -0.097,0.02 -0.195,0.03 -0.098,0.01 -0.196,0.009 -0.098,-0.001 -0.196,-0.01 -0.098,-0.009 -0.194,-0.029 -0.096,-0.02 -0.19,-0.047 -0.094,-0.027 -0.185,-0.066 -0.09,-0.038 -0.178,-0.084 -0.086,-0.047 -0.168,-0.101 -0.082,-0.054 -0.158,-0.117 -0.076,-0.063 -0.145,-0.132 -0.069,-0.069 -0.132,-0.145 -0.062,-0.076 -0.117,-0.158 -0.054,-0.082 -0.1,-0.168 -0.046,-0.086 -0.084,-0.178 -0.038,-0.09 -0.067,-0.185 -0.028,-0.094 -0.047,-0.19 -0.02,-0.096 -0.03,-0.194 -0.01,-0.098 -0.009,-0.196 0.001,-0.098 0.01,-0.196 0.009,-0.098 0.029,-0.194 0.019,-0.097 0.047,-0.19 0.029,-0.095 0.067,-0.186 0.037,-0.09 0.083,-0.177 0.046,-0.087 0.101,-0.168 0.055,-0.081 0.117,-0.158 0.062,-0.077 0.132,-0.145 m -7.621,-1.802 q 0.104,-0.105 0.218,-0.198 0.114,-0.093 0.237,-0.176 0.123,-0.083 0.252,-0.15 0.13,-0.07 0.266,-0.127 0.136,-0.057 0.277,-0.099 0.142,-0.043 0.286,-0.072 0.145,-0.028 0.291,-0.043 0.147,-0.014 0.294,-0.014 0.148,0 0.294,0.014 0.147,0.015 0.292,0.043 0.144,0.03 0.285,0.072 0.141,0.043 0.277,0.1 0.137,0.056 0.267,0.125 0.13,0.07 0.252,0.151 0.123,0.082 0.237,0.176 0.114,0.094 0.218,0.198 0.104,0.104 0.197,0.218 0.093,0.114 0.176,0.236 0.083,0.122 0.151,0.253 0.068,0.131 0.126,0.266 0.058,0.135 0.1,0.277 0.042,0.142 0.07,0.286 0.03,0.144 0.044,0.29 0.014,0.147 0.014,0.295 0,0.147 -0.014,0.294 -0.014,0.147 -0.043,0.291 -0.029,0.144 -0.072,0.286 -0.043,0.14 -0.099,0.277 -0.056,0.136 -0.126,0.266 -0.07,0.13 -0.151,0.253 -0.081,0.123 -0.176,0.236 -0.095,0.113 -0.197,0.218 -0.102,0.105 -0.218,0.198 -0.116,0.093 -0.237,0.175 -0.121,0.082 -0.252,0.152 -0.131,0.07 -0.267,0.125 -0.136,0.055 -0.277,0.1 -0.14,0.042 -0.285,0.071 -0.145,0.029 -0.292,0.043 -0.146,0.015 -0.294,0.015 -0.147,0 -0.294,-0.015 -0.146,-0.014 -0.29,-0.043 -0.145,-0.029 -0.286,-0.071 -0.142,-0.043 -0.278,-0.1 -0.136,-0.056 -0.266,-0.125 -0.13,-0.07 -0.252,-0.152 -0.123,-0.082 -0.237,-0.175 -0.114,-0.094 -0.218,-0.198 -0.104,-0.104 -0.198,-0.218 -0.094,-0.114 -0.175,-0.236 -0.081,-0.122 -0.151,-0.253 -0.07,-0.131 -0.126,-0.266 -0.056,-0.135 -0.1,-0.277 -0.044,-0.142 -0.071,-0.286 -0.027,-0.144 -0.043,-0.291 -0.016,-0.147 -0.015,-0.294 0,-0.148 0.015,-0.294 0.014,-0.147 0.043,-0.291 0.029,-0.145 0.072,-0.286 0.043,-0.141 0.099,-0.277 0.056,-0.136 0.126,-0.266 0.07,-0.13 0.151,-0.253 0.081,-0.123 0.175,-0.236 0.094,-0.113 0.198,-0.218 M 61.06,53.58 q 0.14,-0.14 0.292,-0.264 0.152,-0.125 0.315,-0.234 0.163,-0.109 0.337,-0.202 0.174,-0.093 0.354,-0.168 0.18,-0.075 0.37,-0.132 0.19,-0.057 0.38,-0.095 0.194,-0.039 0.39,-0.058 0.195,-0.02 0.391,-0.02 0.197,0 0.392,0.02 0.196,0.02 0.389,0.058 0.192,0.038 0.38,0.095 0.188,0.057 0.37,0.132 0.181,0.076 0.355,0.168 0.173,0.093 0.336,0.202 0.163,0.109 0.316,0.234 0.153,0.125 0.29,0.263 0.14,0.14 0.264,0.291 0.125,0.152 0.234,0.316 0.11,0.163 0.202,0.336 0.092,0.173 0.168,0.355 0.075,0.182 0.132,0.37 0.057,0.188 0.095,0.38 0.038,0.192 0.058,0.389 0.02,0.197 0.02,0.392 0,0.195 -0.02,0.392 -0.02,0.197 -0.058,0.388 -0.038,0.191 -0.095,0.381 -0.057,0.19 -0.132,0.37 -0.075,0.18 -0.168,0.354 -0.093,0.174 -0.202,0.337 -0.109,0.163 -0.234,0.315 -0.125,0.152 -0.263,0.291 -0.14,0.14 -0.291,0.264 -0.152,0.125 -0.316,0.234 -0.163,0.109 -0.336,0.202 -0.174,0.092 -0.355,0.167 -0.182,0.076 -0.37,0.133 -0.188,0.057 -0.38,0.095 -0.193,0.038 -0.389,0.058 -0.195,0.019 -0.392,0.019 -0.196,0 -0.392,-0.02 -0.195,-0.019 -0.388,-0.057 -0.193,-0.038 -0.38,-0.095 Q 62.54,60.179 62.359,60.103 62.177,60.028 62.004,59.936 61.83,59.843 61.667,59.734 61.504,59.625 61.352,59.5 61.2,59.375 61.061,59.236 60.922,59.097 60.797,58.946 60.672,58.795 60.563,58.63 60.454,58.467 60.362,58.293 60.269,58.12 60.194,57.939 q -0.076,-0.182 -0.133,-0.37 -0.057,-0.188 -0.095,-0.38 -0.038,-0.192 -0.058,-0.389 -0.019,-0.196 -0.019,-0.392 0,-0.197 0.02,-0.392 0.019,-0.196 0.057,-0.388 0.038,-0.193 0.095,-0.381 0.057,-0.188 0.133,-0.37 0.076,-0.182 0.168,-0.355 0.092,-0.173 0.201,-0.336 0.11,-0.164 0.234,-0.316 0.124,-0.152 0.264,-0.29 m -3.564,24.698 q 0.07,-0.07 0.145,-0.132 0.076,-0.062 0.158,-0.117 0.081,-0.054 0.168,-0.1 0.087,-0.046 0.177,-0.084 0.09,-0.038 0.185,-0.067 0.095,-0.029 0.19,-0.047 0.097,-0.02 0.195,-0.03 0.098,-0.01 0.196,-0.009 0.098,0.001 0.196,0.01 0.098,0.009 0.194,0.029 0.096,0.02 0.19,0.047 0.094,0.029 0.185,0.067 0.091,0.037 0.178,0.083 0.086,0.047 0.168,0.101 0.082,0.054 0.158,0.117 0.076,0.063 0.145,0.132 0.069,0.069 0.132,0.145 0.063,0.076 0.117,0.158 0.054,0.082 0.1,0.168 0.046,0.086 0.085,0.178 0.037,0.09 0.066,0.185 0.028,0.094 0.047,0.19 0.02,0.096 0.03,0.194 0.01,0.098 0.009,0.196 -0.001,0.098 -0.01,0.196 -0.009,0.098 -0.029,0.194 -0.02,0.096 -0.047,0.19 -0.027,0.094 -0.066,0.186 -0.038,0.09 -0.084,0.177 -0.046,0.087 -0.101,0.168 -0.055,0.081 -0.117,0.158 -0.062,0.077 -0.132,0.145 -0.07,0.068 -0.145,0.132 -0.075,0.064 -0.158,0.117 -0.083,0.053 -0.168,0.101 -0.085,0.048 -0.178,0.084 -0.09,0.038 -0.185,0.066 -0.094,0.029 -0.19,0.048 -0.096,0.019 -0.194,0.029 -0.098,0.01 -0.196,0.01 -0.098,0 -0.196,-0.01 -0.098,-0.01 -0.194,-0.03 -0.097,-0.018 -0.19,-0.047 -0.095,-0.028 -0.186,-0.066 -0.09,-0.038 -0.177,-0.084 -0.087,-0.046 -0.168,-0.1 -0.082,-0.055 -0.158,-0.118 -0.076,-0.062 -0.145,-0.132 -0.07,-0.069 -0.132,-0.145 -0.063,-0.076 -0.117,-0.158 -0.055,-0.081 -0.1,-0.168 -0.047,-0.087 -0.085,-0.177 -0.037,-0.091 -0.066,-0.185 -0.029,-0.094 -0.048,-0.19 -0.019,-0.096 -0.029,-0.195 -0.01,-0.099 -0.01,-0.196 0,-0.097 0.01,-0.196 0.01,-0.098 0.03,-0.194 0.018,-0.096 0.047,-0.19 0.029,-0.094 0.066,-0.185 0.038,-0.09 0.084,-0.178 0.046,-0.086 0.101,-0.168 0.055,-0.082 0.117,-0.158 0.062,-0.076 0.132,-0.145 m -1.802,-7.621 q 0.104,-0.104 0.218,-0.198 0.114,-0.093 0.236,-0.175 0.123,-0.082 0.253,-0.151 0.13,-0.07 0.266,-0.126 0.136,-0.057 0.277,-0.1 0.141,-0.042 0.286,-0.071 0.144,-0.029 0.29,-0.043 0.147,-0.015 0.295,-0.015 0.147,0 0.294,0.015 0.147,0.015 0.291,0.043 0.144,0.028 0.286,0.072 0.14,0.042 0.277,0.099 0.136,0.056 0.266,0.126 0.13,0.07 0.253,0.151 0.123,0.081 0.236,0.175 0.113,0.094 0.218,0.198 0.105,0.104 0.198,0.218 0.093,0.114 0.175,0.237 0.082,0.123 0.152,0.252 0.07,0.129 0.125,0.266 0.055,0.137 0.1,0.278 0.042,0.14 0.071,0.285 0.029,0.145 0.043,0.291 0.015,0.147 0.015,0.294 0,0.148 -0.015,0.294 -0.014,0.147 -0.043,0.292 -0.029,0.144 -0.071,0.285 -0.043,0.141 -0.1,0.277 -0.056,0.137 -0.125,0.267 -0.07,0.13 -0.152,0.252 -0.082,0.123 -0.175,0.237 -0.094,0.114 -0.198,0.218 -0.104,0.104 -0.218,0.197 -0.114,0.093 -0.236,0.176 -0.122,0.083 -0.253,0.151 -0.131,0.068 -0.266,0.126 -0.135,0.058 -0.277,0.1 -0.141,0.042 -0.286,0.07 -0.144,0.03 -0.291,0.044 -0.147,0.014 -0.294,0.014 -0.148,0 -0.294,-0.014 Q 57.375,75.75 57.231,75.721 57.086,75.692 56.945,75.649 56.804,75.606 56.668,75.55 56.532,75.494 56.402,75.424 56.272,75.354 56.149,75.273 56.026,75.192 55.913,75.097 55.8,75.002 55.695,74.9 55.59,74.798 55.497,74.682 q -0.093,-0.116 -0.176,-0.237 -0.081,-0.122 -0.15,-0.252 -0.07,-0.13 -0.127,-0.267 -0.056,-0.136 -0.099,-0.277 -0.043,-0.14 -0.072,-0.285 -0.029,-0.145 -0.043,-0.292 -0.014,-0.147 -0.014,-0.294 0,-0.147 0.014,-0.294 0.015,-0.146 0.043,-0.29 0.03,-0.145 0.072,-0.287 0.043,-0.14 0.1,-0.277 0.056,-0.136 0.125,-0.266 0.07,-0.13 0.151,-0.252 0.082,-0.123 0.176,-0.237 0.094,-0.114 0.198,-0.218 M 53.58,61.06 q 0.138,-0.138 0.29,-0.263 0.152,-0.125 0.316,-0.234 0.164,-0.109 0.336,-0.201 0.172,-0.092 0.355,-0.168 0.183,-0.076 0.37,-0.133 0.187,-0.057 0.38,-0.095 0.193,-0.038 0.389,-0.058 0.195,-0.019 0.392,-0.019 0.196,0 0.392,0.02 0.196,0.019 0.388,0.057 0.193,0.038 0.381,0.095 0.188,0.057 0.37,0.133 0.182,0.076 0.354,0.168 0.172,0.092 0.337,0.201 0.165,0.109 0.315,0.234 0.152,0.125 0.291,0.264 0.14,0.139 0.264,0.29 0.125,0.153 0.234,0.316 0.109,0.163 0.202,0.337 0.093,0.174 0.167,0.354 0.076,0.182 0.133,0.37 0.057,0.188 0.095,0.38 0.038,0.194 0.058,0.39 0.019,0.195 0.019,0.391 0,0.197 -0.02,0.392 -0.019,0.196 -0.057,0.389 -0.038,0.192 -0.095,0.38 -0.057,0.188 -0.133,0.37 -0.076,0.182 -0.167,0.355 -0.091,0.173 -0.202,0.336 -0.11,0.164 -0.234,0.316 -0.124,0.152 -0.264,0.29 -0.14,0.138 -0.29,0.264 -0.152,0.125 -0.316,0.234 -0.163,0.11 -0.337,0.202 -0.173,0.093 -0.354,0.168 -0.182,0.075 -0.37,0.132 -0.188,0.057 -0.38,0.095 -0.192,0.038 -0.389,0.058 -0.197,0.02 -0.392,0.02 -0.195,0 -0.392,-0.02 -0.197,-0.02 -0.388,-0.058 -0.191,-0.038 -0.381,-0.095 -0.19,-0.057 -0.37,-0.132 Q 54.697,67.51 54.522,67.417 54.347,67.324 54.186,67.215 54.025,67.106 53.87,66.981 53.715,66.856 53.58,66.718 53.445,66.58 53.316,66.427 53.187,66.274 53.082,66.111 52.977,65.948 52.88,65.775 52.783,65.602 52.712,65.42 52.641,65.238 52.58,65.05 q -0.061,-0.188 -0.095,-0.38 -0.034,-0.192 -0.058,-0.389 -0.02,-0.195 -0.02,-0.392 0,-0.196 0.02,-0.392 0.02,-0.195 0.058,-0.388 0.038,-0.193 0.095,-0.38 0.057,-0.189 0.132,-0.37 0.076,-0.182 0.168,-0.355 0.093,-0.174 0.202,-0.337 0.109,-0.163 0.234,-0.315 0.125,-0.152 0.263,-0.291 M 31.31,64.936 q 0.07,-0.07 0.146,-0.132 0.076,-0.063 0.158,-0.117 0.081,-0.055 0.168,-0.101 0.087,-0.046 0.177,-0.084 0.09,-0.038 0.185,-0.066 0.095,-0.028 0.19,-0.048 0.097,-0.019 0.195,-0.029 0.098,-0.01 0.196,-0.01 0.098,0 0.196,0.01 0.098,0.01 0.194,0.03 0.096,0.018 0.19,0.047 0.094,0.028 0.185,0.066 0.09,0.038 0.178,0.084 0.086,0.046 0.168,0.1 0.082,0.054 0.158,0.118 0.076,0.064 0.145,0.132 0.069,0.068 0.132,0.145 0.063,0.077 0.117,0.158 0.054,0.081 0.1,0.168 0.046,0.087 0.085,0.177 0.039,0.09 0.066,0.185 0.028,0.094 0.047,0.19 0.02,0.097 0.03,0.195 0.009,0.097 0.009,0.196 0,0.098 -0.01,0.196 -0.01,0.098 -0.029,0.194 -0.019,0.096 -0.047,0.19 -0.028,0.094 -0.066,0.185 -0.038,0.091 -0.084,0.178 -0.046,0.087 -0.101,0.168 -0.055,0.081 -0.117,0.158 -0.062,0.077 -0.132,0.145 -0.07,0.068 -0.145,0.132 -0.075,0.064 -0.158,0.117 -0.083,0.053 -0.168,0.1 -0.085,0.047 -0.178,0.085 -0.093,0.038 -0.185,0.066 -0.092,0.028 -0.19,0.047 -0.098,0.019 -0.194,0.03 -0.096,0.011 -0.196,0.009 -0.1,-0.002 -0.196,-0.01 -0.096,-0.008 -0.194,-0.029 -0.098,-0.021 -0.19,-0.047 -0.095,-0.029 -0.186,-0.066 -0.09,-0.038 -0.177,-0.084 -0.087,-0.046 -0.168,-0.101 -0.082,-0.055 -0.158,-0.117 -0.076,-0.062 -0.145,-0.132 -0.069,-0.07 -0.132,-0.145 -0.063,-0.075 -0.117,-0.158 -0.054,-0.083 -0.101,-0.168 -0.047,-0.085 -0.084,-0.178 -0.038,-0.09 -0.066,-0.185 -0.029,-0.094 -0.048,-0.19 -0.019,-0.096 -0.029,-0.194 -0.01,-0.098 -0.01,-0.196 0,-0.098 0.01,-0.196 0.01,-0.098 0.03,-0.194 0.018,-0.097 0.047,-0.19 0.028,-0.095 0.066,-0.186 0.038,-0.09 0.084,-0.177 0.046,-0.087 0.1,-0.168 0.054,-0.081 0.118,-0.158 0.062,-0.076 0.132,-0.145 M 36.84,61.05 q 0.105,-0.104 0.219,-0.197 0.114,-0.093 0.236,-0.176 0.122,-0.083 0.253,-0.15 0.131,-0.067 0.266,-0.127 0.136,-0.056 0.277,-0.099 0.141,-0.043 0.286,-0.072 0.145,-0.029 0.29,-0.043 0.148,-0.014 0.295,-0.014 0.147,0 0.294,0.014 0.147,0.014 0.291,0.043 0.145,0.03 0.286,0.072 0.14,0.043 0.277,0.1 0.136,0.056 0.266,0.125 0.13,0.07 0.253,0.151 0.122,0.082 0.236,0.176 0.114,0.094 0.218,0.197 0.104,0.103 0.198,0.219 0.094,0.116 0.175,0.236 0.081,0.12 0.152,0.253 0.071,0.133 0.125,0.266 0.057,0.136 0.1,0.277 0.043,0.141 0.071,0.286 0.028,0.145 0.043,0.29 0.015,0.147 0.015,0.295 0,0.147 -0.015,0.294 -0.015,0.147 -0.043,0.291 -0.028,0.144 -0.071,0.286 -0.043,0.14 -0.1,0.277 -0.056,0.136 -0.125,0.266 -0.07,0.13 -0.152,0.253 -0.082,0.122 -0.175,0.236 -0.094,0.114 -0.198,0.218 -0.104,0.104 -0.218,0.198 -0.114,0.094 -0.236,0.175 -0.123,0.082 -0.253,0.152 -0.13,0.07 -0.266,0.125 -0.136,0.055 -0.277,0.1 -0.141,0.045 -0.286,0.071 -0.144,0.029 -0.291,0.043 -0.147,0.015 -0.294,0.015 -0.148,0 -0.294,-0.015 -0.147,-0.014 -0.291,-0.043 -0.145,-0.029 -0.286,-0.071 -0.141,-0.043 -0.277,-0.1 -0.136,-0.056 -0.266,-0.125 -0.13,-0.07 -0.253,-0.152 -0.122,-0.082 -0.236,-0.175 -0.114,-0.094 -0.218,-0.198 -0.105,-0.104 -0.198,-0.218 -0.093,-0.114 -0.176,-0.236 -0.081,-0.123 -0.15,-0.253 -0.07,-0.13 -0.127,-0.266 -0.057,-0.136 -0.099,-0.277 -0.042,-0.141 -0.071,-0.286 -0.03,-0.144 -0.044,-0.291 -0.014,-0.147 -0.014,-0.294 0,-0.148 0.014,-0.294 0.015,-0.147 0.044,-0.291 0.028,-0.145 0.071,-0.286 0.043,-0.141 0.1,-0.277 0.057,-0.136 0.125,-0.266 0.068,-0.13 0.151,-0.253 0.083,-0.123 0.176,-0.236 0.093,-0.114 0.198,-0.219 m 7.312,-4.793 q 0.138,-0.138 0.29,-0.263 0.152,-0.125 0.316,-0.234 0.163,-0.11 0.336,-0.202 0.173,-0.092 0.355,-0.168 0.182,-0.076 0.37,-0.132 0.188,-0.056 0.38,-0.095 0.192,-0.039 0.389,-0.058 0.197,-0.019 0.392,-0.02 0.195,-10e-4 0.392,0.02 0.197,0.021 0.388,0.058 0.191,0.037 0.381,0.095 0.19,0.058 0.37,0.132 0.181,0.076 0.355,0.168 0.173,0.093 0.336,0.202 0.163,0.109 0.316,0.234 0.153,0.125 0.29,0.263 0.14,0.14 0.264,0.291 0.125,0.152 0.234,0.316 0.109,0.163 0.202,0.336 0.092,0.174 0.167,0.355 0.076,0.182 0.133,0.37 0.057,0.188 0.095,0.38 0.038,0.192 0.058,0.389 0.019,0.195 0.019,0.392 0,0.196 -0.02,0.392 -0.019,0.196 -0.057,0.388 -0.038,0.193 -0.095,0.381 -0.057,0.188 -0.133,0.37 -0.076,0.182 -0.167,0.355 -0.091,0.173 -0.202,0.336 -0.11,0.164 -0.234,0.315 -0.125,0.152 -0.264,0.291 -0.139,0.14 -0.29,0.264 -0.152,0.125 -0.316,0.234 -0.163,0.109 -0.336,0.202 -0.174,0.092 -0.355,0.167 -0.182,0.076 -0.37,0.133 -0.188,0.057 -0.38,0.095 -0.192,0.038 -0.389,0.058 -0.196,0.019 -0.392,0.019 -0.197,0 -0.392,-0.02 -0.196,-0.019 -0.388,-0.057 -0.193,-0.038 -0.381,-0.095 -0.188,-0.057 -0.37,-0.133 -0.182,-0.076 -0.355,-0.167 -0.173,-0.091 -0.336,-0.202 -0.164,-0.11 -0.316,-0.234 -0.152,-0.124 -0.29,-0.264 -0.138,-0.14 -0.264,-0.29 -0.126,-0.15 -0.234,-0.316 -0.11,-0.163 -0.202,-0.336 -0.092,-0.173 -0.168,-0.355 -0.076,-0.182 -0.132,-0.37 -0.056,-0.188 -0.095,-0.38 -0.039,-0.192 -0.058,-0.39 -0.02,-0.195 -0.019,-0.391 0,-0.197 0.02,-0.392 0.018,-0.196 0.057,-0.388 0.038,-0.193 0.095,-0.381 0.057,-0.188 0.132,-0.37 0.076,-0.181 0.168,-0.355 0.093,-0.173 0.202,-0.336 0.109,-0.163 0.234,-0.316 0.125,-0.153 0.264,-0.29"
       id="path6" />
  </g>
</svg>
